<svg width="71" height="71" viewBox="0 0 71 71" fill="none" xmlns="http://www.w3.org/2000/svg">
<g clip-path="url(#clip0_66_1526)">
<mask id="mask0_66_1526" style="mask-type:luminance" maskUnits="userSpaceOnUse" x="0" y="0" width="71" height="71">
<path d="M71 0H0V71H71V0Z" fill="white"/>
</mask>
<g mask="url(#mask0_66_1526)">
<path d="M20.1686 2.55371V6.88966H29.1872V11.0708H8.19861V30.5825H4.26329V21.9106H0V51.0234H4.26329V42.6613H8.19861V62.4828H29.1872V65.8896H20.1686V70.9997H50.6675V65.8896H41.157V62.4828H62.4734V42.6613H66.5727V51.0234H71V22.8398H66.5727V30.5825H62.4734V9.8319H41.157V6.88966H50.6675V2.55371H20.1686Z" fill="#030000" stroke="#FF7977" stroke-width="2"/>
<path d="M29.4976 17.9901C25.8598 13.2752 34.816 12.1976 34.9381 9.93337C34.7968 9.68068 34.678 9.39995 34.5869 9.08594C34.8465 9.3896 34.9523 9.66956 34.9381 9.93337C36.834 13.3276 42.7739 11.6605 40.2366 17.6141C36.2438 16.7132 33.9124 16.692 29.4976 17.9901Z" fill="#F7F73F"/>
<path d="M40.5204 17.4851C40.0818 11.666 48.2812 15.2352 49.6555 13.3763C49.6775 13.0914 49.7343 12.7938 49.8332 12.4819C49.8829 12.8694 49.8155 13.1597 49.6555 13.3763C49.3582 17.2037 55.3307 18.763 49.8379 22.5416C46.9577 19.7791 44.9924 18.5941 40.5204 17.4851Z" fill="#FF3033"/>
<path d="M50.1533 22.8074C52.5725 17.4394 58.1467 24.1467 60.2673 23.0841C60.4244 22.84 60.6187 22.5997 60.8575 22.3647C60.7146 22.731 60.5144 22.9603 60.2673 23.0841C58.155 26.3626 62.7177 30.3223 56.0047 31.3198C54.7749 27.621 53.598 25.7201 50.1533 22.8074Z" fill="#030000"/>
<path d="M60.2673 23.0841C58.1467 24.1467 52.5725 17.4394 50.1533 22.8074C53.598 25.7201 54.7749 27.621 56.0047 31.3198C62.7177 30.3223 58.155 26.3626 60.2673 23.0841ZM60.2673 23.0841C60.4244 22.84 60.6187 22.5997 60.8575 22.3647C60.7146 22.731 60.5144 22.9603 60.2673 23.0841Z" stroke="white"/>
<path d="M55.5923 31.681C60.6951 28.393 61.5582 36.8806 63.9506 37.0659C64.2226 36.9405 64.5234 36.837 64.8585 36.7606C64.5291 36.9963 64.2294 37.0874 63.9506 37.0659C60.2996 38.7505 61.8803 44.409 55.6576 41.8295C56.7347 38.0885 56.8293 35.8882 55.5923 31.681Z" fill="#5DEC5C"/>
<path d="M55.7555 41.6745C61.9323 41.5942 57.6891 49.1205 59.5755 50.5227C59.8754 50.5599 60.1866 50.6306 60.5108 50.7419C60.0983 50.7665 59.7954 50.6863 59.5755 50.5227C55.5465 50.0234 53.5557 55.5651 49.876 50.1696C52.9616 47.6122 54.3267 45.8273 55.7555 41.6745Z" fill="white"/>
<path d="M50.3739 50.7036C55.7403 53.5931 48.0418 58.0471 48.9144 60.1592C49.1529 60.335 49.3832 60.5449 49.6028 60.796C49.2341 60.6197 49.0161 60.4053 48.9144 60.1592C45.7101 57.7989 41.0185 61.6215 40.7446 55.209C44.7772 54.4829 46.9124 53.5985 50.3739 50.7036Z" fill="#030000"/>
<path d="M48.9144 60.1592C48.0418 58.0471 55.7403 53.5931 50.3739 50.7036C46.9124 53.5985 44.7772 54.4829 40.7446 55.209C41.0185 61.6215 45.7101 57.7989 48.9144 60.1592ZM48.9144 60.1592C49.1529 60.335 49.3832 60.5449 49.6028 60.796C49.2341 60.6197 49.0161 60.4053 48.9144 60.1592Z" stroke="white"/>
<path d="M40.2395 54.7651C43.9549 59.4258 35.0177 60.6354 34.9332 62.9013C35.0785 63.1517 35.2021 63.4307 35.2984 63.7433C35.0338 63.4435 34.9235 63.1651 34.9332 62.9013C32.9812 59.5354 27.0697 61.29 29.5081 55.2998C33.5153 56.1414 35.847 56.1281 40.2395 54.7651Z" fill="#F7F73F"/>
<path d="M29.562 54.7805C30.0276 60.5978 21.8118 57.0622 20.4462 58.9266C20.4254 59.2118 20.3699 59.5096 20.2724 59.8217C20.221 59.4345 20.2871 59.1439 20.4462 58.9266C20.7256 55.0981 14.746 53.5633 20.2214 49.7622C23.1144 52.513 25.085 53.6897 29.562 54.7805Z" fill="white"/>
<path d="M20.6088 49.2601C17.9419 54.5224 12.6856 47.59 10.5176 48.5634C10.3491 48.8008 10.1439 49.0327 9.89453 49.2575C10.0543 48.8976 10.265 48.6767 10.5176 48.5634C12.7806 45.376 8.40694 41.2305 15.1598 40.5127C16.216 44.2594 17.3032 46.2071 20.6088 49.2601Z" fill="#FF3033"/>
<path d="M15.0054 40.6324C9.53152 43.336 9.72185 34.8113 7.36846 34.364C7.08304 34.4587 6.77151 34.5282 6.4292 34.5671C6.78548 34.3694 7.09423 34.3119 7.36846 34.364C11.2026 33.0926 10.3312 27.2988 16.193 30.5456C14.6615 34.1427 14.296 36.3175 15.0054 40.6324Z" fill="#5DEC5C"/>
<path d="M16.2619 30.5838C10.0867 30.7369 14.2296 23.1612 12.3248 21.7814C12.0244 21.7478 11.7123 21.6808 11.3867 21.5735C11.7988 21.544 12.1028 21.6206 12.3248 21.7814C16.3602 22.2332 18.2773 16.6683 22.0282 22.0198C18.9769 24.6134 17.6354 26.4145 16.2619 30.5838Z" fill="#030000"/>
<path d="M12.3248 21.7814C14.2296 23.1612 10.0867 30.7369 16.2619 30.5838C17.6354 26.4145 18.9769 24.6134 22.0282 22.0198C18.2773 16.6683 16.3602 22.2332 12.3248 21.7814ZM12.3248 21.7814C12.0244 21.7478 11.7123 21.6808 11.3867 21.5735C11.7988 21.544 12.1028 21.6206 12.3248 21.7814Z" stroke="white"/>
<path d="M21.9432 23.4366C16.2777 21.1115 23.4219 15.8981 22.3127 13.8875C22.0555 13.7371 21.8025 13.5519 21.5555 13.3247C21.9422 13.4624 22.1835 13.6532 22.3127 13.8875C25.7681 15.907 29.9954 11.6282 31.0008 17.9752C27.075 19.1086 25.0534 20.2056 21.9432 23.4366Z" fill="white"/>
<path d="M56.6725 36.5214C56.6725 47.3091 47.2893 56.0684 35.6969 56.0684C24.1048 56.0684 14.7217 47.3091 14.7217 36.5214C14.7217 25.7334 24.1048 16.9741 35.6969 16.9741C47.2893 16.9741 56.6725 25.7334 56.6725 36.5214Z" fill="#030000" stroke="white"/>
<path d="M19.3527 4.85235C19.3527 7.46068 17.1117 9.58653 14.3329 9.58653C11.554 9.58653 9.31299 7.46068 9.31299 4.85235C9.31299 2.24402 11.554 0.118164 14.3329 0.118164C17.1117 0.118164 19.3527 2.24402 19.3527 4.85235Z" fill="#FE0B07" stroke="#FF7977"/>
<path d="M39.7535 25.2837H31.3701L24.6092 30.3917L22.4458 38.5645L26.7726 44.9493L35.1561 47.2478L43.81 44.9493L47.596 38.5645L46.2439 30.9024L39.7535 25.2837Z" fill="#090A05"/>
<path d="M35.1561 17.8774L31.0996 25.0284H40.2943L35.1561 17.8774Z" fill="#FC0609"/>
<path d="M48.1366 21.9639L46.2438 30.9028L39.4829 25.0285L48.1366 21.9639Z" fill="#E16331"/>
<path d="M55.7091 33.7123L47.5962 38.5649L46.2441 30.6475L55.7091 33.7123Z" fill="white"/>
<path d="M24.8798 30.3921L22.1754 38.5649L15.6851 32.4352L24.8798 30.3921Z" fill="url(#paint0_linear_66_1526)"/>
<path d="M31.3702 25.2839L24.8798 30.3919L22.7163 21.7085L31.3702 25.2839Z" fill="white"/>
<path d="M47.5962 38.5645L44.0806 45.2046H53.2753L47.5962 38.5645Z" fill="#FBFE02"/>
<path d="M43.8102 44.9492L35.4268 47.5031L42.9989 54.1435L43.8102 44.9492Z" fill="white"/>
<path d="M35.1562 47.5031L26.5024 44.9492L28.6658 54.1435L35.1562 47.5031Z" fill="#030000" stroke="white"/>
<path d="M27.043 44.9493L22.1752 38.8198L18.3892 45.7156L27.043 44.9493Z" fill="url(#paint1_linear_66_1526)"/>
</g>
</g>
<defs>
<linearGradient id="paint0_linear_66_1526" x1="13.792" y1="44.439" x2="20.5085" y2="46.1458" gradientUnits="userSpaceOnUse">
<stop stop-color="#E3F079"/>
<stop offset="0.251788" stop-color="#10F969"/>
<stop offset="0.496585" stop-color="#0049FE"/>
<stop offset="0.751799" stop-color="#BA202A"/>
<stop offset="1" stop-color="#FF3CB0"/>
</linearGradient>
<linearGradient id="paint1_linear_66_1526" x1="21.3639" y1="53.3774" x2="30.9286" y2="45.4392" gradientUnits="userSpaceOnUse">
<stop stop-color="#E4317C"/>
<stop offset="0.27783" stop-color="#FC0609"/>
<stop offset="0.4897" stop-color="#1D69FB"/>
<stop offset="0.793467" stop-color="#5DEC5C"/>
<stop offset="1" stop-color="#F7F73F"/>
</linearGradient>
<clipPath id="clip0_66_1526">
<rect width="71" height="71" fill="white"/>
</clipPath>
</defs>
</svg>
