<svg width="36" height="36" viewBox="0 0 36 36" fill="none" xmlns="http://www.w3.org/2000/svg">
<g clip-path="url(#clip0_66_1526)">
<mask id="mask0_66_1526" style="mask-type:luminance" maskUnits="userSpaceOnUse" x="0" y="0" width="36" height="36">
<path d="M36 0H0V36H36V0Z" fill="white"/>
</mask>
<g mask="url(#mask0_66_1526)">
<path d="M10.2263 1.29492V3.49343H14.7991V5.61342H4.15704V15.5067H2.16167V11.1097H0V25.8711H2.16167V21.6312H4.15704V31.6815H14.7991V33.4089H10.2263V35.9999H25.6906V33.4089H20.8684V31.6815H31.6766V21.6312H33.7552V25.8711H36V11.5808H33.7552V15.5067H31.6766V4.98527H20.8684V3.49343H25.6906V1.29492H10.2263Z" fill="#030000" stroke="#FF7977" stroke-width="2"/>
<path d="M14.9566 9.12173C13.1121 6.73104 17.6532 6.18466 17.7151 5.03662C17.6435 4.90849 17.5833 4.76615 17.5371 4.60693C17.6687 4.76091 17.7223 4.90285 17.7151 5.03662C18.6765 6.75766 21.6882 5.91233 20.4017 8.93105C18.3772 8.47429 17.1951 8.46355 14.9566 9.12173Z" fill="#F7F73F"/>
<path d="M20.5452 8.86594C20.3229 5.91539 24.4803 7.72512 25.1771 6.78257C25.1883 6.6381 25.2171 6.48725 25.2672 6.3291C25.2924 6.52554 25.2582 6.67275 25.1771 6.78257C25.0264 8.72322 28.0547 9.51389 25.2696 11.4298C23.8092 10.0291 22.8127 9.42825 20.5452 8.86594Z" fill="#FF3033"/>
<path d="M25.4297 11.5648C26.6563 8.843 29.4827 12.2439 30.5579 11.7051C30.6376 11.5813 30.7361 11.4595 30.8572 11.3403C30.7847 11.526 30.6832 11.6423 30.5579 11.7051C29.4869 13.3674 31.8004 15.3751 28.3966 15.8809C27.773 14.0055 27.1763 13.0416 25.4297 11.5648Z" fill="#030000"/>
<path d="M30.5579 11.7051C29.4827 12.2439 26.6563 8.843 25.4297 11.5648C27.1763 13.0416 27.773 14.0055 28.3966 15.8809C31.8004 15.3751 29.4869 13.3674 30.5579 11.7051ZM30.5579 11.7051C30.6376 11.5813 30.7361 11.4595 30.8572 11.3403C30.7847 11.526 30.6832 11.6423 30.5579 11.7051Z" stroke="white"/>
<path d="M28.1875 16.0641C30.7748 14.3969 31.2125 18.7005 32.4255 18.7945C32.5634 18.7309 32.7159 18.6784 32.8859 18.6397C32.7188 18.7592 32.5669 18.8054 32.4255 18.7945C30.5743 19.6486 31.3758 22.5177 28.2206 21.2098C28.7667 19.313 28.8147 18.1973 28.1875 16.0641Z" fill="#5DEC5C"/>
<path d="M28.2702 21.1307C31.4021 21.09 29.2506 24.9061 30.2071 25.6171C30.3592 25.636 30.517 25.6719 30.6814 25.7283C30.4722 25.7407 30.3186 25.7001 30.2071 25.6171C28.1643 25.3639 27.1548 28.1739 25.2891 25.4381C26.8536 24.1414 27.5458 23.2363 28.2702 21.1307Z" fill="white"/>
<path d="M25.5416 25.709C28.2626 27.1741 24.3591 29.4325 24.8016 30.5033C24.9225 30.5925 25.0393 30.6989 25.1507 30.8263C24.9637 30.7369 24.8532 30.6281 24.8016 30.5033C23.1769 29.3066 20.798 31.2448 20.6592 27.9934C22.7039 27.6253 23.7865 27.1768 25.5416 25.709Z" fill="#030000"/>
<path d="M24.8016 30.5033C24.3591 29.4325 28.2626 27.1741 25.5416 25.709C23.7865 27.1768 22.7039 27.6253 20.6592 27.9934C20.798 31.2448 23.1769 29.3066 24.8016 30.5033ZM24.8016 30.5033C24.9225 30.5925 25.0393 30.6989 25.1507 30.8263C24.9637 30.7369 24.8532 30.6281 24.8016 30.5033Z" stroke="white"/>
<path d="M20.403 27.7686C22.2869 30.1317 17.7553 30.745 17.7125 31.8939C17.7862 32.0209 17.8488 32.1624 17.8977 32.3209C17.7635 32.1688 17.7076 32.0277 17.7125 31.8939C16.7227 30.1873 13.7254 31.077 14.9617 28.0396C16.9936 28.4664 18.1758 28.4596 20.403 27.7686Z" fill="#F7F73F"/>
<path d="M14.9891 27.7759C15.2251 30.7255 11.0594 28.9328 10.367 29.8782C10.3564 30.0228 10.3283 30.1738 10.2789 30.332C10.2528 30.1357 10.2863 29.9884 10.367 29.8782C10.5087 27.937 7.47675 27.1588 10.253 25.2314C11.7199 26.6262 12.7191 27.2228 14.9891 27.7759Z" fill="white"/>
<path d="M10.4497 24.9773C9.09744 27.6455 6.43227 24.1305 5.33301 24.624C5.2476 24.7444 5.14352 24.862 5.01709 24.976C5.0981 24.7935 5.20493 24.6815 5.33301 24.624C6.48045 23.0079 4.26282 20.906 7.68683 20.542C8.22235 22.4417 8.77358 23.4293 10.4497 24.9773Z" fill="#FF3033"/>
<path d="M7.60825 20.6026C4.83277 21.9735 4.92928 17.6511 3.73601 17.4243C3.59129 17.4723 3.43333 17.5075 3.25977 17.5272C3.44041 17.427 3.59697 17.3979 3.73601 17.4243C5.68009 16.7796 5.23825 13.8419 8.2104 15.4882C7.43388 17.3121 7.24855 18.4147 7.60825 20.6026Z" fill="#5DEC5C"/>
<path d="M8.24535 15.5074C5.11427 15.585 7.2149 11.7438 6.24909 11.0442C6.09677 11.0271 5.9385 10.9932 5.77344 10.9388C5.98238 10.9238 6.13655 10.9627 6.24909 11.0442C8.29518 11.2732 9.26725 8.45163 11.1691 11.1651C9.62197 12.4801 8.94177 13.3933 8.24535 15.5074Z" fill="#030000"/>
<path d="M6.24909 11.0442C7.2149 11.7438 5.11427 15.585 8.24535 15.5074C8.94177 13.3933 9.62197 12.4801 11.1691 11.1651C9.26725 8.45163 8.29518 11.2732 6.24909 11.0442ZM6.24909 11.0442C6.09677 11.0271 5.9385 10.9932 5.77344 10.9388C5.98238 10.9238 6.13655 10.9627 6.24909 11.0442Z" stroke="white"/>
<path d="M11.1264 11.8835C8.2537 10.7046 11.8761 8.06114 11.3137 7.04168C11.1833 6.96546 11.055 6.87152 10.9298 6.75635C11.1258 6.82615 11.2482 6.9229 11.3137 7.04168C13.0657 8.06569 15.2091 5.89613 15.7189 9.11435C13.7283 9.68902 12.7033 10.2453 11.1264 11.8835Z" fill="white"/>
<path d="M28.7352 18.5182C28.7352 23.9881 23.9775 28.4294 18.0997 28.4294C12.222 28.4294 7.46436 23.9881 7.46436 18.5182C7.46436 13.0483 12.222 8.60693 18.0997 8.60693C23.9775 8.60693 28.7352 13.0483 28.7352 18.5182Z" fill="#030000" stroke="white"/>
<path d="M9.81275 2.46049C9.81275 3.78302 8.67647 4.86092 7.26746 4.86092C5.85846 4.86092 4.72217 3.78302 4.72217 2.46049C4.72217 1.13796 5.85846 0.0600586 7.26746 0.0600586C8.67647 0.0600586 9.81275 1.13796 9.81275 2.46049Z" fill="#FE0B07" stroke="#FF7977"/>
<path d="M20.1566 12.8203H15.9059L12.4778 15.4103L11.3809 19.5542L13.5747 22.7916L17.8255 23.957L22.2134 22.7916L24.1331 19.5542L23.4475 15.6692L20.1566 12.8203Z" fill="#090A05"/>
<path d="M17.8258 9.06494L15.769 12.6908H20.4312L17.8258 9.06494Z" fill="#FC0609"/>
<path d="M24.4073 11.1367L23.4476 15.6691L20.0195 12.6906L24.4073 11.1367Z" fill="#E16331"/>
<path d="M28.2469 17.0936L24.1333 19.554L23.4478 15.5396L28.2469 17.0936Z" fill="white"/>
<path d="M12.6153 15.4102L11.244 19.5541L7.95312 16.4461L12.6153 15.4102Z" fill="url(#paint0_linear_66_1526)"/>
<path d="M15.906 12.8202L12.6151 15.4102L11.5181 11.0073L15.906 12.8202Z" fill="white"/>
<path d="M24.1332 19.5542L22.3506 22.921H27.0127L24.1332 19.5542Z" fill="#FBFE02"/>
<path d="M22.2137 22.7915L17.9629 24.0864L21.8023 27.4534L22.2137 22.7915Z" fill="white"/>
<path d="M17.8258 24.0864L13.438 22.7915L14.5349 27.4534L17.8258 24.0864Z" fill="#030000" stroke="white"/>
<path d="M13.7121 22.7915L11.2439 19.6836L9.32422 23.18L13.7121 22.7915Z" fill="url(#paint1_linear_66_1526)"/>
</g>
</g>
<defs>
<linearGradient id="paint0_linear_66_1526" x1="6.99328" y1="22.5325" x2="10.3988" y2="23.398" gradientUnits="userSpaceOnUse">
<stop stop-color="#E3F079"/>
<stop offset="0.251788" stop-color="#10F969"/>
<stop offset="0.496585" stop-color="#0049FE"/>
<stop offset="0.751799" stop-color="#BA202A"/>
<stop offset="1" stop-color="#FF3CB0"/>
</linearGradient>
<linearGradient id="paint1_linear_66_1526" x1="10.8325" y1="27.0649" x2="15.6822" y2="23.0399" gradientUnits="userSpaceOnUse">
<stop stop-color="#E4317C"/>
<stop offset="0.27783" stop-color="#FC0609"/>
<stop offset="0.4897" stop-color="#1D69FB"/>
<stop offset="0.793467" stop-color="#5DEC5C"/>
<stop offset="1" stop-color="#F7F73F"/>
</linearGradient>
<clipPath id="clip0_66_1526">
<rect width="36" height="36" fill="white"/>
</clipPath>
</defs>
</svg>
