<svg width="36" height="36" viewBox="0 0 36 36" fill="none" xmlns="http://www.w3.org/2000/svg">
<g clip-path="url(#clip0_66_1430)">
<mask id="mask0_66_1430" style="mask-type:luminance" maskUnits="userSpaceOnUse" x="0" y="0" width="36" height="36">
<path d="M36 0H0V36H36V0Z" fill="white"/>
</mask>
<g mask="url(#mask0_66_1430)">
<path d="M9.72772 0V2.21444H14.0776V4.3498H3.95436V14.3148H2.05626V9.8859H0V24.7543H2.05626V20.4835H3.95436V30.6067H14.0776V32.3466H9.72772V34.9565H24.4379V32.3466H19.8509V30.6067H30.1322V20.4835H32.1094V24.7543H34.2448V10.3604H32.1094V14.3148H30.1322V3.7171H19.8509V2.21444H24.4379V0H9.72772Z" fill="#222222"/>
<path d="M34.6357 17.7392C34.6357 27.5044 26.8945 35.4183 17.3479 35.4183C7.80134 35.4183 0.0600586 27.5044 0.0600586 17.7392C0.0600586 7.97401 7.80134 0.0600586 17.3479 0.0600586C26.8945 0.0600586 34.6357 7.97401 34.6357 17.7392Z" fill="#222222" stroke="#5D5D5D"/>
<path d="M33.5924 17.348C33.5924 26.464 26.2606 33.8532 17.2175 33.8532C8.17446 33.8532 0.842773 26.464 0.842773 17.348C0.842773 8.23196 8.17446 0.842773 17.2175 0.842773C26.2606 0.842773 33.5924 8.23196 33.5924 17.348Z" fill="#222222" stroke="#5D5D5D"/>
<path d="M17.2176 32.8096C25.6848 32.8096 32.5489 25.9455 32.5489 17.4783C32.5489 9.01104 25.6848 2.14697 17.2176 2.14697C8.7503 2.14697 1.88623 9.01104 1.88623 17.4783C1.88623 25.9455 8.7503 32.8096 17.2176 32.8096Z" fill="#222222" stroke="#5D5D5D"/>
<path d="M31.5053 17.6085C31.5053 25.4269 25.1089 31.7659 17.2175 31.7659C9.32605 31.7659 2.92969 25.4269 2.92969 17.6085C2.92969 9.79016 9.32605 3.45117 17.2175 3.45117C25.1089 3.45117 31.5053 9.79016 31.5053 17.6085Z" fill="#222222" stroke="#5D5D5D"/>
<path d="M17.2174 30.4617C24.388 30.4617 30.2009 24.6487 30.2009 17.4781C30.2009 10.3075 24.388 4.49463 17.2174 4.49463C10.0468 4.49463 4.23389 10.3075 4.23389 17.4781C4.23389 24.6487 10.0468 30.4617 17.2174 30.4617Z" fill="#222222" stroke="#5D5D5D"/>
<path d="M17.2173 29.4181C23.8116 29.4181 29.1573 24.0724 29.1573 17.4781C29.1573 10.8838 23.8116 5.53809 17.2173 5.53809C10.6231 5.53809 5.27734 10.8838 5.27734 17.4781C5.27734 24.0724 10.6231 29.4181 17.2173 29.4181Z" fill="#222222" stroke="#5D5D5D"/>
<path d="M24.3915 2.21719V1.43457L30.1306 3.78241H19.8262V2.21719H24.3915Z" fill="white"/>
<path d="M30.1304 14.3477V5.73905C33.0602 5.49301 33.026 7.75593 33.913 10.4347H32.0868V14.3477H30.1304Z" fill="white"/>
<path d="M34.1738 22.0437V13.6958L35.9999 15.9133L34.1738 22.0437Z" fill="white"/>
<path d="M32.0868 20.478H30.1304V29.7389L33.2608 28.8258V24.7824H32.0868V20.478Z" fill="white"/>
<path d="M19.8262 30.522L29.2175 30.6524L27.7828 33.3915L24.3915 34.1742V32.348H19.8262V30.522Z" fill="white"/>
<path d="M21.7338 34.9565H12.6523V35.6087C15.5653 35.7392 21.4175 36.0001 21.5219 36.0001C21.6262 36.0001 21.7067 35.3044 21.7338 34.9565Z" fill="white"/>
<path d="M9.65213 34.1742L5.08691 30.6524L14.0869 30.522V32.348H9.78256L9.65213 34.1742Z" fill="white"/>
<path d="M2.08706 24.7824V20.478H3.91315L4.04358 26.6085L3.91315 29.6085L1.30446 26.9998L0.782715 24.7824H2.08706Z" fill="white"/>
<path d="M14.0867 4.43499L5.47803 4.30455L9.78237 1.56543V2.21759H14.0867V4.43499Z" fill="white"/>
<path d="M11.7108 11.3664C8.51741 10.3354 11.8953 7.89315 11.2368 6.89261C11.198 6.85507 11.1607 6.81384 11.1248 6.76855C11.1706 6.80692 11.2077 6.84835 11.2368 6.89261C12.4078 8.02613 14.8558 5.77501 15.2492 9.45612C13.6911 9.70426 12.8988 10.0733 11.7108 11.3664Z" fill="url(#paint0_radial_66_1430)"/>
<path d="M11.2368 6.89261C11.8953 7.89315 8.51741 10.3354 11.7108 11.3664C12.8988 10.0733 13.6911 9.70426 15.2492 9.45612C14.8558 5.77501 12.4078 8.02613 11.2368 6.89261ZM11.2368 6.89261C11.198 6.85507 11.1607 6.81384 11.1248 6.76855C11.1706 6.80692 11.2077 6.84835 11.2368 6.89261Z" stroke="#259259"/>
<path d="M24.8186 15.4473C28.4162 14.1396 27.7473 18.2619 29.1887 18.603C29.2546 18.6066 29.3226 18.614 29.393 18.6254C29.3204 18.6258 29.2526 18.6182 29.1887 18.603C27.1988 18.497 27.1412 21.8574 23.5425 19.263C24.631 18.0425 24.9687 17.2337 24.8186 15.4473Z" fill="url(#paint1_radial_66_1430)"/>
<path d="M29.1887 18.603C27.7473 18.2619 28.4162 14.1396 24.8186 15.4473C24.9687 17.2337 24.631 18.0425 23.5425 19.263C27.1412 21.8574 27.1988 18.497 29.1887 18.603ZM29.1887 18.603C29.2546 18.6066 29.3226 18.614 29.393 18.6254C29.3204 18.6258 29.2526 18.6182 29.1887 18.603Z" stroke="#259259"/>
<path d="M22.9413 23.2285C26.1109 25.3748 22.3801 27.2515 22.9495 28.619C22.9853 28.6745 23.0192 28.7339 23.0513 28.7975C23.0083 28.739 22.9747 28.6795 22.9495 28.619C21.8679 26.9452 19.1129 28.8701 19.1025 24.4337C20.7295 24.5992 21.5826 24.3982 22.9413 23.2285Z" fill="url(#paint2_radial_66_1430)"/>
<path d="M22.9495 28.619C22.3801 27.2515 26.1109 25.3748 22.9413 23.2285C21.5826 24.3982 20.7295 24.5992 19.1025 24.4337C19.1129 28.8701 21.8679 26.9452 22.9495 28.619ZM22.9495 28.619C22.9853 28.6745 23.0192 28.7339 23.0513 28.7975C23.0083 28.739 22.9747 28.6795 22.9495 28.619Z" stroke="#259259"/>
<path d="M14.5894 25.5887C14.2359 29.4003 10.7939 27.0353 9.86988 28.1932C9.83856 28.2513 9.80292 28.3096 9.76253 28.3684C9.79306 28.3025 9.82901 28.2444 9.86988 28.1932C10.8155 26.439 7.80124 24.9522 11.6838 22.8057C12.3226 24.3109 12.9099 24.9617 14.5894 25.5887Z" fill="url(#paint3_radial_66_1430)"/>
<path d="M9.86988 28.1932C10.7939 27.0353 14.2359 29.4003 14.5894 25.5887C12.9099 24.9617 12.3226 24.3109 11.6838 22.8057C7.80124 24.9522 10.8155 26.439 9.86988 28.1932ZM9.86988 28.1932C9.83856 28.2513 9.80292 28.3096 9.76253 28.3684C9.79306 28.3025 9.82901 28.2444 9.86988 28.1932Z" stroke="#259259"/>
<path d="M9.98728 19.1472C6.88053 21.3836 6.40374 17.2346 4.92379 17.2981C4.85942 17.3126 4.79198 17.3242 4.72119 17.3322C4.7909 17.312 4.85832 17.301 4.92379 17.2981C6.86772 16.8594 6.00962 13.6098 10.1781 15.1283C9.46232 16.5986 9.3572 17.4689 9.98728 19.1472Z" fill="url(#paint4_radial_66_1430)"/>
<path d="M4.92379 17.2981C6.40374 17.2346 6.88053 21.3836 9.98728 19.1472C9.3572 17.4689 9.46232 16.5986 10.1781 15.1283C6.00962 13.6098 6.86772 16.8594 4.92379 17.2981ZM4.92379 17.2981C4.85942 17.3126 4.79198 17.3242 4.72119 17.3322C4.7909 17.312 4.85832 17.301 4.92379 17.2981Z" stroke="#259259"/>
<path d="M19.3979 9.50691C19.6469 5.88327 23.0318 8.32362 23.8967 7.26574C23.9257 7.21188 23.9587 7.15797 23.9963 7.104C23.9684 7.16531 23.935 7.21894 23.8967 7.26574C23.0254 8.89236 25.9753 10.4712 22.2745 12.3186C21.6202 10.8467 21.0368 10.1941 19.3979 9.50691Z" fill="url(#paint5_radial_66_1430)"/>
<path d="M23.8967 7.26574C23.0318 8.32362 19.6469 5.88327 19.3979 9.50691C21.0368 10.1941 21.6202 10.8467 22.2745 12.3186C25.9753 10.4712 23.0254 8.89236 23.8967 7.26574ZM23.8967 7.26574C23.9257 7.21188 23.9587 7.15797 23.9963 7.104C23.9684 7.16531 23.935 7.21894 23.8967 7.26574Z" stroke="#259259"/>
<path d="M14.3718 11.7321C10.8324 8.06839 17.1022 7.21271 16.9355 5.40197C16.9104 5.32399 16.8899 5.24204 16.8742 5.15576C16.9082 5.23992 16.9282 5.32188 16.9355 5.40197C17.6934 7.75717 22.5812 6.49263 20.4762 11.7036C18.2121 10.9219 16.8874 10.8498 14.3718 11.7321Z" fill="url(#paint6_radial_66_1430)"/>
<path d="M16.9355 5.40197C17.1022 7.21271 10.8324 8.06839 14.3718 11.7321C16.8874 10.8498 18.2121 10.9219 20.4762 11.7036C22.5812 6.49263 17.6934 7.75717 16.9355 5.40197ZM16.9355 5.40197C16.9104 5.32399 16.8899 5.24204 16.8742 5.15576C16.9082 5.23992 16.9282 5.32188 16.9355 5.40197Z" stroke="#259259"/>
<path d="M20.4326 12.3938C21.8227 7.49302 25.712 12.4846 27.194 11.4309C27.2489 11.3701 27.3093 11.3111 27.3762 11.2543C27.3204 11.3259 27.2595 11.3843 27.194 11.4309C25.5383 13.2694 29.0868 16.8605 23.5236 17.6579C23.0623 15.3076 22.4592 14.1259 20.4326 12.3938Z" fill="url(#paint7_radial_66_1430)"/>
<path d="M27.194 11.4309C25.712 12.4846 21.8227 7.49302 20.4326 12.3938C22.4592 14.1259 23.0623 15.3076 23.5236 17.6579C29.0868 16.8605 25.5383 13.2694 27.194 11.4309ZM27.194 11.4309C27.2489 11.3701 27.3093 11.3111 27.3762 11.2543C27.3204 11.3259 27.2595 11.3843 27.194 11.4309Z" stroke="#259259"/>
<path d="M23.2282 18.0847C28.1738 16.8627 25.7663 22.7147 27.4161 23.4796C27.4961 23.4971 27.5772 23.5204 27.6597 23.5503C27.5699 23.5373 27.489 23.5135 27.4161 23.4796C24.9987 22.9528 23.6386 27.8149 20.1885 23.3785C22.0012 21.8127 22.7285 20.7032 23.2282 18.0847Z" fill="url(#paint8_radial_66_1430)"/>
<path d="M27.4161 23.4796C25.7663 22.7147 28.1738 16.8627 23.2282 18.0847C22.7285 20.7032 22.0012 21.8127 20.1885 23.3785C23.6386 27.8149 24.9987 22.9528 27.4161 23.4796ZM27.4161 23.4796C27.4961 23.4971 27.5772 23.5204 27.6597 23.5503C27.5699 23.5373 27.489 23.5135 27.4161 23.4796Z" stroke="#259259"/>
<path d="M19.9478 23.2831C23.1641 27.2335 16.8444 27.5551 16.857 29.3733C16.8754 29.4532 16.889 29.5366 16.8972 29.6239C16.8706 29.5371 16.8576 29.4538 16.857 29.3733C16.3014 26.9624 11.3241 27.8084 13.8628 22.7944C16.0526 23.7651 17.3664 23.9492 19.9478 23.2831Z" fill="url(#paint9_radial_66_1430)"/>
<path d="M16.857 29.3733C16.8444 27.5551 23.1641 27.2335 19.9478 23.2831C17.3664 23.9492 16.0526 23.7651 13.8628 22.7944C11.3241 27.8084 16.3014 26.9624 16.857 29.3733ZM16.857 29.3733C16.8754 29.4532 16.889 29.5366 16.8972 29.6239C16.8706 29.5371 16.8576 29.4538 16.857 29.3733Z" stroke="#259259"/>
<path d="M13.7449 22.8867C12.083 27.702 8.47885 22.5009 6.94024 23.47C6.8821 23.5277 6.81836 23.5832 6.74854 23.6362C6.80816 23.5678 6.87217 23.5128 6.94024 23.47C8.69626 21.7271 5.35397 17.9432 10.953 17.458C11.2823 19.8305 11.8184 21.0441 13.7449 22.8867Z" fill="url(#paint10_radial_66_1430)"/>
<path d="M6.94024 23.47C8.47885 22.5009 12.083 27.702 13.7449 22.8867C11.8184 21.0441 11.2823 19.8305 10.953 17.458C5.35397 17.9432 8.69626 21.7271 6.94024 23.47ZM6.94024 23.47C6.8821 23.5277 6.81836 23.5832 6.74854 23.6362C6.80816 23.5678 6.87217 23.5128 6.94024 23.47Z" stroke="#259259"/>
<path d="M13.7449 22.8867C12.083 27.702 8.47885 22.5009 6.94024 23.47C6.8821 23.5277 6.81836 23.5832 6.74854 23.6362C6.80816 23.5678 6.87217 23.5128 6.94024 23.47C8.69626 21.7271 5.35397 17.9432 10.953 17.458C11.2823 19.8305 11.8184 21.0441 13.7449 22.8867Z" fill="url(#paint11_radial_66_1430)"/>
<path d="M6.94024 23.47C8.47885 22.5009 12.083 27.702 13.7449 22.8867C11.8184 21.0441 11.2823 19.8305 10.953 17.458C5.35397 17.9432 8.69626 21.7271 6.94024 23.47ZM6.94024 23.47C6.8821 23.5277 6.81836 23.5832 6.74854 23.6362C6.80816 23.5678 6.87217 23.5128 6.94024 23.47Z" stroke="#259259"/>
<path d="M11.0474 17.0636C6.06913 18.1441 8.64225 12.363 7.01503 11.5514C6.93552 11.5317 6.85503 11.5061 6.77344 11.4739C6.86286 11.4894 6.94306 11.5155 7.01503 11.5514C9.41643 12.147 10.9144 7.32565 14.2367 11.8585C12.3802 13.372 11.6216 14.4604 11.0474 17.0636Z" fill="url(#paint12_radial_66_1430)"/>
<path d="M7.01503 11.5514C8.64225 12.363 6.06913 18.1441 11.0474 17.0636C11.6216 14.4604 12.3802 13.372 14.2367 11.8585C10.9144 7.32565 9.41643 12.147 7.01503 11.5514ZM7.01503 11.5514C6.93552 11.5317 6.85503 11.5061 6.77344 11.4739C6.86286 11.4894 6.94306 11.5155 7.01503 11.5514Z" stroke="#259259"/>
<path d="M17.5221 23.9716C21.064 23.9716 23.9352 21.0471 23.9352 17.4397C23.9352 13.8322 21.064 10.9077 17.5221 10.9077C13.9802 10.9077 11.1089 13.8322 11.1089 17.4397C11.1089 21.0471 13.9802 23.9716 17.5221 23.9716Z" fill="url(#paint13_radial_66_1430)"/>
<path d="M22.8663 14.4707H12.2964L17.6407 23.7342L22.8663 14.4707Z" stroke="white"/>
<path d="M17.522 11.3828L12.2964 20.5275H22.8663L17.522 11.3828Z" stroke="white"/>
<path d="M19.3036 14.4707H15.8595L14.0781 17.5585L15.8595 20.5276H19.4224L21.085 17.5585L19.3036 14.4707Z" stroke="white"/>
<path d="M17.5025 18.9147L17.5024 18.9145L16.363 17.7051C16.1422 17.4708 16.11 17.1522 16.2126 16.8904C16.3152 16.6287 16.5495 16.4307 16.8575 16.4307C17.1572 16.4307 17.3158 16.6069 17.416 16.7183C17.4424 16.7476 17.4647 16.7724 17.4845 16.7883L17.5221 16.8185L17.5598 16.7883C17.5793 16.7724 17.6015 16.7478 17.6278 16.7187C17.7281 16.6075 17.8875 16.4307 18.1868 16.4307C18.4958 16.4307 18.7295 16.6291 18.8316 16.8911C18.9338 17.1533 18.901 17.4719 18.6814 17.7051L17.5419 18.9144L17.5418 18.9147C17.5361 18.9207 17.529 18.9235 17.5221 18.9235C17.5152 18.9235 17.5082 18.9207 17.5025 18.9147Z" fill="#F10102" stroke="white"/>
<path d="M3.91283 14.3477V6.13037L1.43457 9.91299H1.95632V14.3477H3.91283Z" fill="white"/>
</g>
</g>
<defs>
<radialGradient id="paint0_radial_66_1430" cx="0" cy="0" r="1" gradientUnits="userSpaceOnUse" gradientTransform="translate(12.9908 9.35791) rotate(69.7053) scale(1.27044 1.45796)">
<stop stop-color="#D1E9D9"/>
<stop offset="1" stop-color="#7CCB92"/>
</radialGradient>
<radialGradient id="paint1_radial_66_1430" cx="0" cy="0" r="1" gradientUnits="userSpaceOnUse" gradientTransform="translate(25.5267 17.849) rotate(-156.091) scale(1.5621 1.46681)">
<stop stop-color="#D1E9D9"/>
<stop offset="1" stop-color="#7CCB92"/>
</radialGradient>
<radialGradient id="paint2_radial_66_1430" cx="0" cy="0" r="1" gradientUnits="userSpaceOnUse" gradientTransform="translate(21.4117 25.211) rotate(-102.012) scale(1.5621 1.46681)">
<stop stop-color="#D1E9D9"/>
<stop offset="1" stop-color="#7CCB92"/>
</radialGradient>
<radialGradient id="paint3_radial_66_1430" cx="0" cy="0" r="1" gradientUnits="userSpaceOnUse" gradientTransform="translate(12.1153 25.2036) rotate(-40.8176) scale(1.5621 1.46681)">
<stop stop-color="#D1E9D9"/>
<stop offset="1" stop-color="#7CCB92"/>
</radialGradient>
<radialGradient id="paint4_radial_66_1430" cx="0" cy="0" r="1" gradientUnits="userSpaceOnUse" gradientTransform="translate(8.65293 17.0285) rotate(8.13596) scale(1.5621 1.46681)">
<stop stop-color="#D1E9D9"/>
<stop offset="1" stop-color="#7CCB92"/>
</radialGradient>
<radialGradient id="paint5_radial_66_1430" cx="0" cy="0" r="1" gradientUnits="userSpaceOnUse" gradientTransform="translate(21.799 10.0046) rotate(140.741) scale(1.44379 1.46387)">
<stop stop-color="#D1E9D9"/>
<stop offset="1" stop-color="#7CCB92"/>
</radialGradient>
<radialGradient id="paint6_radial_66_1430" cx="0" cy="0" r="1" gradientUnits="userSpaceOnUse" gradientTransform="translate(17.522 9.95744) rotate(97.801) scale(1.92863 2.21332)">
<stop stop-color="#D1E9D9"/>
<stop offset="1" stop-color="#7CCB92"/>
</radialGradient>
<radialGradient id="paint7_radial_66_1430" cx="0" cy="0" r="1" gradientUnits="userSpaceOnUse" gradientTransform="translate(23.5495 14.2262) rotate(157.648) scale(1.92863 2.21332)">
<stop stop-color="#D1E9D9"/>
<stop offset="1" stop-color="#7CCB92"/>
</radialGradient>
<radialGradient id="paint8_radial_66_1430" cx="0" cy="0" r="1" gradientUnits="userSpaceOnUse" gradientTransform="translate(23.1818 21.6999) rotate(-142.067) scale(1.92863 2.21332)">
<stop stop-color="#D1E9D9"/>
<stop offset="1" stop-color="#7CCB92"/>
</radialGradient>
<radialGradient id="paint9_radial_66_1430" cx="0" cy="0" r="1" gradientUnits="userSpaceOnUse" gradientTransform="translate(16.6587 24.7846) rotate(-77.3404) scale(1.92863 2.21332)">
<stop stop-color="#D1E9D9"/>
<stop offset="1" stop-color="#7CCB92"/>
</radialGradient>
<radialGradient id="paint10_radial_66_1430" cx="0" cy="0" r="1" gradientUnits="userSpaceOnUse" gradientTransform="translate(10.7353 20.8829) rotate(-19.1474) scale(1.92863 2.21332)">
<stop stop-color="#D1E9D9"/>
<stop offset="1" stop-color="#7CCB92"/>
</radialGradient>
<radialGradient id="paint11_radial_66_1430" cx="0" cy="0" r="1" gradientUnits="userSpaceOnUse" gradientTransform="translate(10.7353 20.8829) rotate(-19.1474) scale(1.92863 2.21332)">
<stop stop-color="#D1E9D9"/>
<stop offset="1" stop-color="#7CCB92"/>
</radialGradient>
<radialGradient id="paint12_radial_66_1430" cx="0" cy="0" r="1" gradientUnits="userSpaceOnUse" gradientTransform="translate(11.1968 13.451) rotate(39.5659) scale(1.92863 2.21332)">
<stop stop-color="#D1E9D9"/>
<stop offset="1" stop-color="#7CCB92"/>
</radialGradient>
<radialGradient id="paint13_radial_66_1430" cx="0" cy="0" r="1" gradientUnits="userSpaceOnUse" gradientTransform="translate(17.5221 17.4397) rotate(90) scale(6.53194 6.41317)">
<stop stop-color="#D9E1D4"/>
<stop offset="0.458355" stop-color="#3FB279"/>
<stop offset="0.822947" stop-color="#007A47"/>
<stop offset="1" stop-color="#023F44"/>
</radialGradient>
<clipPath id="clip0_66_1430">
<rect width="36" height="36" fill="white"/>
</clipPath>
</defs>
</svg>
