<svg width="71" height="71" viewBox="0 0 71 71" fill="none" xmlns="http://www.w3.org/2000/svg">
<g clip-path="url(#clip0_66_1430)">
<mask id="mask0_66_1430" style="mask-type:luminance" maskUnits="userSpaceOnUse" x="0" y="0" width="71" height="71">
<path d="M71 0H0V71H71V0Z" fill="white"/>
</mask>
<g mask="url(#mask0_66_1430)">
<path d="M19.1852 0V4.36738H27.7641V8.57876H7.79888V28.232H4.0554V19.4972H0V48.821H4.0554V40.3981H7.79888V60.3632H27.7641V63.7947H19.1852V68.9419H48.1969V63.7947H39.1503V60.3632H59.4275V40.3981H63.3268V48.821H67.5383V20.433H63.3268V28.232H59.4275V7.33094H39.1503V4.36738H48.1969V0H19.1852Z" fill="#222222"/>
<path d="M68.3089 34.9853C68.3089 54.2445 53.0416 69.8525 34.2135 69.8525C15.3857 69.8525 0.118164 54.2445 0.118164 34.9853C0.118164 15.7262 15.3857 0.118164 34.2135 0.118164C53.0416 0.118164 68.3089 15.7262 68.3089 34.9853Z" fill="#222222" stroke="#5D5D5D"/>
<path d="M66.2511 34.2135C66.2511 52.1924 51.7912 66.7656 33.9563 66.7656C16.1213 66.7656 1.66162 52.1924 1.66162 34.2135C1.66162 16.2347 16.1213 1.66162 33.9563 1.66162C51.7912 1.66162 66.2511 16.2347 66.2511 34.2135Z" fill="#222222" stroke="#5D5D5D"/>
<path d="M33.9565 64.7079C50.6558 64.7079 64.1933 51.1705 64.1933 34.4711C64.1933 17.7718 50.6558 4.23438 33.9565 4.23438C17.2572 4.23438 3.71973 17.7718 3.71973 34.4711C3.71973 51.1705 17.2572 64.7079 33.9565 64.7079Z" fill="#222222" stroke="#5D5D5D"/>
<path d="M62.1353 34.7281C62.1353 50.1477 49.5202 62.6496 33.9565 62.6496C18.3929 62.6496 5.77783 50.1477 5.77783 34.7281C5.77783 19.3085 18.3929 6.80664 33.9565 6.80664C49.5202 6.80664 62.1353 19.3085 62.1353 34.7281Z" fill="#222222" stroke="#5D5D5D"/>
<path d="M33.9565 60.0775C48.0985 60.0775 59.5629 48.6131 59.5629 34.4711C59.5629 20.3291 48.0985 8.86475 33.9565 8.86475C19.8145 8.86475 8.3501 20.3291 8.3501 34.4711C8.3501 48.6131 19.8145 60.0775 33.9565 60.0775Z" fill="#222222" stroke="#5D5D5D"/>
<path d="M33.9565 58.0195C46.9619 58.0195 57.5049 47.4766 57.5049 34.4712C57.5049 21.4658 46.9619 10.9229 33.9565 10.9229C20.9512 10.9229 10.4082 21.4658 10.4082 34.4712C10.4082 47.4766 20.9512 58.0195 33.9565 58.0195Z" fill="#222222" stroke="#5D5D5D"/>
<path d="M48.1053 4.37308V2.82959L59.4241 7.46004H39.1016V4.37308H48.1053Z" fill="white"/>
<path d="M59.4238 28.2971V11.3189C65.202 10.8336 65.1346 15.2966 66.884 20.5798H63.2824V28.2971H59.4238Z" fill="white"/>
<path d="M67.3984 43.4747V27.0107L70.9998 31.3841L67.3984 43.4747Z" fill="white"/>
<path d="M63.2824 40.3877H59.4238V58.6522L65.5978 56.8514V48.8769H63.2824V40.3877Z" fill="white"/>
<path d="M39.1016 60.1958L57.6233 60.4531L54.7937 65.8552L48.1053 67.3987V63.7972H39.1016V60.1958Z" fill="white"/>
<path d="M42.8638 68.9419H24.9531V70.2282C30.6982 70.4854 42.24 71 42.4459 71C42.6515 71 42.8103 69.628 42.8638 68.9419Z" fill="white"/>
<path d="M19.0363 67.3987L10.0327 60.4531L27.7826 60.1958V63.7972H19.2936L19.0363 67.3987Z" fill="white"/>
<path d="M4.11592 48.8769V40.3877H7.71737L7.97461 52.4783L7.71737 58.395L2.57245 53.2501L1.54346 48.8769H4.11592Z" fill="white"/>
<path d="M27.7824 8.74632L10.8042 8.48907L19.2933 3.08691V4.37313H27.7824V8.74632Z" fill="white"/>
<path d="M23.0966 22.4177C16.7986 20.3843 23.4607 15.5676 22.1619 13.5943C22.0854 13.5202 22.0117 13.4389 21.941 13.3496C22.0314 13.4253 22.1044 13.507 22.1619 13.5943C24.4713 15.8298 29.2993 11.3901 30.0751 18.6501C27.0023 19.1395 25.4398 19.8674 23.0966 22.4177Z" fill="url(#paint0_radial_66_1430)"/>
<path d="M22.1619 13.5943C23.4607 15.5676 16.7986 20.3843 23.0966 22.4177C25.4398 19.8674 27.0023 19.1395 30.0751 18.6501C29.2993 11.3901 24.4713 15.8298 22.1619 13.5943ZM22.1619 13.5943C22.0854 13.5202 22.0117 13.4389 21.941 13.3496C22.0314 13.4253 22.1044 13.507 22.1619 13.5943Z" stroke="#259259"/>
<path d="M48.9479 30.4656C56.0431 27.8867 54.724 36.0166 57.5668 36.6895C57.6967 36.6966 57.8309 36.711 57.9696 36.7335C57.8264 36.7344 57.6927 36.7193 57.5668 36.6895C53.6421 36.4803 53.5285 43.1079 46.4312 37.9911C48.578 35.584 49.2439 33.9889 48.9479 30.4656Z" fill="url(#paint1_radial_66_1430)"/>
<path d="M57.5668 36.6895C54.724 36.0166 56.0431 27.8867 48.9479 30.4656C49.2439 33.9889 48.578 35.584 46.4312 37.9911C53.5285 43.1079 53.6421 36.4803 57.5668 36.6895ZM57.5668 36.6895C57.6967 36.6966 57.8309 36.711 57.9696 36.7335C57.8264 36.7344 57.6927 36.7193 57.5668 36.6895Z" stroke="#259259"/>
<path d="M45.2453 45.812C51.4964 50.045 44.1384 53.7463 45.2614 56.4433C45.3319 56.5527 45.3989 56.6698 45.4621 56.7952C45.3773 56.68 45.3111 56.5626 45.2614 56.4433C43.1283 53.1421 37.6947 56.9384 37.6743 48.1889C40.883 48.5152 42.5655 48.1188 45.2453 45.812Z" fill="url(#paint2_radial_66_1430)"/>
<path d="M45.2614 56.4433C44.1384 53.7463 51.4964 50.045 45.2453 45.812C42.5655 48.1188 40.883 48.5152 37.6743 48.1889C37.6947 56.9384 43.1283 53.1421 45.2614 56.4433ZM45.2614 56.4433C45.3319 56.5527 45.3989 56.6698 45.4621 56.7952C45.3773 56.68 45.3111 56.5626 45.2614 56.4433Z" stroke="#259259"/>
<path d="M28.7737 50.4668C28.0765 57.984 21.288 53.3198 19.4657 55.6034C19.4039 55.718 19.3337 55.833 19.254 55.9489C19.3142 55.819 19.3851 55.7045 19.4657 55.6034C21.3307 52.1438 15.3859 49.2115 23.0431 44.978C24.3031 47.9468 25.4614 49.2302 28.7737 50.4668Z" fill="url(#paint3_radial_66_1430)"/>
<path d="M19.4657 55.6034C21.288 53.3198 28.0765 57.984 28.7737 50.4668C25.4614 49.2302 24.3031 47.9468 23.0431 44.978C15.3859 49.2115 21.3307 52.1438 19.4657 55.6034ZM19.4657 55.6034C19.4039 55.718 19.3337 55.833 19.254 55.9489C19.3142 55.819 19.3851 55.7045 19.4657 55.6034Z" stroke="#259259"/>
<path d="M19.6974 37.7619C13.5702 42.1727 12.6299 33.9899 9.71109 34.1151C9.58414 34.1438 9.45113 34.1665 9.31152 34.1824C9.449 34.1426 9.58196 34.1208 9.71109 34.1151C13.5449 33.2499 11.8526 26.841 20.0737 29.8357C18.6621 32.7356 18.4548 34.4519 19.6974 37.7619Z" fill="url(#paint4_radial_66_1430)"/>
<path d="M9.71109 34.1151C12.6299 33.9899 13.5702 42.1727 19.6974 37.7619C18.4548 34.4519 18.6621 32.7356 20.0737 29.8357C11.8526 26.841 13.5449 33.2499 9.71109 34.1151ZM9.71109 34.1151C9.58414 34.1438 9.45113 34.1665 9.31152 34.1824C9.449 34.1426 9.58196 34.1208 9.71109 34.1151Z" stroke="#259259"/>
<path d="M38.2573 18.7493C38.7484 11.6027 45.4241 16.4156 47.13 14.3292C47.187 14.223 47.2521 14.1167 47.3264 14.0103C47.2712 14.1312 47.2055 14.2369 47.13 14.3292C45.4115 17.5373 51.2293 20.6511 43.9305 24.2947C42.6402 21.3917 41.4895 20.1047 38.2573 18.7493Z" fill="url(#paint5_radial_66_1430)"/>
<path d="M47.13 14.3292C45.4241 16.4156 38.7484 11.6027 38.2573 18.7493C41.4895 20.1047 42.6402 21.3917 43.9305 24.2947C51.2293 20.6511 45.4115 17.5373 47.13 14.3292ZM47.13 14.3292C47.187 14.223 47.2521 14.1167 47.3264 14.0103C47.2712 14.1312 47.2055 14.2369 47.13 14.3292Z" stroke="#259259"/>
<path d="M28.3444 23.1385C21.3638 15.9128 33.7293 14.2252 33.4005 10.654C33.3511 10.5002 33.3106 10.3386 33.2796 10.1685C33.3466 10.3344 33.3861 10.4961 33.4005 10.654C34.8953 15.299 44.535 12.8051 40.3836 23.0823C35.9182 21.5406 33.3056 21.3985 28.3444 23.1385Z" fill="url(#paint6_radial_66_1430)"/>
<path d="M33.4005 10.654C33.7293 14.2252 21.3638 15.9128 28.3444 23.1385C33.3056 21.3985 35.9182 21.5406 40.3836 23.0823C44.535 12.8051 34.8953 15.299 33.4005 10.654ZM33.4005 10.654C33.3511 10.5002 33.3106 10.3386 33.2796 10.1685C33.3466 10.3344 33.3861 10.4961 33.4005 10.654Z" stroke="#259259"/>
<path d="M40.2974 24.4435C43.0389 14.778 50.7095 24.6224 53.6323 22.5445C53.7405 22.4244 53.8598 22.3082 53.9916 22.196C53.8816 22.3373 53.7616 22.4526 53.6323 22.5445C50.3668 26.1702 57.3653 33.2527 46.3934 34.8254C45.4837 30.19 44.2942 27.8596 40.2974 24.4435Z" fill="url(#paint7_radial_66_1430)"/>
<path d="M53.6323 22.5445C50.7095 24.6224 43.0389 14.778 40.2974 24.4435C44.2942 27.8596 45.4837 30.19 46.3934 34.8254C57.3653 33.2527 50.3668 26.1702 53.6323 22.5445ZM53.6323 22.5445C53.7405 22.4244 53.8598 22.3082 53.9916 22.196C53.8816 22.3373 53.7616 22.4526 53.6323 22.5445Z" stroke="#259259"/>
<path d="M45.8114 35.6671C55.5652 33.2571 50.8171 44.7987 54.0708 46.3072C54.2287 46.3417 54.3887 46.3876 54.5513 46.4466C54.3742 46.421 54.2147 46.3739 54.0708 46.3072C49.3032 45.2682 46.6208 54.8572 39.8164 46.1077C43.3915 43.0196 44.8259 40.8314 45.8114 35.6671Z" fill="url(#paint8_radial_66_1430)"/>
<path d="M54.0708 46.3072C50.8171 44.7987 55.5652 33.2571 45.8114 35.6671C44.8259 40.8314 43.3915 43.0196 39.8164 46.1077C46.6208 54.8572 49.3032 45.2682 54.0708 46.3072ZM54.0708 46.3072C54.2287 46.3417 54.3887 46.3876 54.5513 46.4466C54.3742 46.421 54.2147 46.3739 54.0708 46.3072Z" stroke="#259259"/>
<path d="M39.3418 45.9188C45.6852 53.7099 33.2214 54.3441 33.2462 57.9301C33.2825 58.0877 33.3092 58.2522 33.3255 58.4243C33.273 58.2531 33.2474 58.0889 33.2462 57.9301C32.1505 53.1752 22.3341 54.8437 27.3409 44.9551C31.6596 46.8695 34.2509 47.2325 39.3418 45.9188Z" fill="url(#paint9_radial_66_1430)"/>
<path d="M33.2462 57.9301C33.2214 54.3441 45.6852 53.7099 39.3418 45.9188C34.2509 47.2325 31.6596 46.8695 27.3409 44.9551C22.3341 54.8437 32.1505 53.1752 33.2462 57.9301ZM33.2462 57.9301C33.2825 58.0877 33.3092 58.2522 33.3255 58.4243C33.273 58.2531 33.2474 58.0889 33.2462 57.9301Z" stroke="#259259"/>
<path d="M27.1085 45.1382C23.8309 54.6352 16.7226 44.3773 13.6881 46.2886C13.5735 46.4025 13.4478 46.5118 13.3101 46.6164C13.4277 46.4815 13.5539 46.3731 13.6881 46.2886C17.1514 42.8513 10.5597 35.3885 21.6022 34.4316C22.2516 39.1108 23.3089 41.5042 27.1085 45.1382Z" fill="url(#paint10_radial_66_1430)"/>
<path d="M13.6881 46.2886C16.7226 44.3773 23.8309 54.6352 27.1085 45.1382C23.3089 41.5042 22.2516 39.1108 21.6022 34.4316C10.5597 35.3885 17.1514 42.8513 13.6881 46.2886ZM13.6881 46.2886C13.5735 46.4025 13.4478 46.5118 13.3101 46.6164C13.4277 46.4815 13.5539 46.3731 13.6881 46.2886Z" stroke="#259259"/>
<path d="M27.1085 45.1382C23.8309 54.6352 16.7226 44.3773 13.6881 46.2886C13.5735 46.4025 13.4478 46.5118 13.3101 46.6164C13.4277 46.4815 13.5539 46.3731 13.6881 46.2886C17.1514 42.8513 10.5597 35.3885 21.6022 34.4316C22.2516 39.1108 23.3089 41.5042 27.1085 45.1382Z" fill="url(#paint11_radial_66_1430)"/>
<path d="M13.6881 46.2886C16.7226 44.3773 23.8309 54.6352 27.1085 45.1382C23.3089 41.5042 22.2516 39.1108 21.6022 34.4316C10.5597 35.3885 17.1514 42.8513 13.6881 46.2886ZM13.6881 46.2886C13.5735 46.4025 13.4478 46.5118 13.3101 46.6164C13.4277 46.4815 13.5539 46.3731 13.6881 46.2886Z" stroke="#259259"/>
<path d="M21.7881 33.6533C11.9698 35.7842 17.0446 24.3826 13.8354 22.782C13.6786 22.7431 13.5198 22.6925 13.3589 22.6291C13.5353 22.6596 13.6934 22.7112 13.8354 22.782C18.5714 23.9566 21.5257 14.4478 28.0781 23.3876C24.4166 26.3725 22.9205 28.519 21.7881 33.6533Z" fill="url(#paint12_radial_66_1430)"/>
<path d="M13.8354 22.782C17.0446 24.3826 11.9698 35.7842 21.7881 33.6533C22.9205 28.519 24.4166 26.3725 28.0781 23.3876C21.5257 14.4478 18.5714 23.9566 13.8354 22.782ZM13.8354 22.782C13.6786 22.7431 13.5198 22.6925 13.3589 22.6291C13.5353 22.6596 13.6934 22.7112 13.8354 22.782Z" stroke="#259259"/>
<path d="M34.5574 47.2771C41.5428 47.2771 47.2056 41.5094 47.2056 34.3946C47.2056 27.2799 41.5428 21.5122 34.5574 21.5122C27.572 21.5122 21.9092 27.2799 21.9092 34.3946C21.9092 41.5094 27.572 47.2771 34.5574 47.2771Z" fill="url(#paint13_radial_66_1430)"/>
<path d="M45.0978 28.5391H24.2515L34.7917 46.8088L45.0978 28.5391Z" stroke="white"/>
<path d="M34.5576 22.4492L24.2515 40.4846H45.0978L34.5576 22.4492Z" stroke="white"/>
<path d="M38.0705 28.5391H31.278L27.7646 34.629L31.278 40.4846H38.3048L41.5839 34.629L38.0705 28.5391Z" stroke="white"/>
<path d="M34.5189 37.3038L34.5187 37.3035L32.2716 34.9182C31.8361 34.4562 31.7727 33.8279 31.975 33.3115C32.1774 32.7953 32.6393 32.4048 33.2469 32.4048C33.8378 32.4048 34.1507 32.7524 34.3483 32.9721C34.4004 33.0298 34.4444 33.0788 34.4834 33.1101L34.5575 33.1697L34.6318 33.1101C34.6704 33.0788 34.7142 33.0303 34.766 32.9728C34.9639 32.7536 35.2782 32.4048 35.8684 32.4048C36.4778 32.4048 36.9389 32.7962 37.1403 33.3129C37.3417 33.83 37.2771 34.4583 36.844 34.9182L34.5966 37.3033L34.5963 37.3038C34.5852 37.3156 34.5712 37.3213 34.5575 37.3213C34.544 37.3213 34.5301 37.3156 34.5189 37.3038Z" fill="#F10102" stroke="white"/>
<path d="M7.71728 28.2968V12.0903L2.82959 19.5505H3.85859V28.2968H7.71728Z" fill="white"/>
</g>
</g>
<defs>
<radialGradient id="paint0_radial_66_1430" cx="0" cy="0" r="1" gradientUnits="userSpaceOnUse" gradientTransform="translate(25.6211 18.4564) rotate(69.7053) scale(2.50559 2.87543)">
<stop stop-color="#D1E9D9"/>
<stop offset="1" stop-color="#7CCB92"/>
</radialGradient>
<radialGradient id="paint1_radial_66_1430" cx="0" cy="0" r="1" gradientUnits="userSpaceOnUse" gradientTransform="translate(50.3444 35.2023) rotate(-156.091) scale(3.08081 2.89287)">
<stop stop-color="#D1E9D9"/>
<stop offset="1" stop-color="#7CCB92"/>
</radialGradient>
<radialGradient id="paint2_radial_66_1430" cx="0" cy="0" r="1" gradientUnits="userSpaceOnUse" gradientTransform="translate(42.2285 49.722) rotate(-102.012) scale(3.08081 2.89287)">
<stop stop-color="#D1E9D9"/>
<stop offset="1" stop-color="#7CCB92"/>
</radialGradient>
<radialGradient id="paint3_radial_66_1430" cx="0" cy="0" r="1" gradientUnits="userSpaceOnUse" gradientTransform="translate(23.8942 49.7073) rotate(-40.8176) scale(3.08081 2.89287)">
<stop stop-color="#D1E9D9"/>
<stop offset="1" stop-color="#7CCB92"/>
</radialGradient>
<radialGradient id="paint4_radial_66_1430" cx="0" cy="0" r="1" gradientUnits="userSpaceOnUse" gradientTransform="translate(17.0658 33.5834) rotate(8.13596) scale(3.08081 2.89287)">
<stop stop-color="#D1E9D9"/>
<stop offset="1" stop-color="#7CCB92"/>
</radialGradient>
<radialGradient id="paint5_radial_66_1430" cx="0" cy="0" r="1" gradientUnits="userSpaceOnUse" gradientTransform="translate(42.9928 19.731) rotate(140.741) scale(2.84748 2.88707)">
<stop stop-color="#D1E9D9"/>
<stop offset="1" stop-color="#7CCB92"/>
</radialGradient>
<radialGradient id="paint6_radial_66_1430" cx="0" cy="0" r="1" gradientUnits="userSpaceOnUse" gradientTransform="translate(34.5571 19.6384) rotate(97.801) scale(3.80368 4.36515)">
<stop stop-color="#D1E9D9"/>
<stop offset="1" stop-color="#7CCB92"/>
</radialGradient>
<radialGradient id="paint7_radial_66_1430" cx="0" cy="0" r="1" gradientUnits="userSpaceOnUse" gradientTransform="translate(46.4445 28.0574) rotate(157.648) scale(3.80368 4.36515)">
<stop stop-color="#D1E9D9"/>
<stop offset="1" stop-color="#7CCB92"/>
</radialGradient>
<radialGradient id="paint8_radial_66_1430" cx="0" cy="0" r="1" gradientUnits="userSpaceOnUse" gradientTransform="translate(45.7198 42.7972) rotate(-142.067) scale(3.80368 4.36515)">
<stop stop-color="#D1E9D9"/>
<stop offset="1" stop-color="#7CCB92"/>
</radialGradient>
<radialGradient id="paint9_radial_66_1430" cx="0" cy="0" r="1" gradientUnits="userSpaceOnUse" gradientTransform="translate(32.855 48.8802) rotate(-77.3404) scale(3.80368 4.36515)">
<stop stop-color="#D1E9D9"/>
<stop offset="1" stop-color="#7CCB92"/>
</radialGradient>
<radialGradient id="paint10_radial_66_1430" cx="0" cy="0" r="1" gradientUnits="userSpaceOnUse" gradientTransform="translate(21.1729 41.1863) rotate(-19.1474) scale(3.80368 4.36515)">
<stop stop-color="#D1E9D9"/>
<stop offset="1" stop-color="#7CCB92"/>
</radialGradient>
<radialGradient id="paint11_radial_66_1430" cx="0" cy="0" r="1" gradientUnits="userSpaceOnUse" gradientTransform="translate(21.1729 41.1863) rotate(-19.1474) scale(3.80368 4.36515)">
<stop stop-color="#D1E9D9"/>
<stop offset="1" stop-color="#7CCB92"/>
</radialGradient>
<radialGradient id="paint12_radial_66_1430" cx="0" cy="0" r="1" gradientUnits="userSpaceOnUse" gradientTransform="translate(22.0828 26.5284) rotate(39.5659) scale(3.80368 4.36515)">
<stop stop-color="#D1E9D9"/>
<stop offset="1" stop-color="#7CCB92"/>
</radialGradient>
<radialGradient id="paint13_radial_66_1430" cx="0" cy="0" r="1" gradientUnits="userSpaceOnUse" gradientTransform="translate(34.5574 34.3946) rotate(90) scale(12.8824 12.6482)">
<stop stop-color="#D9E1D4"/>
<stop offset="0.458355" stop-color="#3FB279"/>
<stop offset="0.822947" stop-color="#007A47"/>
<stop offset="1" stop-color="#023F44"/>
</radialGradient>
<clipPath id="clip0_66_1430">
<rect width="71" height="71" fill="white"/>
</clipPath>
</defs>
</svg>
