<svg width="71" height="71" viewBox="0 0 71 71" fill="none" xmlns="http://www.w3.org/2000/svg">
<g clip-path="url(#clip0_66_1556)">
<mask id="mask0_66_1556" style="mask-type:luminance" maskUnits="userSpaceOnUse" x="0" y="0" width="71" height="71">
<path d="M71 0H0V71H71V0Z" fill="white"/>
</mask>
<g mask="url(#mask0_66_1556)">
<path d="M71 0H0V71H71V0Z" fill="#C88B38"/>
<path d="M21.1448 2.48242V6.69708H29.4818V10.7612H10.0792V29.7271H6.44116V21.2979H2.5V49.5962H6.44116V41.4682H10.0792V60.7352H29.4818V64.0466H21.1448V69.0138H49.3393V64.0466H40.5474V60.7352H60.2534V41.4682H64.0429V49.5962H68.1356V22.201H64.0429V29.7271H60.2534V9.55703H40.5474V6.69708H49.3393V2.48242H21.1448Z" fill="#394C7E" stroke="#DCA551"/>
<path d="M56.8815 35.5001C56.8815 47.3621 47.1976 56.9797 35.2499 56.9797C23.3022 56.9797 13.6182 47.3621 13.6182 35.5001C13.6182 23.638 23.3022 14.0205 35.2499 14.0205C47.1976 14.0205 56.8815 23.638 56.8815 35.5001Z" fill="#731E1D" stroke="#D89F47"/>
<path d="M53.8815 35.5001C53.8815 45.7167 45.5407 54.0006 35.2499 54.0006C24.9589 54.0006 16.6182 45.7167 16.6182 35.5001C16.6182 25.2832 24.9589 16.9995 35.2499 16.9995C45.5407 16.9995 53.8815 25.2832 53.8815 35.5001Z" fill="#731E1D" stroke="#D89F47"/>
<path d="M51.1635 26.563H19.5L35.5097 54.1188L51.1635 26.563Z" stroke="#D69B4A"/>
<path d="M35.1537 17.3774L19.5 44.58H51.1635L35.1537 17.3774Z" stroke="#D69B4A"/>
<path d="M40.4903 26.563H30.173L24.8364 35.7483L30.173 44.5802H40.846L45.8269 35.7483L40.4903 26.563Z" fill="#394C7E"/>
<path d="M28.7797 35.7596C28.8481 35.7579 28.9023 35.7016 28.9009 35.6337C28.8992 35.5658 28.8427 35.5118 28.774 35.5132C28.7056 35.5149 28.6514 35.5712 28.6529 35.6391C28.6545 35.707 28.7113 35.761 28.7797 35.7596Z" fill="#D69B4A"/>
<path d="M28.1354 36.4283C28.6826 36.909 29.5613 37.2702 30.4973 37.3116C30.7555 37.6931 31.1948 37.9215 31.6598 37.9111C31.8648 37.9066 32.0279 37.7373 32.0231 37.5338L32.0106 36.9684C32.7031 36.6158 33.2808 36.0861 33.5622 35.8031C33.6206 36.0594 33.7534 36.2934 33.9491 36.4792C34.2123 36.7294 34.5576 36.8624 34.9216 36.8543C34.99 36.8529 35.0442 36.7966 35.0428 36.7287C35.0347 36.3673 34.8854 36.0305 34.6222 35.7806C34.5034 35.6679 34.368 35.5789 34.2218 35.516C34.365 35.4467 34.4963 35.3517 34.6099 35.2339C34.8615 34.9726 34.9957 34.6297 34.9876 34.2683C34.9869 34.2342 34.9722 34.2039 34.9495 34.1821C34.9266 34.1604 34.8953 34.1474 34.861 34.1481C34.497 34.1561 34.1579 34.3043 33.9063 34.5655C33.7191 34.7601 33.597 34.9996 33.5499 35.2585C33.2562 34.988 32.6553 34.4841 31.9476 34.1625L31.9351 33.5971C31.9304 33.3938 31.76 33.2319 31.5552 33.2364C31.0902 33.2466 30.6616 33.4942 30.4207 33.8865C29.5987 33.9599 28.6887 34.3031 28.0916 34.8827C27.824 35.1425 27.6673 35.4334 27.6725 35.6608C27.6777 35.8909 27.8507 36.1779 28.1354 36.4283ZM31.6544 37.6652C31.3344 37.6723 31.0294 37.5411 30.8147 37.3137C31.1141 37.3019 31.4331 37.2245 31.7652 37.0832L31.7753 37.5395C31.777 37.6072 31.7226 37.6635 31.6544 37.6652ZM34.7846 36.6037C34.5358 36.5803 34.3037 36.4754 34.1205 36.3015C33.9373 36.1275 33.8213 35.9018 33.787 35.6563C34.0355 35.6795 34.2677 35.7844 34.4509 35.9586C34.634 36.1325 34.75 36.3581 34.7846 36.6037ZM34.7351 34.4046C34.7117 34.6515 34.6061 34.882 34.4307 35.0637C34.2556 35.2457 34.0284 35.3607 33.7811 35.3951C33.8045 35.1482 33.9101 34.9177 34.0854 34.7357C34.2606 34.5537 34.4878 34.4387 34.7351 34.4046ZM31.5607 33.4823C31.6288 33.4809 31.6856 33.5349 31.6873 33.6025L31.6975 34.0588C31.3593 33.9322 31.0372 33.869 30.7376 33.8704C30.9418 33.6338 31.2407 33.4894 31.5607 33.4823ZM28.2649 35.0588C28.5101 34.8207 28.8492 34.6025 29.2241 34.4403C29.5329 34.6171 29.7597 34.9248 29.8501 35.2931C29.8662 35.3591 29.9331 35.3996 29.9996 35.3835C30.0661 35.3674 30.1071 35.3009 30.0907 35.2348C30.0018 34.8718 29.7973 34.5516 29.5055 34.3312C29.828 34.2205 30.1632 34.1516 30.5049 34.1265C30.5719 34.1216 30.6398 34.1182 30.7073 34.1168C31.6759 34.0953 32.7807 34.8626 33.4803 35.5323C32.8122 36.2319 31.7441 37.0477 30.7733 37.069C30.7056 37.0707 30.6374 37.0702 30.5707 37.0683C30.228 37.0584 29.8898 37.0044 29.5627 36.9078C29.7601 36.7441 29.918 36.5277 30.0179 36.2802C30.0434 36.2172 30.0124 36.1455 29.949 36.1202C29.8856 36.0951 29.8134 36.1256 29.7878 36.1886C29.6825 36.4494 29.5022 36.6686 29.2769 36.8115C28.8994 36.6676 28.5541 36.4676 28.2999 36.244C28.0415 36.017 27.9231 35.7848 27.9203 35.6552C27.9174 35.5276 28.0228 35.2938 28.2649 35.0588Z" fill="#D69B4A"/>
<path d="M30.0156 35.877C30.0839 35.8756 30.1381 35.8193 30.1367 35.7514C30.1351 35.6834 30.0785 35.6295 30.0099 35.6309C29.9415 35.6325 29.8873 35.6889 29.8887 35.7568C29.8904 35.8247 29.9472 35.8784 30.0156 35.877Z" fill="#D69B4A"/>
<path d="M70 19.3638H63.5V55.6086H70V19.3638Z" fill="#C88B38"/>
<path d="M7 20.853H0.5V57.0978H7V20.853Z" fill="#C88B38"/>
<path d="M50.9997 7.00141L51.0088 0.546875L19.2732 0.502923L19.2642 6.95746L50.9997 7.00141Z" fill="#C88B38"/>
<path d="M51.2356 70.0507L51.2446 63.5962L19.5091 63.5522L19.5 70.0068L51.2356 70.0507Z" fill="#C88B38"/>
<path d="M35 9.92986C35.5523 9.92986 36 9.48528 36 8.93685C36 8.38843 35.5523 7.94385 35 7.94385C34.4477 7.94385 34 8.38843 34 8.93685C34 9.48528 34.4477 9.92986 35 9.92986Z" fill="#BE8F42"/>
<path d="M31.25 29.2937C31.6642 29.2937 32 28.9603 32 28.549C32 28.1376 31.6642 27.8042 31.25 27.8042C30.8358 27.8042 30.5 28.1376 30.5 28.549C30.5 28.9603 30.8358 29.2937 31.25 29.2937Z" fill="#BE8F42"/>
<path d="M25.75 24.825C26.1642 24.825 26.5 24.4915 26.5 24.0802C26.5 23.6689 26.1642 23.3354 25.75 23.3354C25.3358 23.3354 25 23.6689 25 24.0802C25 24.4915 25.3358 24.825 25.75 24.825Z" fill="#BE8F42"/>
<path d="M27.75 48.1609C28.1642 48.1609 28.5 47.8275 28.5 47.4161C28.5 47.0048 28.1642 46.6714 27.75 46.6714C27.3358 46.6714 27 47.0048 27 47.4161C27 47.8275 27.3358 48.1609 27.75 48.1609Z" fill="#BE8F42"/>
<path d="M20.75 34.2586C21.1642 34.2586 21.5 33.9251 21.5 33.5138C21.5 33.1025 21.1642 32.769 20.75 32.769C20.3358 32.769 20 33.1025 20 33.5138C20 33.9251 20.3358 34.2586 20.75 34.2586Z" fill="#BE8F42"/>
<path d="M20.75 38.2307C21.1642 38.2307 21.5 37.8973 21.5 37.486C21.5 37.0746 21.1642 36.7412 20.75 36.7412C20.3358 36.7412 20 37.0746 20 37.486C20 37.8973 20.3358 38.2307 20.75 38.2307Z" fill="#BE8F42"/>
<path d="M50.25 34.2586C50.6642 34.2586 51 33.9251 51 33.5138C51 33.1025 50.6642 32.769 50.25 32.769C49.8358 32.769 49.5 33.1025 49.5 33.5138C49.5 33.9251 49.8358 34.2586 50.25 34.2586Z" fill="#BE8F42"/>
<path d="M50.25 38.2307C50.6642 38.2307 51 37.8973 51 37.486C51 37.0746 50.6642 36.7412 50.25 36.7412C49.8358 36.7412 49.5 37.0746 49.5 37.486C49.5 37.8973 49.8358 38.2307 50.25 38.2307Z" fill="#BE8F42"/>
<path d="M43.8891 47.7135C44.1142 48.0587 44.5786 48.1574 44.9263 47.9339C45.274 47.7104 45.3734 47.2493 45.1483 46.904C44.9232 46.5587 44.4588 46.46 44.1111 46.6835C43.7634 46.9071 43.664 47.3682 43.8891 47.7135Z" fill="#BE8F42"/>
<path d="M40.5312 49.8721C40.7563 50.2174 41.2207 50.3161 41.5684 50.0926C41.9161 49.8691 42.0155 49.408 41.7904 49.0627C41.5653 48.7174 41.1009 48.6187 40.7532 48.8422C40.4055 49.0658 40.3061 49.5269 40.5312 49.8721Z" fill="#BE8F42"/>
<path d="M34.75 24.825C35.1642 24.825 35.5 24.4915 35.5 24.0802C35.5 23.6689 35.1642 23.3354 34.75 23.3354C34.3358 23.3354 34 23.6689 34 24.0802C34 24.4915 34.3358 24.825 34.75 24.825Z" fill="#BE8F42"/>
<path d="M35.25 16.3845C35.6642 16.3845 36 16.0511 36 15.6398C36 15.2285 35.6642 14.895 35.25 14.895C34.8358 14.895 34.5 15.2285 34.5 15.6398C34.5 16.0511 34.8358 16.3845 35.25 16.3845Z" fill="#BE8F42"/>
<path d="M45.25 30.783C45.6642 30.783 46 30.4495 46 30.0382C46 29.6269 45.6642 29.2935 45.25 29.2935C44.8358 29.2935 44.5 29.6269 44.5 30.0382C44.5 30.4495 44.8358 30.783 45.25 30.783Z" fill="#BE8F42"/>
<path d="M45.25 42.2029C45.6642 42.2029 46 41.8695 46 41.4581C46 41.0468 45.6642 40.7134 45.25 40.7134C44.8358 40.7134 44.5 41.0468 44.5 41.4581C44.5 41.8695 44.8358 42.2029 45.25 42.2029Z" fill="#BE8F42"/>
<path d="M35.25 48.1609C35.6642 48.1609 36 47.8275 36 47.4161C36 47.0048 35.6642 46.6714 35.25 46.6714C34.8358 46.6714 34.5 47.0048 34.5 47.4161C34.5 47.8275 34.8358 48.1609 35.25 48.1609Z" fill="#BE8F42"/>
<path d="M24.75 42.2029C25.1642 42.2029 25.5 41.8695 25.5 41.4581C25.5 41.0468 25.1642 40.7134 24.75 40.7134C24.3358 40.7134 24 41.0468 24 41.4581C24 41.8695 24.3358 42.2029 24.75 42.2029Z" fill="#BE8F42"/>
<path d="M24.75 30.783C25.1642 30.783 25.5 30.4495 25.5 30.0382C25.5 29.6269 25.1642 29.2935 24.75 29.2935C24.3358 29.2935 24 29.6269 24 30.0382C24 30.4495 24.3358 30.783 24.75 30.783Z" fill="#BE8F42"/>
<path d="M43.75 24.825C44.1642 24.825 44.5 24.4915 44.5 24.0802C44.5 23.6689 44.1642 23.3354 43.75 23.3354C43.3358 23.3354 43 23.6689 43 24.0802C43 24.4915 43.3358 24.825 43.75 24.825Z" fill="#BE8F42"/>
<path d="M39.25 29.2937C39.6642 29.2937 40 28.9603 40 28.549C40 28.1376 39.6642 27.8042 39.25 27.8042C38.8358 27.8042 38.5 28.1376 38.5 28.549C38.5 28.9603 38.8358 29.2937 39.25 29.2937Z" fill="#BE8F42"/>
<path d="M35.25 29.2937C35.6642 29.2937 36 28.9603 36 28.549C36 28.1376 35.6642 27.8042 35.25 27.8042C34.8358 27.8042 34.5 28.1376 34.5 28.549C34.5 28.9603 34.8358 29.2937 35.25 29.2937Z" fill="#BE8F42"/>
<path d="M31.25 43.6926C31.6642 43.6926 32 43.3592 32 42.9479C32 42.5366 31.6642 42.2031 31.25 42.2031C30.8358 42.2031 30.5 42.5366 30.5 42.9479C30.5 43.3592 30.8358 43.6926 31.25 43.6926Z" fill="#BE8F42"/>
<path d="M39.25 43.6926C39.6642 43.6926 40 43.3592 40 42.9479C40 42.5366 39.6642 42.2031 39.25 42.2031C38.8358 42.2031 38.5 42.5366 38.5 42.9479C38.5 43.3592 38.8358 43.6926 39.25 43.6926Z" fill="#BE8F42"/>
<path d="M35.25 43.6926C35.6642 43.6926 36 43.3592 36 42.9479C36 42.5366 35.6642 42.2031 35.25 42.2031C34.8358 42.2031 34.5 42.5366 34.5 42.9479C34.5 43.3592 34.8358 43.6926 35.25 43.6926Z" fill="#BE8F42"/>
<path d="M58 12.9089C58.5523 12.9089 59 12.4643 59 11.9159C59 11.3674 58.5523 10.9229 58 10.9229C57.4477 10.9229 57 11.3674 57 11.9159C57 12.4643 57.4477 12.9089 58 12.9089Z" fill="#BE8F42"/>
<path d="M12.5 13.902C13.0523 13.902 13.5 13.4574 13.5 12.909C13.5 12.3606 13.0523 11.916 12.5 11.916C11.9477 11.916 11.5 12.3606 11.5 12.909C11.5 13.4574 11.9477 13.902 12.5 13.902Z" fill="#BE8F42"/>
<path d="M58 59.5803C58.5523 59.5803 59 59.1357 59 58.5872C59 58.0388 58.5523 57.5942 58 57.5942C57.4477 57.5942 57 58.0388 57 58.5872C57 59.1357 57.4477 59.5803 58 59.5803Z" fill="#BE8F42"/>
<path d="M12.5 59.5803C13.0523 59.5803 13.5 59.1357 13.5 58.5872C13.5 58.0388 13.0523 57.5942 12.5 57.5942C11.9477 57.5942 11.5 58.0388 11.5 58.5872C11.5 59.1357 11.9477 59.5803 12.5 59.5803Z" fill="#BE8F42"/>
<path d="M35 62.5593C35.5523 62.5593 36 62.1147 36 61.5663C36 61.0178 35.5523 60.5732 35 60.5732C34.4477 60.5732 34 61.0178 34 61.5663C34 62.1147 34.4477 62.5593 35 62.5593Z" fill="#BE8F42"/>
<path d="M61.5 36.7414C62.0523 36.7414 62.5 36.2968 62.5 35.7484C62.5 35.2 62.0523 34.7554 61.5 34.7554C60.9477 34.7554 60.5 35.2 60.5 35.7484C60.5 36.2968 60.9477 36.7414 61.5 36.7414Z" fill="#BE8F42"/>
<path d="M9 36.7414C9.55228 36.7414 10 36.2968 10 35.7484C10 35.2 9.55228 34.7554 9 34.7554C8.44771 34.7554 8 35.2 8 35.7484C8 36.2968 8.44771 36.7414 9 36.7414Z" fill="#BE8F42"/>
<path d="M48.5002 19.8604L47.75 20.8534C50.7074 23.2181 51.6896 24.8045 53.0002 27.8045L54.2501 27.308C52.7077 24.1054 51.6268 22.3998 48.5002 19.8604Z" fill="#BE8F42"/>
<path d="M48.2182 13.2617L47.7432 14.8152C51.869 17.1309 53.5266 18.9767 56.0554 22.6265L57.2626 21.5946C54.4041 17.7399 52.5944 15.7629 48.2182 13.2617Z" fill="#BE8F42"/>
<path d="M12.394 23.0073L13.9597 23.4746C16.2803 19.3711 18.1345 17.7201 21.803 15.1989L20.7604 14.0029C16.8866 16.852 14.9007 18.6547 12.394 23.0073Z" fill="#BE8F42"/>
<path d="M57.7697 48.9325L56.2295 48.3882C53.7057 52.3718 51.7709 53.929 47.9805 56.2654L48.9617 57.5115C52.9737 54.8577 55.0476 53.1556 57.7697 48.9325Z" fill="#BE8F42"/>
<path d="M22.0168 57.962L22.5175 56.4165C18.4305 54.0335 16.8039 52.161 14.336 48.4702L13.1118 49.4822C15.9058 53.3832 17.6826 55.3896 22.0168 57.962Z" fill="#BE8F42"/>
<path d="M50.7874 48.7717L49.7913 48.022C47.3948 50.9462 45.7923 51.9135 42.7646 53.1995L43.2581 54.4432C46.4912 52.9281 48.2141 51.8633 50.7874 48.7717Z" fill="#BE8F42"/>
<path d="M16.3521 27.2589L17.5067 27.7343C19.0808 24.3031 20.3851 22.9652 22.9871 20.9608L22.1929 19.8813C19.4506 22.159 18.0546 23.6216 16.3521 27.2589Z" fill="#BE8F42"/>
<path d="M15.2368 40.1127L16.1609 40.019C16.0387 38.8101 15.5305 38.6499 15.8163 37.2268L14.7972 37.0942C14.555 39.2877 15.0351 38.8718 15.2368 40.1127Z" fill="#BE8F42"/>
<path d="M20.6775 49.7499L21.6729 49.3159C20.7178 48.1737 20.0276 48.2042 19.3953 46.7007L18.1387 46.9478C19.3403 49.1918 19.6097 48.6056 20.6775 49.7499Z" fill="#BE8F42"/>
<path d="M55.9882 36.2549L54.9404 35.5444C54.496 37.2373 54.9712 37.9054 53.9819 39.511L55.0249 40.6029C56.3346 37.9494 55.6149 38.0614 55.9882 36.2549Z" fill="#BE8F42"/>
<path d="M32.7562 55.5057L33.9854 54.8913C32.0012 54.4151 31.0089 54.6563 29.3091 53.8301L27.6016 54.3997C30.5152 55.5506 30.6058 55.0641 32.7562 55.5057Z" fill="#BE8F42"/>
<path d="M57.0001 18.6189C55.3538 16.1815 54.2419 14.9458 51.25 13.1574L52 12.4126C55.2996 14.4372 56.3305 15.6963 57.7501 17.8741L57.0001 18.6189Z" fill="#BE8F42"/>
<path d="M52.0557 57.8271C54.6252 56.377 55.9484 55.3674 57.9657 52.5371L58.6582 53.3349C56.381 56.4525 55.0403 57.3803 52.7479 58.6249L52.0557 57.8271Z" fill="#BE8F42"/>
<path d="M12.7497 52.749C14.4472 55.1517 15.5848 56.3639 18.6137 58.0899L17.8795 58.8501C14.538 56.8945 13.4808 55.6569 12.0156 53.5092L12.7497 52.749Z" fill="#BE8F42"/>
<path d="M18.0818 13.9766C15.6113 15.5876 14.356 16.6795 12.5258 19.6327L11.7832 18.8807C13.8542 15.6242 15.1322 14.6129 17.3392 13.2246L18.0818 13.9766Z" fill="#BE8F42"/>
</g>
</g>
<defs>
<clipPath id="clip0_66_1556">
<rect width="71" height="71" fill="white"/>
</clipPath>
</defs>
</svg>
