<svg width="36" height="36" viewBox="0 0 36 36" fill="none" xmlns="http://www.w3.org/2000/svg">
<g clip-path="url(#clip0_66_1556)">
<mask id="mask0_66_1556" style="mask-type:luminance" maskUnits="userSpaceOnUse" x="0" y="0" width="36" height="36">
<path d="M36 0H0V36H36V0Z" fill="white"/>
</mask>
<g mask="url(#mask0_66_1556)">
<path d="M36 0H0V36H36V0Z" fill="#C88B38"/>
<path d="M10.7213 1.25879V3.3958H14.9485V5.4565H5.11054V15.073H3.26591V10.799H1.26758V25.1475H3.26591V21.0262H5.11054V30.7954H14.9485V32.4745H10.7213V34.993H25.0171V32.4745H20.5592V30.7954H30.551V21.0262H32.4724V25.1475H34.5476V11.257H32.4724V15.073H30.551V4.84591H20.5592V3.3958H25.0171V1.25879H10.7213Z" fill="#394C7E" stroke="#DCA551"/>
<path d="M28.8416 17.9999C28.8416 24.0145 23.9315 28.891 17.8735 28.891C11.8155 28.891 6.90527 24.0145 6.90527 17.9999C6.90527 11.9854 11.8155 7.10889 17.8735 7.10889C23.9315 7.10889 28.8416 11.9854 28.8416 17.9999Z" fill="#731E1D" stroke="#D89F47"/>
<path d="M27.3204 18.0002C27.3204 23.1805 23.0912 27.3807 17.8734 27.3807C12.6554 27.3807 8.42627 23.1805 8.42627 18.0002C8.42627 12.8198 12.6554 8.61963 17.8734 8.61963C23.0912 8.61963 27.3204 12.8198 27.3204 18.0002Z" fill="#731E1D" stroke="#D89F47"/>
<path d="M25.942 13.4688H9.88721L18.0048 27.4407L25.942 13.4688Z" stroke="#D69B4A"/>
<path d="M17.8243 8.81104L9.88721 22.6039H25.942L17.8243 8.81104Z" stroke="#D69B4A"/>
<path d="M20.5304 13.4688H15.2991L12.5933 18.1261L15.2991 22.6042H20.7108L23.2363 18.1261L20.5304 13.4688Z" fill="#394C7E"/>
<path d="M14.5927 18.1313C14.6273 18.1304 14.6548 18.1019 14.6541 18.0674C14.6533 18.033 14.6246 18.0056 14.5898 18.0064C14.5551 18.0072 14.5276 18.0358 14.5283 18.0702C14.5292 18.1046 14.558 18.132 14.5927 18.1313Z" fill="#D69B4A"/>
<path d="M14.266 18.4705C14.5435 18.7143 14.989 18.8974 15.4636 18.9184C15.5946 19.1118 15.8173 19.2276 16.0531 19.2223C16.157 19.2201 16.2397 19.1343 16.2373 19.0311L16.2309 18.7444C16.582 18.5656 16.875 18.297 17.0176 18.1535C17.0473 18.2835 17.1146 18.4021 17.2138 18.4963C17.3473 18.6232 17.5224 18.6906 17.7069 18.6865C17.7416 18.6858 17.7691 18.6573 17.7684 18.6228C17.7643 18.4396 17.6886 18.2688 17.5551 18.1421C17.4949 18.085 17.4262 18.0399 17.3521 18.0079C17.4247 17.9728 17.4913 17.9247 17.5489 17.8649C17.6764 17.7324 17.7445 17.5585 17.7404 17.3753C17.74 17.358 17.7326 17.3427 17.7211 17.3316C17.7094 17.3206 17.6936 17.314 17.6762 17.3143C17.4916 17.3184 17.3197 17.3935 17.1921 17.526C17.0972 17.6247 17.0353 17.7461 17.0114 17.8774C16.8625 17.7402 16.5578 17.4847 16.199 17.3217L16.1926 17.035C16.1902 16.9319 16.1038 16.8498 16 16.8521C15.7642 16.8573 15.5469 16.9828 15.4248 17.1817C15.008 17.2189 14.5466 17.3929 14.2438 17.6868C14.1081 17.8186 14.0287 17.9661 14.0313 18.0814C14.034 18.198 14.1217 18.3436 14.266 18.4705ZM16.0503 19.0977C15.8881 19.1013 15.7334 19.0348 15.6246 18.9195C15.7764 18.9135 15.9381 18.8742 16.1065 18.8026L16.1116 19.0339C16.1125 19.0683 16.0849 19.0968 16.0503 19.0977ZM17.6374 18.5595C17.5113 18.5476 17.3936 18.4944 17.3007 18.4062C17.2078 18.318 17.149 18.2035 17.1316 18.0791C17.2576 18.0909 17.3754 18.144 17.4682 18.2323C17.5611 18.3205 17.6199 18.4349 17.6374 18.5595ZM17.6124 17.4444C17.6005 17.5696 17.547 17.6865 17.458 17.7786C17.3692 17.8709 17.254 17.9292 17.1286 17.9466C17.1405 17.8215 17.194 17.7046 17.283 17.6123C17.3718 17.52 17.487 17.4617 17.6124 17.4444ZM16.0028 16.9768C16.0374 16.9761 16.0662 17.0034 16.067 17.0377L16.0722 17.2691C15.9007 17.2049 15.7374 17.1729 15.5854 17.1736C15.689 17.0536 15.8406 16.9804 16.0028 16.9768ZM14.3317 17.7761C14.456 17.6554 14.628 17.5447 14.818 17.4625C14.9746 17.5522 15.0896 17.7082 15.1354 17.8949C15.1436 17.9284 15.1776 17.9489 15.2113 17.9407C15.245 17.9326 15.2658 17.8989 15.2575 17.8654C15.2124 17.6813 15.1087 17.5189 14.9607 17.4072C15.1243 17.3511 15.2942 17.3161 15.4675 17.3034C15.5014 17.3009 15.5359 17.2992 15.5701 17.2985C16.0612 17.2876 16.6214 17.6766 16.9761 18.0162C16.6374 18.3709 16.0958 18.7846 15.6036 18.7954C15.5692 18.7962 15.5347 18.796 15.5008 18.795C15.3271 18.79 15.1556 18.7626 14.9898 18.7137C15.0898 18.6306 15.1699 18.5209 15.2205 18.3954C15.2335 18.3635 15.2178 18.3271 15.1856 18.3143C15.1534 18.3016 15.1168 18.3171 15.1039 18.349C15.0505 18.4812 14.959 18.5923 14.8448 18.6648C14.6534 18.5919 14.4783 18.4905 14.3494 18.3771C14.2184 18.262 14.1584 18.1443 14.157 18.0785C14.1555 18.0138 14.2089 17.8953 14.3317 17.7761Z" fill="#D69B4A"/>
<path d="M15.2191 18.1912C15.2538 18.1905 15.2813 18.1619 15.2806 18.1275C15.2797 18.0931 15.251 18.0657 15.2162 18.0664C15.1816 18.0673 15.1541 18.0958 15.1548 18.1303C15.1556 18.1647 15.1844 18.1919 15.2191 18.1912Z" fill="#D69B4A"/>
<path d="M35.493 9.81836H32.1973V28.196H35.493V9.81836Z" fill="#C88B38"/>
<path d="M3.54919 10.5732H0.253418V28.9509H3.54919V10.5732Z" fill="#C88B38"/>
<path d="M25.8592 3.55006L25.8638 0.277344L9.77251 0.255058L9.76791 3.52778L25.8592 3.55006Z" fill="#C88B38"/>
<path d="M25.9783 35.5188L25.9829 32.2461L9.89165 32.2238L9.88705 35.4965L25.9783 35.5188Z" fill="#C88B38"/>
<path d="M17.7463 5.03482C18.0263 5.03482 18.2533 4.8094 18.2533 4.53133C18.2533 4.25325 18.0263 4.02783 17.7463 4.02783C17.4663 4.02783 17.2393 4.25325 17.2393 4.53133C17.2393 4.8094 17.4663 5.03482 17.7463 5.03482Z" fill="#BE8F42"/>
<path d="M15.8451 14.8529C16.0551 14.8529 16.2254 14.6838 16.2254 14.4753C16.2254 14.2667 16.0551 14.0977 15.8451 14.0977C15.6351 14.0977 15.4648 14.2667 15.4648 14.4753C15.4648 14.6838 15.6351 14.8529 15.8451 14.8529Z" fill="#BE8F42"/>
<path d="M13.0566 12.5873C13.2666 12.5873 13.4368 12.4182 13.4368 12.2097C13.4368 12.0011 13.2666 11.832 13.0566 11.832C12.8465 11.832 12.6763 12.0011 12.6763 12.2097C12.6763 12.4182 12.8465 12.5873 13.0566 12.5873Z" fill="#BE8F42"/>
<path d="M14.0702 24.4198C14.2802 24.4198 14.4505 24.2507 14.4505 24.0422C14.4505 23.8336 14.2802 23.6646 14.0702 23.6646C13.8602 23.6646 13.6899 23.8336 13.6899 24.0422C13.6899 24.2507 13.8602 24.4198 14.0702 24.4198Z" fill="#BE8F42"/>
<path d="M10.5209 17.3705C10.7309 17.3705 10.9012 17.2014 10.9012 16.9929C10.9012 16.7843 10.7309 16.6152 10.5209 16.6152C10.3109 16.6152 10.1406 16.7843 10.1406 16.9929C10.1406 17.2014 10.3109 17.3705 10.5209 17.3705Z" fill="#BE8F42"/>
<path d="M10.5209 19.3846C10.7309 19.3846 10.9012 19.2156 10.9012 19.007C10.9012 18.7985 10.7309 18.6294 10.5209 18.6294C10.3109 18.6294 10.1406 18.7985 10.1406 19.007C10.1406 19.2156 10.3109 19.3846 10.5209 19.3846Z" fill="#BE8F42"/>
<path d="M25.4789 17.3705C25.6889 17.3705 25.8592 17.2014 25.8592 16.9929C25.8592 16.7843 25.6889 16.6152 25.4789 16.6152C25.2689 16.6152 25.0986 16.7843 25.0986 16.9929C25.0986 17.2014 25.2689 17.3705 25.4789 17.3705Z" fill="#BE8F42"/>
<path d="M25.4789 19.3846C25.6889 19.3846 25.8592 19.2156 25.8592 19.007C25.8592 18.7985 25.6889 18.6294 25.4789 18.6294C25.2689 18.6294 25.0986 18.7985 25.0986 19.007C25.0986 19.2156 25.2689 19.3846 25.4789 19.3846Z" fill="#BE8F42"/>
<path d="M22.2538 24.1928C22.3679 24.3678 22.6033 24.4179 22.7796 24.3045C22.9559 24.1912 23.0063 23.9574 22.8922 23.7823C22.7781 23.6073 22.5426 23.5572 22.3663 23.6705C22.19 23.7839 22.1396 24.0177 22.2538 24.1928Z" fill="#BE8F42"/>
<path d="M20.5511 25.287C20.6653 25.4621 20.9007 25.5121 21.077 25.3988C21.2533 25.2854 21.3037 25.0516 21.1896 24.8766C21.0754 24.7015 20.84 24.6514 20.6637 24.7648C20.4874 24.8781 20.437 25.1119 20.5511 25.287Z" fill="#BE8F42"/>
<path d="M17.6195 12.5873C17.8296 12.5873 17.9998 12.4182 17.9998 12.2097C17.9998 12.0011 17.8296 11.832 17.6195 11.832C17.4095 11.832 17.2393 12.0011 17.2393 12.2097C17.2393 12.4182 17.4095 12.5873 17.6195 12.5873Z" fill="#BE8F42"/>
<path d="M17.8734 8.30749C18.0835 8.30749 18.2537 8.13842 18.2537 7.92987C18.2537 7.72131 18.0835 7.55225 17.8734 7.55225C17.6634 7.55225 17.4932 7.72131 17.4932 7.92987C17.4932 8.13842 17.6634 8.30749 17.8734 8.30749Z" fill="#BE8F42"/>
<path d="M22.9438 15.6083C23.1538 15.6083 23.324 15.4392 23.324 15.2306C23.324 15.0221 23.1538 14.853 22.9438 14.853C22.7337 14.853 22.5635 15.0221 22.5635 15.2306C22.5635 15.4392 22.7337 15.6083 22.9438 15.6083Z" fill="#BE8F42"/>
<path d="M22.9438 21.3988C23.1538 21.3988 23.324 21.2297 23.324 21.0212C23.324 20.8126 23.1538 20.6436 22.9438 20.6436C22.7337 20.6436 22.5635 20.8126 22.5635 21.0212C22.5635 21.2297 22.7337 21.3988 22.9438 21.3988Z" fill="#BE8F42"/>
<path d="M17.8734 24.4198C18.0835 24.4198 18.2537 24.2507 18.2537 24.0422C18.2537 23.8336 18.0835 23.6646 17.8734 23.6646C17.6634 23.6646 17.4932 23.8336 17.4932 24.0422C17.4932 24.2507 17.6634 24.4198 17.8734 24.4198Z" fill="#BE8F42"/>
<path d="M12.5492 21.3988C12.7593 21.3988 12.9295 21.2297 12.9295 21.0212C12.9295 20.8126 12.7593 20.6436 12.5492 20.6436C12.3392 20.6436 12.1689 20.8126 12.1689 21.0212C12.1689 21.2297 12.3392 21.3988 12.5492 21.3988Z" fill="#BE8F42"/>
<path d="M12.5492 15.6083C12.7593 15.6083 12.9295 15.4392 12.9295 15.2306C12.9295 15.0221 12.7593 14.853 12.5492 14.853C12.3392 14.853 12.1689 15.0221 12.1689 15.2306C12.1689 15.4392 12.3392 15.6083 12.5492 15.6083Z" fill="#BE8F42"/>
<path d="M22.183 12.5873C22.393 12.5873 22.5633 12.4182 22.5633 12.2097C22.5633 12.0011 22.393 11.832 22.183 11.832C21.973 11.832 21.8027 12.0011 21.8027 12.2097C21.8027 12.4182 21.973 12.5873 22.183 12.5873Z" fill="#BE8F42"/>
<path d="M19.9013 14.8529C20.1113 14.8529 20.2816 14.6838 20.2816 14.4753C20.2816 14.2667 20.1113 14.0977 19.9013 14.0977C19.6913 14.0977 19.521 14.2667 19.521 14.4753C19.521 14.6838 19.6913 14.8529 19.9013 14.8529Z" fill="#BE8F42"/>
<path d="M17.8734 14.8529C18.0835 14.8529 18.2537 14.6838 18.2537 14.4753C18.2537 14.2667 18.0835 14.0977 17.8734 14.0977C17.6634 14.0977 17.4932 14.2667 17.4932 14.4753C17.4932 14.6838 17.6634 14.8529 17.8734 14.8529Z" fill="#BE8F42"/>
<path d="M15.8451 22.1537C16.0551 22.1537 16.2254 21.9846 16.2254 21.7761C16.2254 21.5675 16.0551 21.3984 15.8451 21.3984C15.6351 21.3984 15.4648 21.5675 15.4648 21.7761C15.4648 21.9846 15.6351 22.1537 15.8451 22.1537Z" fill="#BE8F42"/>
<path d="M19.9013 22.1537C20.1113 22.1537 20.2816 21.9846 20.2816 21.7761C20.2816 21.5675 20.1113 21.3984 19.9013 21.3984C19.6913 21.3984 19.521 21.5675 19.521 21.7761C19.521 21.9846 19.6913 22.1537 19.9013 22.1537Z" fill="#BE8F42"/>
<path d="M17.8734 22.1537C18.0835 22.1537 18.2537 21.9846 18.2537 21.7761C18.2537 21.5675 18.0835 21.3984 17.8734 21.3984C17.6634 21.3984 17.4932 21.5675 17.4932 21.7761C17.4932 21.9846 17.6634 22.1537 17.8734 22.1537Z" fill="#BE8F42"/>
<path d="M29.4084 6.54557C29.6884 6.54557 29.9155 6.32014 29.9155 6.04207C29.9155 5.764 29.6884 5.53857 29.4084 5.53857C29.1284 5.53857 28.9014 5.764 28.9014 6.04207C28.9014 6.32014 29.1284 6.54557 29.4084 6.54557Z" fill="#BE8F42"/>
<path d="M6.3381 7.04898C6.61813 7.04898 6.84514 6.82356 6.84514 6.54549C6.84514 6.26741 6.61813 6.04199 6.3381 6.04199C6.05807 6.04199 5.83105 6.26741 5.83105 6.54549C5.83105 6.82356 6.05807 7.04898 6.3381 7.04898Z" fill="#BE8F42"/>
<path d="M29.4084 30.2096C29.6884 30.2096 29.9155 29.9842 29.9155 29.7061C29.9155 29.4281 29.6884 29.2026 29.4084 29.2026C29.1284 29.2026 28.9014 29.4281 28.9014 29.7061C28.9014 29.9842 29.1284 30.2096 29.4084 30.2096Z" fill="#BE8F42"/>
<path d="M6.3381 30.2096C6.61813 30.2096 6.84514 29.9842 6.84514 29.7061C6.84514 29.4281 6.61813 29.2026 6.3381 29.2026C6.05807 29.2026 5.83105 29.4281 5.83105 29.7061C5.83105 29.9842 6.05807 30.2096 6.3381 30.2096Z" fill="#BE8F42"/>
<path d="M17.7463 31.7204C18.0263 31.7204 18.2533 31.4949 18.2533 31.2169C18.2533 30.9388 18.0263 30.7134 17.7463 30.7134C17.4663 30.7134 17.2393 30.9388 17.2393 31.2169C17.2393 31.4949 17.4663 31.7204 17.7463 31.7204Z" fill="#BE8F42"/>
<path d="M31.1833 18.6296C31.4633 18.6296 31.6904 18.4041 31.6904 18.1261C31.6904 17.848 31.4633 17.6226 31.1833 17.6226C30.9033 17.6226 30.6763 17.848 30.6763 18.1261C30.6763 18.4041 30.9033 18.6296 31.1833 18.6296Z" fill="#BE8F42"/>
<path d="M4.56319 18.6296C4.84323 18.6296 5.07024 18.4041 5.07024 18.1261C5.07024 17.848 4.84323 17.6226 4.56319 17.6226C4.28316 17.6226 4.05615 17.848 4.05615 18.1261C4.05615 18.4041 4.28316 18.6296 4.56319 18.6296Z" fill="#BE8F42"/>
<path d="M24.5918 10.0698L24.2114 10.5733C25.7109 11.7723 26.2089 12.5767 26.8735 14.0979L27.5072 13.8461C26.7252 12.2223 26.1771 11.3574 24.5918 10.0698Z" fill="#BE8F42"/>
<path d="M24.4484 6.72412L24.2075 7.51178C26.2995 8.68597 27.14 9.62185 28.4222 11.4725L29.0343 10.9492C27.5849 8.99477 26.6673 7.99233 24.4484 6.72412Z" fill="#BE8F42"/>
<path d="M6.28418 11.6657L7.07805 11.9027C8.25469 9.82201 9.19482 8.98485 11.0549 7.70648L10.5263 7.1001C8.56209 8.54471 7.55515 9.45873 6.28418 11.6657Z" fill="#BE8F42"/>
<path d="M29.2917 24.8112L28.5107 24.5352C27.231 26.555 26.25 27.3446 24.3281 28.5292L24.8256 29.161C26.8599 27.8155 27.9114 26.9524 29.2917 24.8112Z" fill="#BE8F42"/>
<path d="M11.1631 29.3889L11.417 28.6053C9.34477 27.397 8.51999 26.4476 7.26869 24.5762L6.64795 25.0893C8.06463 27.0673 8.96553 28.0846 11.1631 29.3889Z" fill="#BE8F42"/>
<path d="M25.7515 24.7293L25.2464 24.3491C24.0313 25.8318 23.2188 26.3223 21.6836 26.9744L21.9338 27.605C23.5731 26.8367 24.4467 26.2968 25.7515 24.7293Z" fill="#BE8F42"/>
<path d="M8.2915 13.8213L8.87697 14.0624C9.6751 12.3226 10.3364 11.6442 11.6557 10.6279L11.253 10.0806C9.86262 11.2354 9.15477 11.977 8.2915 13.8213Z" fill="#BE8F42"/>
<path d="M7.72548 20.3386L8.19404 20.2911C8.1321 19.6781 7.87441 19.5969 8.0193 18.8753L7.50257 18.8081C7.37978 19.9203 7.62319 19.7094 7.72548 20.3386Z" fill="#BE8F42"/>
<path d="M10.4846 25.2253L10.9893 25.0052C10.505 24.4261 10.155 24.4416 9.83444 23.6792L9.19727 23.8045C9.80654 24.9423 9.94314 24.6451 10.4846 25.2253Z" fill="#BE8F42"/>
<path d="M28.3883 18.3827L27.8571 18.0225C27.6317 18.8808 27.8727 19.2196 27.3711 20.0337L27.8999 20.5873C28.564 19.2419 28.1991 19.2987 28.3883 18.3827Z" fill="#BE8F42"/>
<path d="M16.6087 28.144L17.232 27.8325C16.2259 27.5911 15.7228 27.7134 14.8609 27.2944L13.9951 27.5833C15.4724 28.1668 15.5184 27.9201 16.6087 28.144Z" fill="#BE8F42"/>
<path d="M28.9014 9.44031C28.0666 8.20446 27.5029 7.5779 25.9858 6.67109L26.3661 6.29346C28.0392 7.32002 28.5619 7.95843 29.2816 9.06269L28.9014 9.44031Z" fill="#BE8F42"/>
<path d="M26.3945 29.3209C27.6974 28.5857 28.3683 28.0738 29.3912 26.6387L29.7423 27.0432C28.5877 28.624 27.9079 29.0944 26.7455 29.7254L26.3945 29.3209Z" fill="#BE8F42"/>
<path d="M6.46451 26.7461C7.32519 27.9643 7.90203 28.579 9.43778 29.4541L9.06554 29.8396C7.37125 28.848 6.83521 28.2205 6.09229 27.1315L6.46451 26.7461Z" fill="#BE8F42"/>
<path d="M9.16827 7.08687C7.9156 7.90369 7.27914 8.45734 6.35115 9.95475L5.97461 9.57345C7.02472 7.92226 7.67271 7.40949 8.79172 6.70557L9.16827 7.08687Z" fill="#BE8F42"/>
</g>
</g>
<defs>
<clipPath id="clip0_66_1556">
<rect width="36" height="36" fill="white"/>
</clipPath>
</defs>
</svg>
