<svg width="36" height="36" viewBox="0 0 36 36" fill="none" xmlns="http://www.w3.org/2000/svg">
<g clip-path="url(#clip0_66_1620)">
<mask id="mask0_66_1620" style="mask-type:luminance" maskUnits="userSpaceOnUse" x="0" y="0" width="36" height="36">
<path d="M36 0H0V36H36V0Z" fill="white"/>
</mask>
<g mask="url(#mask0_66_1620)">
<path d="M36 0H0V36H36V0Z" fill="url(#paint0_linear_66_1620)"/>
<path d="M34.6879 1.31201H1.31201V34.6879H34.6879V1.31201Z" fill="white" stroke="#B02A1F" stroke-width="2"/>
<path d="M1.5498 13.7088V22.53H3.93392V32.1856H14.424V34.4505H22.0531V32.1856H32.424V22.53H34.3313V13.7088H32.424V3.81478H22.5299V1.43066H14.424V3.81478H3.93392V13.7088H1.5498Z" fill="#FED33E" stroke="#4F576A"/>
<path d="M31.1704 5.06836H5.06836V30.932H31.1704V5.06836Z" fill="#D9D9D9" stroke="#C4251A" stroke-width="5"/>
<path d="M17.7618 28.8476C23.7528 28.8476 28.6094 24.0443 28.6094 18.1191C28.6094 12.1939 23.7528 7.39062 17.7618 7.39062C11.7707 7.39062 6.91406 12.1939 6.91406 18.1191C6.91406 24.0443 11.7707 28.8476 17.7618 28.8476Z" fill="#C62C17"/>
<path d="M17.7617 27.8939C23.226 27.8939 27.6557 23.5176 27.6557 18.1191C27.6557 12.7206 23.226 8.34424 17.7617 8.34424C12.2974 8.34424 7.86768 12.7206 7.86768 18.1191C7.86768 23.5176 12.2974 27.8939 17.7617 27.8939Z" fill="white"/>
<path d="M17.8808 26.8163C22.7526 26.8163 26.7019 22.8947 26.7019 18.0571C26.7019 13.2195 22.7526 9.29785 17.8808 9.29785C13.009 9.29785 9.05957 13.2195 9.05957 18.0571C9.05957 22.8947 13.009 26.8163 17.8808 26.8163Z" fill="#23321B"/>
<path d="M16.3155 12.9141L12.207 18.0736L16.1946 23.4731L19.5782 23.3531L23.5658 18.1936L19.5782 12.9141H16.3155Z" fill="white"/>
<path d="M16.2707 12.8672L17.7373 10.8745L19.2809 12.8672H16.2707L14.9585 14.7761L13.492 16.3161H15.7304L14.6498 18.1556L13.492 16.3161L12.1028 18.1556L13.492 19.9949H10.6362L12.1028 18.1556L10.8678 16.3161H13.492L12.643 14.7832L14.9585 14.7761L13.492 12.8672H16.2707Z" fill="#FF0B04"/>
<path d="M19.5122 12.8672L22.0593 13.0971L20.9065 14.7761L20.9118 14.7832H22.9083L22.0593 16.3161H24.7608L23.5258 18.1556L22.0593 16.3161L20.9118 14.7832H20.9016L20.9065 14.7761L19.5122 12.8672Z" fill="#FF0B04"/>
<path d="M16.2707 12.8672L17.7373 10.8745L19.2809 12.8672H16.2707ZM16.2707 12.8672L14.9585 14.7761M16.2707 12.8672H13.492L14.9585 14.7761M14.9585 14.7761L13.492 16.3161M14.9585 14.7761L12.643 14.7832L13.492 16.3161M20.9067 14.7761L20.9018 14.7832H22.9085L22.0595 16.3161M20.9067 14.7761L22.0595 13.0971L19.5124 12.8672L20.9067 14.7761ZM20.9067 14.7761L22.0595 16.3161M22.0595 16.3161H24.761L23.5261 18.1556L22.0595 16.3161ZM13.492 16.3161L12.1028 18.1556M13.492 16.3161H10.8678L12.1028 18.1556M13.492 16.3161L14.6498 18.1556L15.7304 16.3161H13.492ZM12.1028 18.1556L13.492 19.9949H10.6362L12.1028 18.1556Z" stroke="#9B3D31"/>
<path d="M12.6431 21.6809L13.4921 20.0714L14.8814 21.6809L16.1936 23.4437H17.8531L16.8882 21.6809H18.8951L17.8531 23.4437H19.5125L20.7475 21.6809L22.0596 20.0714L23.4489 18.2319L24.9155 19.9182L22.0596 20.0714L23.063 21.6809H20.7475L21.5193 23.4437H19.5125L17.8916 25.5131L16.1936 23.4437H14.0324L14.8814 21.6809H12.6431Z" fill="#FF0B04"/>
<path d="M14.8814 21.6809L13.4921 20.0714L12.6431 21.6809H14.8814ZM14.8814 21.6809L16.1936 23.4437M14.8814 21.6809L14.0324 23.4437H16.1936M16.1936 23.4437L17.8916 25.5131L19.5125 23.4437M16.1936 23.4437H17.8531M19.5125 23.4437L20.7475 21.6809M19.5125 23.4437H21.5193L20.7475 21.6809M19.5125 23.4437H17.8531M17.8531 23.4437L18.8951 21.6809H16.8882L17.8531 23.4437ZM20.7475 21.6809L22.0596 20.0714M20.7475 21.6809H23.063L22.0596 20.0714M22.0596 20.0714L24.9155 19.9182L23.4489 18.2319L22.0596 20.0714Z" stroke="#9B3D31"/>
<path d="M14.9586 21.681L15.8076 19.9949H13.6465L14.6498 18.2321L15.8076 19.9949L16.3479 19.0752L17.0426 19.9949H18.6634L19.3581 19.0752L19.8212 19.9949L20.979 18.1555L19.8212 16.1628L18.895 14.8599H17.7373L18.6634 16.1628H17.0426L17.7373 14.8599H16.5794L15.8076 16.1628L14.9586 14.8599H16.5794L17.8916 13.0205L18.895 14.8599H20.8246L19.8212 16.1628H21.9052L20.979 18.1555L21.9052 19.9949H19.8212L20.8246 21.681H18.895L19.8212 19.9949H18.6634L17.8916 21.681L17.0426 19.9949H15.8076L16.811 21.681H14.9586Z" fill="#FF0B04"/>
<path d="M15.8076 19.9949L14.9586 21.681H16.811L15.8076 19.9949ZM15.8076 19.9949H13.6465L14.6498 18.2321L15.8076 19.9949ZM15.8076 19.9949H17.0426M15.8076 19.9949L16.3479 19.0752L17.0426 19.9949M17.0426 19.9949H18.6634M17.0426 19.9949L17.8916 21.681L18.6634 19.9949M16.5794 14.8599L15.8076 16.1628L14.9586 14.8599H16.5794ZM16.5794 14.8599L17.8916 13.0205L18.895 14.8599M16.5794 14.8599H17.7373M18.895 14.8599H20.8246L19.8212 16.1628M18.895 14.8599L19.8212 16.1628M18.895 14.8599H17.7373M17.7373 14.8599L17.0426 16.1628H18.6634L17.7373 14.8599ZM19.8212 16.1628L20.979 18.1555M19.8212 16.1628H21.9052L20.979 18.1555M20.979 18.1555L19.8212 19.9949M20.979 18.1555L21.9052 19.9949H19.8212M19.8212 19.9949L18.895 21.681H20.8246L19.8212 19.9949ZM19.8212 19.9949L19.3581 19.0752L18.6634 19.9949M19.8212 19.9949H18.6634" stroke="#9B3D31"/>
<path d="M16.9651 16.2393L16.4248 17.0824H17.4283L17.8142 16.2393L18.2773 17.0824H19.2034L18.6632 16.2393H19.821L19.2034 17.0824H20.284L19.821 18.0021L19.2034 17.0824L18.6632 17.8488L18.2773 17.0824H17.4283L16.9651 17.8488L16.4248 17.0824L15.8224 17.8301L15.3442 17.0824H16.4248L15.8073 16.2393H16.9651Z" fill="#FF0B04"/>
<path d="M16.4248 17.0824L16.9651 16.2393H15.8073L16.4248 17.0824ZM16.4248 17.0824H17.4283M16.4248 17.0824L16.9651 17.8488L17.4283 17.0824M16.4248 17.0824L15.8224 17.8301M16.4248 17.0824H15.3442L15.8224 17.8301M17.4283 17.0824H18.2773M17.4283 17.0824L17.8142 16.2393L18.2773 17.0824M15.8224 17.8301L15.8073 17.8488M19.2034 17.0824L19.821 16.2393H18.6632L19.2034 17.0824ZM19.2034 17.0824L19.821 18.0021L20.284 17.0824H19.2034ZM19.2034 17.0824L18.6632 17.8488L18.2773 17.0824M19.2034 17.0824H18.2773" stroke="#9B3D31"/>
<path d="M16.2705 18.9987H15.2671L15.8075 18.0024L16.2705 18.9987Z" fill="#FF0B04"/>
<path d="M18.6633 18.9985H16.9653L17.8915 19.9949L18.6633 18.9985Z" fill="#FF0B04"/>
<path d="M16.2705 18.9987H15.2671L15.8075 18.0024L16.2705 18.9987Z" stroke="#9B3D31"/>
<path d="M18.6633 18.9985H16.9653L17.8915 19.9949L18.6633 18.9985Z" stroke="#9B3D31"/>
<path d="M20.3612 18.9221H19.3578H18.6631L19.049 18.5388L19.3578 18.9221L19.8208 18.0024L20.3612 18.9221Z" fill="#FF0B04"/>
<path d="M19.3579 18.9221H20.3613L19.8209 18.0024L19.3579 18.9221ZM19.3579 18.9221L19.0491 18.5388L18.6632 18.9221H19.3579ZM16.3477 18.9221H16.8107" stroke="#9B3D31"/>
<path d="M16.8881 18.9217H16.425L16.5794 18.5385L15.8848 17.9253H17.0425H18.5862H19.744L19.0493 18.5385L18.5862 17.9253L17.8915 18.9217L17.0425 17.9253L16.5794 18.5385L16.8881 18.9217Z" fill="#FF0B04"/>
<path d="M16.5794 18.5385L16.8881 18.9217H16.425L16.5794 18.5385ZM16.5794 18.5385L17.0425 17.9253M16.5794 18.5385L15.8848 17.9253H17.0425M17.0425 17.9253H18.5862M17.0425 17.9253L17.8915 18.9217L18.5862 17.9253M18.5862 17.9253H19.744L19.0493 18.5385L18.5862 17.9253Z" stroke="#9B3D31"/>
<path d="M14.8652 21.6733L15.832 19.9936L16.7987 21.6733H18.9738L19.8197 19.9936L21.0281 18.0737L19.8197 16.1538L18.9284 14.8339H16.557L15.832 16.1538L15.1069 14.8339H16.557L17.8862 13.0342L18.9284 14.8339H20.7864L19.8197 16.1538H21.874L21.0281 18.0737L21.9947 20.1136L19.8197 19.9936L20.7864 21.6733H18.9738L17.8862 23.3532L16.7987 21.6733H14.8652Z" fill="#FF0B04"/>
<path d="M15.832 16.2739L14.6236 18.0738L13.5361 16.2739H15.832Z" fill="#FF0B04"/>
<path d="M16.7987 21.6733L15.832 19.9936L14.8653 21.6733H16.7987ZM16.7987 21.6733H18.9738M16.7987 21.6733L17.8863 23.3532L18.9738 21.6733M18.9738 21.6733H20.7864L19.8197 19.9936M18.9738 21.6733L19.8197 19.9936M19.8197 19.9936L21.0281 18.0737M19.8197 19.9936L21.9947 20.1136L21.0281 18.0737M21.0281 18.0737L21.8739 16.1538H19.8197M21.0281 18.0737L19.8197 16.1538M19.8197 16.1538L20.7864 14.8339H18.9285M19.8197 16.1538L18.9285 14.8339M18.9285 14.8339H16.557M18.9285 14.8339L17.8863 13.0342L16.557 14.8339M16.557 14.8339L15.832 16.1538L15.1069 14.8339H16.557ZM14.6236 18.0737L15.832 16.2738H13.5361L14.6236 18.0737Z" stroke="#9B3D31"/>
<path d="M14.6236 18.1938L13.5361 19.9937H15.832L14.6236 18.1938Z" fill="#FF0B04" stroke="#9B3D31"/>
<path d="M21.9339 1.90723H15.02V3.81451H21.9339V1.90723Z" fill="#921F26"/>
<path d="M33.7659 21.8147L33.7705 14.3647L32.1292 14.3637L32.1246 21.8136L33.7659 21.8147Z" fill="#2F4A91"/>
<path d="M3.78722 21.9942L3.79199 14.2871L2.15072 14.2861L2.14594 21.9932L3.78722 21.9942Z" fill="#FB7804"/>
<path d="M21.6952 32.1855H14.7812V34.0928H21.6952V32.1855Z" fill="#2B4915"/>
<path d="M9.89412 10.7286L5.24512 5.24512H30.9934L25.51 10.6094C20.9802 6.07956 14.2171 6.79145 9.89412 10.7286Z" fill="#921F26"/>
<path d="M25.8675 25.2715L30.9933 30.8534H4.7915L10.265 25.7263C14.8031 30.038 21.6953 29.4436 25.8675 25.2715Z" fill="#2B4915"/>
<path d="M25.5098 10.6094L30.9932 5.24512V30.8743L25.8674 25.2716C29.013 21.7105 29.8011 15.1392 25.5098 10.6094Z" fill="#2F4A91"/>
<path d="M10.4276 25.8677L5.12598 30.8743L5.24516 5.24512L10.0134 10.6094C5.84119 14.7816 5.84119 21.5762 10.4276 25.8677Z" fill="#FB7804"/>
<path d="M3.93388 22.4106H2.50342V33.6159H14.3047V32.0663H3.93388V22.4106Z" fill="#2E265C"/>
<path d="M3.57636 22.4106H1.43066V23.6027H3.57636V22.4106Z" fill="#2E265C"/>
<path d="M4.05305 12.3975H1.66895V13.5895H4.05305V12.3975Z" fill="#2E265C"/>
<path d="M34.3311 12.3975H32.4238V13.5895H34.3311V12.3975Z" fill="#2E265C"/>
<path d="M13.3425 1.67371L13.3599 3.81934L14.5519 3.80967L14.5345 1.66405L13.3425 1.67371Z" fill="#2E265C"/>
<path d="M22.402 1.67371L22.4194 3.81934L23.6114 3.80967L23.5941 1.66405L22.402 1.67371Z" fill="#2E265C"/>
<path d="M4.05303 12.6359H2.62256V2.50342H14.0662V3.81467H4.05303V12.6359Z" fill="#2E265C"/>
<path d="M34.3311 22.4106H32.4238V23.6027H34.3311V22.4106Z" fill="#2E265C"/>
<path d="M14.514 34.3466L14.5713 32.2017L13.3797 32.1698L13.3224 34.3148L14.514 34.3466Z" fill="#2E265C"/>
<path d="M23.1678 34.3389L23.1401 32.1934L21.9482 32.2087L21.9758 34.3542L23.1678 34.3389Z" fill="#2E265C"/>
<path d="M22.4106 33.2582V32.3046H32.4239V23.4834H33.3776V33.2582H22.4106Z" fill="#2E265C"/>
<path d="M23.2451 3.69553V2.38428H33.616V12.5168H32.3048V3.69553H23.2451Z" fill="#2E265C"/>
<path d="M10.7192 9.92731C10.7558 9.94772 10.8125 10.0067 10.8125 10.0067L9.31349 11.2763C9.31349 11.2763 9.26046 11.2132 9.24673 11.1702C9.23318 11.1275 9.2478 11.0648 9.2478 11.0648L9.25309 11.0603C9.24956 11.0519 9.2453 11.0428 9.24084 11.0339L9.23851 11.0358C9.10699 11.0072 8.96665 10.9177 8.86968 10.785C8.77271 10.6523 8.75706 10.4487 8.73633 10.2994L8.73071 10.2878C8.7224 10.2825 8.7267 10.2818 8.71917 10.2752C8.69748 10.2858 8.6394 10.2847 8.61848 10.2408C8.58918 10.1819 8.62377 10.1343 8.63919 10.1213L8.64691 10.1147L8.64143 10.1027L8.63258 10.0933C8.49026 9.61633 8.45119 9.32082 7.93619 8.62896C7.92512 8.62489 7.91406 8.62083 7.90343 8.61642C7.82397 8.6837 7.75847 8.73919 7.75521 8.74156C7.74389 8.74917 7.63319 8.76908 7.58157 8.69485C7.51651 8.60262 7.56711 8.5066 7.57704 8.49819C7.57937 8.49622 7.6062 8.4735 7.64466 8.44092L7.33566 8.03128C7.33566 8.03128 6.78927 7.87548 6.70087 7.84693C6.63708 7.82602 6.56496 7.79058 6.5178 7.73488C6.41077 7.60852 6.4241 7.42051 6.54793 7.31564C6.58375 7.2853 6.63951 7.23825 6.67533 7.20792C6.67533 7.20792 6.6408 7.16713 6.62781 7.15181C6.59695 7.11536 6.6009 7.06175 6.6365 7.03159C6.70603 6.97272 7.00896 6.71616 7.06653 6.66739C7.10193 6.63741 7.15535 6.64243 7.18622 6.67888C7.19929 6.6943 7.23374 6.73499 7.23374 6.73499C7.26967 6.70457 7.32505 6.65748 7.36086 6.62714C7.48481 6.52218 7.67225 6.53997 7.77936 6.66645C7.82634 6.72192 7.84993 6.79884 7.85973 6.86546C7.87333 6.95737 7.93218 7.50974 7.93218 7.50974L8.29063 7.89421C8.33046 7.86046 8.35761 7.83747 8.35983 7.83559C8.36976 7.82718 8.47358 7.80258 8.55414 7.88205C8.61867 7.94497 8.5802 8.04159 8.57094 8.05144C8.56827 8.05407 8.50297 8.10937 8.42257 8.17747C8.43528 8.19483 8.44668 8.21601 8.45624 8.24166C9.03512 8.83626 9.34055 8.90636 9.78027 9.122L9.78632 9.12851L9.79649 9.14094C9.80347 9.13503 9.8079 9.13126 9.80917 9.1302C9.8246 9.11713 9.87756 9.09097 9.93047 9.12944C9.97383 9.15966 9.96061 9.22439 9.94466 9.23898L9.94322 9.25399C9.95052 9.26088 9.95694 9.25689 9.96457 9.26676C10.1246 9.31372 10.3075 9.39383 10.4215 9.51231C10.5272 9.62306 10.575 9.7448 10.5855 9.87163C10.5992 9.88346 10.6104 9.89559 10.6194 9.90715C10.6347 9.90782 10.6879 9.91027 10.7192 9.92731ZM6.4928 6.82035C6.50047 6.71243 6.54678 6.62893 6.59661 6.63336C6.64629 6.63846 6.6803 6.7296 6.67237 6.8372C6.67118 6.8538 6.66885 6.87012 6.66585 6.885C6.72699 6.87621 6.78631 6.85047 6.83628 6.80815C6.88585 6.76598 6.92042 6.71275 6.94002 6.65533C6.92336 6.65601 6.90629 6.65578 6.88877 6.65374C6.78105 6.64353 6.69692 6.5954 6.70027 6.54558C6.7037 6.49585 6.79399 6.46384 6.9017 6.47404C6.91935 6.4756 6.93621 6.47838 6.95232 6.48198C6.94154 6.42126 6.91497 6.36247 6.87211 6.31185C6.8288 6.26071 6.77433 6.22447 6.7154 6.20417C6.7161 6.21827 6.71591 6.23367 6.71454 6.24898C6.70695 6.35701 6.66044 6.44049 6.61083 6.43569C6.56141 6.43111 6.5273 6.34005 6.53497 6.23214C6.5361 6.2174 6.53786 6.20319 6.54037 6.18945C6.4814 6.19931 6.42488 6.22448 6.3765 6.26547C6.32821 6.30637 6.29425 6.35817 6.27475 6.41442C6.29033 6.41374 6.30698 6.41434 6.32345 6.416C6.43113 6.4264 6.51555 6.47466 6.51193 6.52436C6.50832 6.57387 6.41832 6.60601 6.31079 6.59601C6.29306 6.59415 6.27618 6.59157 6.26025 6.58819C6.27067 6.64976 6.29741 6.71004 6.34125 6.76182C6.38295 6.81105 6.43541 6.84663 6.49173 6.86751C6.49145 6.85216 6.49137 6.83645 6.4928 6.82035Z" fill="#DBC6B5"/>
<path d="M26.3866 11.1703C26.3692 11.2083 26.315 11.2696 26.315 11.2696L24.9287 9.87789C24.9287 9.87789 24.9873 9.81995 25.029 9.8028C25.0706 9.78585 25.1342 9.79538 25.1342 9.79538L25.1391 9.80027C25.1472 9.79608 25.1559 9.7911 25.1644 9.78593L25.1624 9.78377C25.1802 9.65037 25.2581 9.50326 25.3826 9.39591C25.507 9.28855 25.7087 9.25654 25.8558 9.22384L25.867 9.2173C25.8716 9.2086 25.8726 9.21281 25.8785 9.2048C25.8663 9.18401 25.8627 9.12604 25.9048 9.10166C25.9611 9.0677 26.0114 9.09833 26.0256 9.11266L26.0327 9.11982L26.0442 9.11338L26.0529 9.1038C26.5169 8.92349 26.8083 8.86072 27.4563 8.29158C27.4595 8.28023 27.4626 8.26888 27.4662 8.25792C27.3927 8.18416 27.3321 8.12333 27.3294 8.1203C27.321 8.1096 27.2922 8.00087 27.3621 7.94344C27.4487 7.87116 27.5486 7.91385 27.5577 7.92308C27.5598 7.92522 27.5847 7.95015 27.6202 7.98585L28.0036 7.64482C28.0036 7.64482 28.1148 7.08766 28.1362 6.99723C28.1519 6.93196 28.1814 6.85721 28.2332 6.80572C28.3504 6.68885 28.5389 6.68697 28.6534 6.80194C28.6865 6.8352 28.738 6.887 28.7711 6.92025C28.7711 6.92025 28.8089 6.88253 28.8232 6.86836C28.857 6.83465 28.9108 6.83427 28.9437 6.86733C29.008 6.93187 29.2881 7.21312 29.3414 7.26658C29.3741 7.29945 29.3734 7.3531 29.3396 7.38681C29.3253 7.40108 29.2875 7.4387 29.2875 7.4387C29.3207 7.47206 29.3721 7.52345 29.4052 7.5567C29.5198 7.67177 29.5173 7.86005 29.3998 7.977C29.3483 8.0283 29.2736 8.05803 29.2079 8.07317C29.1174 8.09414 28.5716 8.19733 28.5716 8.19733L28.2173 8.58562C28.2542 8.6226 28.2792 8.64782 28.2813 8.64988C28.2905 8.6591 28.3234 8.76059 28.2507 8.84729C28.1931 8.91669 28.0937 8.88615 28.0832 8.87771C28.0803 8.87525 28.0199 8.81463 27.9455 8.73998C27.9293 8.75404 27.9092 8.76712 27.8843 8.77872C27.3383 9.40366 27.2931 9.71374 27.1136 10.1694L27.1076 10.176L27.096 10.1871C27.1025 10.1936 27.1066 10.1977 27.1078 10.1989C27.1221 10.2132 27.1524 10.2639 27.1184 10.3197C27.0917 10.3654 27.0261 10.3574 27.0102 10.3427L26.9952 10.3425C26.9889 10.3503 26.9934 10.3564 26.9842 10.3648C26.9502 10.5281 26.8852 10.7169 26.7762 10.84C26.6745 10.9544 26.5569 11.0118 26.4314 11.0325C26.4207 11.0471 26.4095 11.0592 26.3987 11.0692C26.3992 11.0844 26.4011 11.1377 26.3866 11.1703ZM29.1426 6.70706C29.2509 6.70599 29.3378 6.74542 29.3374 6.79545C29.3363 6.84538 29.2482 6.88662 29.1404 6.88739C29.1237 6.88756 29.1072 6.88654 29.0921 6.88475C29.1058 6.94499 29.1363 7.00203 29.1825 7.04843C29.2286 7.09444 29.2844 7.12461 29.3432 7.13951C29.3411 7.12295 29.34 7.10592 29.3406 7.08829C29.3421 6.98011 29.3834 6.89237 29.4333 6.89169C29.4831 6.8911 29.5223 6.97851 29.5208 7.08669C29.5206 7.10441 29.5193 7.12145 29.517 7.1378C29.5767 7.12215 29.6331 7.09092 29.6801 7.04412C29.7275 6.99683 29.7593 6.93961 29.7748 6.87924C29.7608 6.88107 29.7454 6.88212 29.73 6.88199C29.6218 6.88314 29.5348 6.84352 29.5355 6.79368C29.5361 6.74405 29.6242 6.70271 29.7323 6.70165C29.7471 6.70158 29.7615 6.70219 29.7753 6.7036C29.7608 6.6456 29.7311 6.5913 29.6864 6.54637C29.6417 6.50154 29.5874 6.47188 29.5296 6.45698C29.5316 6.47246 29.5324 6.4891 29.532 6.50565C29.5304 6.61383 29.4891 6.70186 29.4392 6.70225C29.3896 6.70264 29.3502 6.61553 29.3516 6.50754C29.352 6.48972 29.3532 6.47268 29.3553 6.45654C29.2948 6.47189 29.2368 6.5034 29.1887 6.55128C29.1431 6.59681 29.1118 6.65198 29.0956 6.7098C29.1108 6.70827 29.1264 6.70692 29.1426 6.70706Z" fill="#DBC6B5"/>
<path d="M24.9993 26.1012C24.9625 26.0814 24.9048 26.0233 24.9048 26.0233L26.382 24.7285C26.382 24.7285 26.4361 24.7907 26.4505 24.8335C26.4648 24.876 26.4512 24.9389 26.4512 24.9389L26.4461 24.9434C26.4497 24.9518 26.4541 24.9608 26.4588 24.9697L26.4611 24.9677C26.5931 24.9941 26.7349 25.0812 26.834 25.2122C26.9333 25.3433 26.9523 25.5466 26.9756 25.6955L26.9815 25.707C26.9899 25.7122 26.9856 25.713 26.9933 25.7194C27.0147 25.7084 27.0728 25.7086 27.0944 25.7521C27.1248 25.8104 27.0909 25.8587 27.0758 25.872L27.0681 25.8786L27.0739 25.8906L27.0829 25.8998C27.2333 26.3743 27.2774 26.669 27.8041 27.3521C27.8151 27.356 27.8263 27.3599 27.837 27.3641C27.9153 27.2954 27.9799 27.2389 27.983 27.2364C27.9943 27.2286 28.1046 27.2069 28.1575 27.2802C28.2241 27.3713 28.1751 27.4681 28.1653 27.4768C28.163 27.4788 28.1366 27.502 28.0987 27.5352L28.4147 27.9395C28.4147 27.9395 28.9635 28.086 29.0525 28.113C29.1167 28.1329 29.1893 28.1671 29.2374 28.222C29.3466 28.3465 29.3365 28.5347 29.2145 28.6417C29.1791 28.6726 29.1241 28.7206 29.0888 28.7515C29.0888 28.7515 29.1241 28.7917 29.1373 28.8068C29.1687 28.8427 29.1657 28.8964 29.1307 28.9272C29.0622 28.9872 28.7636 29.2489 28.7069 29.2986C28.6721 29.3292 28.6185 29.3251 28.587 29.2891C28.5737 29.274 28.5385 29.2339 28.5385 29.2339C28.5031 29.2649 28.4486 29.3129 28.4133 29.3438C28.2912 29.4509 28.1034 29.4364 27.9942 29.3117C27.9463 29.257 27.9213 29.1805 27.9104 29.114C27.8953 29.0224 27.827 28.4711 27.827 28.4711L27.4621 28.0927C27.4229 28.1272 27.3961 28.1507 27.3939 28.1526C27.3841 28.1611 27.2808 28.1875 27.1988 28.1094C27.1333 28.0476 27.1701 27.9503 27.1791 27.9403C27.1818 27.9377 27.2462 27.8813 27.3254 27.8118C27.3125 27.7946 27.3006 27.7736 27.2906 27.7482C26.7018 27.1636 26.3952 27.0986 25.9519 26.8904L25.9457 26.8841L25.9353 26.8718C25.9285 26.8778 25.9241 26.8817 25.9229 26.8828C25.9076 26.8961 25.8551 26.9231 25.8015 26.8855C25.7576 26.8561 25.7697 26.7912 25.7855 26.7763L25.7867 26.7612C25.7792 26.7545 25.773 26.7586 25.7652 26.7488C25.6043 26.7046 25.4201 26.6276 25.3041 26.5111C25.1965 26.4022 25.1467 26.2812 25.134 26.1546C25.1202 26.143 25.1088 26.1311 25.0995 26.1197C25.0842 26.1193 25.0309 26.1178 24.9993 26.1012ZM29.2779 29.1359C29.2721 29.244 29.2272 29.3282 29.1773 29.3246C29.1276 29.3204 29.0921 29.2298 29.0981 29.1222C29.099 29.1055 29.1011 29.0892 29.1038 29.0742C29.0429 29.084 28.9839 29.1108 28.9347 29.154C28.8859 29.197 28.8522 29.2508 28.8336 29.3086C28.8503 29.3076 28.8673 29.3075 28.8848 29.3093C28.9927 29.3177 29.0777 29.3644 29.0751 29.4142C29.0726 29.464 28.9829 29.4976 28.875 29.4892C28.8573 29.4878 28.8404 29.4854 28.8242 29.4821C28.8361 29.5426 28.8636 29.6009 28.9074 29.6508C28.9515 29.7012 29.0066 29.7365 29.0658 29.7558C29.0649 29.7418 29.0648 29.7263 29.0659 29.711C29.0717 29.6028 29.1168 29.5186 29.1665 29.5225C29.2159 29.5262 29.2517 29.6167 29.2458 29.7248C29.2449 29.7396 29.2434 29.7538 29.2411 29.7676C29.2999 29.7568 29.3559 29.7306 29.4037 29.6887C29.4512 29.6471 29.4843 29.5946 29.5028 29.5381C29.4873 29.5391 29.4707 29.5387 29.4541 29.5374C29.3463 29.5288 29.261 29.482 29.2639 29.4322C29.2667 29.3826 29.3561 29.349 29.4637 29.3572C29.4815 29.3587 29.4984 29.361 29.5145 29.3641C29.5029 29.3027 29.4752 29.2429 29.4305 29.1919C29.388 29.1433 29.3348 29.1086 29.2782 29.0887C29.2788 29.1041 29.2791 29.1198 29.2779 29.1359Z" fill="#DBC6B5"/>
<path d="M9.85558 25.3329C9.8739 25.2954 9.9296 25.2354 9.9296 25.2354L11.2823 26.6598C11.2823 26.6598 11.2223 26.7163 11.1802 26.7324C11.1383 26.7483 11.0749 26.7373 11.0749 26.7373L11.0701 26.7324C11.0619 26.7363 11.0531 26.7411 11.0444 26.746L11.0465 26.7482C11.0253 26.8812 10.944 27.0264 10.817 27.1308C10.6901 27.2352 10.4877 27.2623 10.3398 27.2914L10.3285 27.2978C10.3237 27.3063 10.3227 27.3021 10.3167 27.3099C10.3285 27.331 10.3307 27.3891 10.288 27.4125C10.2309 27.445 10.1814 27.4132 10.1675 27.3986L10.1605 27.3913L10.1488 27.3974L10.1399 27.4068C9.67182 27.576 9.379 27.6318 8.71754 28.1853C8.71411 28.1966 8.71069 28.2079 8.70688 28.2187C8.77858 28.2942 8.8377 28.3564 8.84026 28.3596C8.8485 28.3705 8.87467 28.4798 8.8035 28.5356C8.7151 28.6058 8.61637 28.5607 8.6074 28.5513C8.6053 28.549 8.58109 28.5236 8.54638 28.487L8.15497 28.8188C8.15497 28.8188 8.03048 29.3732 8.007 29.4631C7.98975 29.528 7.95846 29.6019 7.90555 29.6522C7.78548 29.7662 7.597 29.7637 7.48526 29.646C7.45294 29.6119 7.4028 29.559 7.37047 29.5249C7.37047 29.5249 7.33172 29.5617 7.31715 29.5755C7.28252 29.6084 7.22877 29.6076 7.19665 29.5737C7.1339 29.5076 6.86055 29.2197 6.80858 29.165C6.77665 29.1314 6.77862 29.0778 6.81326 29.0449C6.82791 29.031 6.86656 28.9942 6.86656 28.9942C6.83415 28.9602 6.78399 28.9075 6.75166 28.8735C6.63982 28.7557 6.64694 28.5675 6.76712 28.4534C6.81984 28.4034 6.89528 28.3754 6.96124 28.3618C7.05223 28.3431 7.60036 28.2529 7.60036 28.2529L7.96383 27.8732C7.92788 27.8353 7.90338 27.8095 7.90138 27.8074C7.89242 27.798 7.86195 27.6957 7.93672 27.6108C7.99587 27.5428 8.09452 27.5757 8.10488 27.5844C8.10765 27.5869 8.16657 27.6489 8.23914 27.7254C8.25574 27.7117 8.27624 27.6991 8.30131 27.688C8.86203 27.0764 8.91468 26.7674 9.10496 26.3162L9.1111 26.3097L9.12294 26.2989C9.11665 26.2923 9.11264 26.288 9.1115 26.2868C9.09758 26.2722 9.06844 26.2208 9.10386 26.1658C9.13155 26.1207 9.19693 26.1303 9.21241 26.1453L9.22747 26.1459C9.23394 26.1382 9.22959 26.1321 9.23901 26.124C9.2768 25.9615 9.34638 25.7743 9.45819 25.6538C9.56275 25.542 9.68158 25.4872 9.8076 25.4696C9.81864 25.4553 9.83011 25.4434 9.84114 25.4337C9.84094 25.4185 9.84036 25.3652 9.85558 25.3329ZM6.99391 29.7291C6.88573 29.7277 6.79974 29.6862 6.80132 29.6361C6.80359 29.5862 6.89264 29.5471 7.00052 29.5489C7.01716 29.5491 7.03358 29.5506 7.04862 29.5527C7.03636 29.4921 7.0073 29.4344 6.9622 29.3869C6.91729 29.3398 6.86218 29.3083 6.80373 29.2921C6.80536 29.3086 6.8061 29.3257 6.80506 29.3433C6.801 29.4514 6.75771 29.5382 6.70778 29.5376C6.65794 29.537 6.62085 29.4487 6.62492 29.3406C6.62547 29.3229 6.62728 29.3059 6.62996 29.2896C6.56995 29.3038 6.51277 29.3337 6.46467 29.3793C6.41608 29.4255 6.38299 29.4819 6.36606 29.5419C6.38011 29.5405 6.3955 29.5398 6.41086 29.5402C6.51914 29.5417 6.60513 29.5833 6.60316 29.6331C6.6014 29.6828 6.51243 29.722 6.40425 29.7205C6.38947 29.7202 6.37519 29.7193 6.36133 29.7175C6.37452 29.7758 6.40287 29.8309 6.44654 29.8768C6.49011 29.9227 6.54376 29.9536 6.60103 29.97C6.59947 29.9544 6.59912 29.9378 6.59984 29.9212C6.6041 29.8131 6.64748 29.7261 6.69732 29.7268C6.74695 29.7277 6.78415 29.8156 6.78028 29.9236C6.77943 29.9414 6.77781 29.9584 6.77534 29.9745C6.83623 29.9606 6.89488 29.9305 6.94408 29.8838C6.99087 29.8394 7.02342 29.7849 7.04106 29.7276C7.02576 29.7286 7.01006 29.7297 6.99391 29.7291Z" fill="#DBC6B5"/>
<path d="M20.2233 6.5302L16.7839 6.43764C16.7839 6.43764 16.8735 5.3786 16.5601 4.61746L16.6358 4.55952L17.327 5.15472L17.6186 4.19972L17.8387 4.15283L18.5445 4.96462L19.2928 4.19196L19.5101 4.25062L19.75 5.21993L20.4722 4.66276L20.5447 4.72469C20.1907 5.46788 20.2233 6.5302 20.2233 6.5302ZM19.613 5.54044C19.4954 5.53727 19.3975 5.63007 19.3942 5.74769C19.3911 5.86532 19.4839 5.96324 19.6015 5.96639C19.7192 5.96956 19.8171 5.87678 19.8202 5.75915C19.8233 5.64153 19.7306 5.54361 19.613 5.54044ZM17.4465 5.48214C17.3289 5.47898 17.231 5.57176 17.2279 5.68938C17.2246 5.80701 17.3175 5.90493 17.4351 5.9081C17.5527 5.91126 17.6506 5.81848 17.6537 5.70084C17.657 5.58322 17.5642 5.4853 17.4465 5.48214ZM18.5362 5.27L18.2162 5.71599L18.5119 6.17854L18.8319 5.73255L18.5362 5.27Z" fill="#E9C19E"/>
<path d="M18.978 4.36793L18.7343 3.51153L18.433 3.50342L18.1436 4.34548L18.5486 4.81126L18.978 4.36793Z" fill="#E9C19E"/>
<path d="M18.6014 2.86194C18.4099 2.85678 18.2504 3.00789 18.2452 3.19943C18.2401 3.39096 18.3913 3.55042 18.5828 3.55558C18.7743 3.56074 18.9338 3.40964 18.939 3.21809C18.9441 3.02655 18.7929 2.86709 18.6014 2.86194Z" fill="#E9C19E"/>
<path d="M17.6932 3.73739C17.5605 3.73382 17.45 3.83854 17.4464 3.9713C17.4429 4.10405 17.5475 4.21456 17.6803 4.21814C17.8131 4.22171 17.9236 4.11699 17.9271 3.98423C17.9307 3.85148 17.8261 3.74097 17.6932 3.73739Z" fill="#E9C19E"/>
<path d="M16.474 4.16806C16.3413 4.16448 16.2307 4.26921 16.2271 4.40196C16.2237 4.53472 16.3283 4.64523 16.4611 4.6488C16.5939 4.65238 16.7044 4.54765 16.708 4.4149C16.7115 4.28214 16.6068 4.17162 16.474 4.16806Z" fill="#E9C19E"/>
<path d="M19.4608 3.78476C19.3281 3.78119 19.2176 3.88592 19.214 4.01866C19.2104 4.15142 19.3151 4.26194 19.4478 4.26551C19.5807 4.26908 19.6912 4.16435 19.6947 4.0316C19.6983 3.89885 19.5935 3.78833 19.4608 3.78476Z" fill="#E9C19E"/>
<path d="M20.6546 4.28036C20.5219 4.27679 20.4114 4.38151 20.4078 4.51427C20.4043 4.64702 20.509 4.75753 20.6418 4.76111C20.7745 4.76468 20.885 4.65996 20.8886 4.5272C20.8921 4.39445 20.7875 4.28394 20.6546 4.28036Z" fill="#E9C19E"/>
<path d="M20.2216 6.63365L16.781 6.54106C16.7132 6.53924 16.6562 6.59322 16.6544 6.66102L16.6475 6.91472C16.6448 7.01762 16.7267 7.10408 16.8296 7.10685L20.1416 7.19597C20.2444 7.19874 20.3309 7.11682 20.3337 7.01391L20.3405 6.75917C20.3423 6.69194 20.2888 6.63545 20.2216 6.63365ZM18.5421 6.9225C18.5706 6.92328 18.5944 6.90071 18.5952 6.87212C18.596 6.84352 18.5734 6.81971 18.5448 6.81894L18.4444 6.81624C18.4158 6.81546 18.392 6.83804 18.3912 6.86663C18.3904 6.89523 18.413 6.91904 18.4416 6.9198L18.5421 6.9225ZM17.9693 6.9071C17.9979 6.90786 18.0218 6.8853 18.0225 6.85671C18.0232 6.82811 18.0006 6.8043 17.9721 6.80352L17.8716 6.80082C17.8431 6.80006 17.8192 6.82262 17.8185 6.85121C17.8178 6.87982 17.8403 6.90363 17.8689 6.9044L17.9693 6.9071ZM17.3966 6.89169C17.4251 6.89246 17.449 6.8699 17.4497 6.84129C17.4506 6.81269 17.428 6.78888 17.3993 6.78812L17.2989 6.78542C17.2703 6.78465 17.2466 6.80721 17.2457 6.8358C17.245 6.8644 17.2676 6.88821 17.2961 6.88898L17.3966 6.89169ZM19.0172 6.83165C18.9885 6.83088 18.9647 6.85344 18.9639 6.88204C18.9632 6.91064 18.9857 6.93444 19.0143 6.93522L19.1147 6.93792C19.1434 6.93869 19.1672 6.91613 19.1679 6.88754C19.1687 6.85893 19.1462 6.83512 19.1176 6.83435L19.0172 6.83165ZM19.5898 6.84706C19.5612 6.84629 19.5374 6.86885 19.5366 6.89745C19.5358 6.92606 19.5584 6.94986 19.587 6.95063L19.6875 6.95333C19.716 6.9541 19.7398 6.93154 19.7406 6.90294C19.7414 6.87435 19.7188 6.85054 19.6902 6.84977L19.5898 6.84706Z" fill="#E9C19E"/>
<path d="M16.0794 29.6787L19.5194 29.7458C19.5194 29.7458 19.4376 30.8054 19.7567 31.5643L19.6814 31.6227L18.9859 31.0327L18.7013 31.9898L18.4816 32.0383L17.7698 31.2317L17.0272 32.01L16.8095 31.953L16.5624 30.9854L15.8443 31.548L15.7715 31.4865C16.1198 30.7407 16.0794 29.6787 16.0794 29.6787ZM16.697 30.6639C16.8146 30.6662 16.912 30.5727 16.9142 30.455C16.9165 30.3374 16.823 30.2402 16.7053 30.2379C16.5877 30.2355 16.4905 30.3291 16.4882 30.4467C16.4858 30.5643 16.5794 30.6616 16.697 30.6639ZM18.8639 30.7062C18.9815 30.7084 19.0787 30.615 19.081 30.4972C19.0834 30.3796 18.9898 30.2824 18.8722 30.2802C18.7546 30.2778 18.6572 30.3714 18.655 30.489C18.6527 30.6066 18.7462 30.7039 18.8639 30.7062ZM17.7757 30.9264L18.0925 30.478L17.7935 30.0176L17.4767 30.466L17.7757 30.9264Z" fill="#E9C19E"/>
<path d="M17.3408 31.8318L17.5909 32.6863L17.8921 32.6922L18.1753 31.848L17.7669 31.3853L17.3408 31.8318Z" fill="#E9C19E"/>
<path d="M17.7288 33.3354C17.9203 33.3391 18.0787 33.1868 18.0825 32.9953C18.0862 32.8037 17.9339 32.6454 17.7424 32.6417C17.5507 32.6379 17.3925 32.7902 17.3887 32.9818C17.385 33.1733 17.5372 33.3317 17.7288 33.3354Z" fill="#E9C19E"/>
<path d="M18.6303 32.4531C18.763 32.4556 18.8728 32.3501 18.8753 32.2174C18.8779 32.0845 18.7723 31.9749 18.6396 31.9722C18.5069 31.9696 18.3971 32.0752 18.3946 32.2079C18.3919 32.3407 18.4974 32.4504 18.6303 32.4531Z" fill="#E9C19E"/>
<path d="M19.8462 32.0131C19.9789 32.0158 20.0887 31.9102 20.0912 31.7774C20.0939 31.6446 19.9883 31.5349 19.8556 31.5323C19.7227 31.5298 19.613 31.6352 19.6104 31.7681C19.6079 31.9008 19.7134 32.0106 19.8462 32.0131Z" fill="#E9C19E"/>
<path d="M16.8622 32.4184C16.995 32.4209 17.1047 32.3154 17.1074 32.1826C17.1099 32.0499 17.0044 31.9401 16.8716 31.9375C16.7388 31.9349 16.629 32.0405 16.6265 32.1732C16.6239 32.3061 16.7295 32.4157 16.8622 32.4184Z" fill="#E9C19E"/>
<path d="M15.6646 31.9316C15.7973 31.9342 15.9071 31.8286 15.9096 31.6959C15.9122 31.563 15.8066 31.4534 15.6739 31.4507C15.5411 31.4482 15.4314 31.5537 15.4288 31.6865C15.4262 31.8192 15.5317 31.929 15.6646 31.9316Z" fill="#E9C19E"/>
<path d="M16.0804 29.5752L19.5215 29.6422C19.5893 29.6436 19.6459 29.5892 19.6472 29.5213L19.6522 29.2676C19.6542 29.1646 19.5716 29.0788 19.4687 29.0768L16.1562 29.0122C16.0534 29.0102 15.9674 29.0928 15.9654 29.1957L15.9605 29.4505C15.9592 29.5178 16.0132 29.5738 16.0804 29.5752ZM17.7577 29.2738C17.729 29.2732 17.7054 29.296 17.7049 29.3246C17.7043 29.3533 17.7271 29.3769 17.7557 29.3774L17.8561 29.3794C17.8847 29.3799 17.9083 29.3572 17.9089 29.3286C17.9095 29.3 17.8867 29.2764 17.8582 29.2758L17.7577 29.2738ZM18.3305 29.285C18.3019 29.2845 18.2783 29.3072 18.2777 29.3358C18.2772 29.3644 18.2999 29.3881 18.3286 29.3886L18.429 29.3906C18.4576 29.3911 18.4812 29.3684 18.4818 29.3398C18.4823 29.3112 18.4596 29.2875 18.4309 29.2869L18.3305 29.285ZM18.9034 29.2962C18.8748 29.2957 18.8512 29.3184 18.8506 29.3469C18.85 29.3756 18.8728 29.3992 18.9013 29.3997L19.0018 29.4018C19.0304 29.4022 19.0541 29.3796 19.0546 29.351C19.0552 29.3223 19.0324 29.2987 19.0038 29.2982L18.9034 29.2962ZM17.2834 29.3683C17.3119 29.3688 17.3356 29.3461 17.3362 29.3174C17.3366 29.2888 17.314 29.2652 17.2853 29.2646L17.1848 29.2627C17.1563 29.2621 17.1326 29.2849 17.132 29.3134C17.1316 29.3421 17.1542 29.3658 17.1828 29.3662L17.2834 29.3683ZM16.7105 29.357C16.7392 29.3576 16.7628 29.3349 16.7633 29.3062C16.7639 29.2777 16.7411 29.254 16.7125 29.2534L16.6121 29.2515C16.5835 29.2509 16.5599 29.2737 16.5593 29.3023C16.5587 29.331 16.5815 29.3546 16.61 29.3551L16.7105 29.357Z" fill="#E9C19E"/>
<path d="M29.2738 19.8911L29.2578 16.4505C29.2578 16.4505 30.3192 16.5068 31.0701 16.1694L31.1304 16.2432L30.5573 16.9529L31.521 17.2143L31.5748 17.4328L30.7857 18.1637L31.5815 18.8874L31.5298 19.1064L30.5685 19.3768L31.1482 20.0811L31.0885 20.1554C30.3346 19.8251 29.2738 19.8911 29.2738 19.8911ZM30.2439 19.25C30.2433 19.1322 30.1475 19.0373 30.0298 19.0378C29.9121 19.0384 29.8171 19.1342 29.8177 19.2519C29.8182 19.3696 29.9141 19.4645 30.0317 19.4639C30.1494 19.4634 30.2443 19.3676 30.2439 19.25ZM30.2338 17.0828C30.2332 16.965 30.1374 16.8701 30.0197 16.8706C29.9021 16.8712 29.8072 16.9671 29.8077 17.0847C29.8083 17.2024 29.904 17.2973 30.0217 17.2967C30.1393 17.2962 30.2344 17.2004 30.2338 17.0828ZM30.4801 18.1652L30.0243 17.8594L29.5713 18.1694L30.0271 18.4752L30.4801 18.1652Z" fill="#E9C19E"/>
<path d="M31.3956 18.5784L32.2438 18.3078L32.2425 18.0065L31.3917 17.7437L30.939 18.1632L31.3956 18.5784Z" fill="#E9C19E"/>
<path d="M32.8896 18.1543C32.8888 17.9628 32.7327 17.8081 32.5412 17.8091C32.3495 17.8099 32.195 17.9659 32.1958 18.1576C32.1966 18.3492 32.3528 18.5038 32.5444 18.5029C32.7359 18.5021 32.8906 18.346 32.8896 18.1543Z" fill="#E9C19E"/>
<path d="M31.9857 17.274C31.9851 17.1412 31.877 17.0341 31.7442 17.0347C31.6114 17.0353 31.5043 17.1434 31.5049 17.2762C31.5055 17.409 31.6136 17.5161 31.7464 17.5155C31.8792 17.5149 31.9863 17.4068 31.9857 17.274Z" fill="#E9C19E"/>
<path d="M31.5171 16.0695C31.5165 15.9366 31.4084 15.8295 31.2755 15.8301C31.1427 15.8307 31.0355 15.9389 31.0361 16.0716C31.0369 16.2045 31.145 16.3116 31.2778 16.311C31.4105 16.3104 31.5177 16.2022 31.5171 16.0695Z" fill="#E9C19E"/>
<path d="M31.9941 19.0425C31.9935 18.9098 31.8853 18.8026 31.7526 18.8032C31.6197 18.8038 31.5126 18.9119 31.5132 19.0448C31.5138 19.1776 31.622 19.2848 31.7547 19.2841C31.8876 19.2835 31.9947 19.1753 31.9941 19.0425Z" fill="#E9C19E"/>
<path d="M31.5361 20.2516C31.5355 20.1188 31.4273 20.0116 31.2946 20.0122C31.1617 20.0128 31.0546 20.121 31.0552 20.2538C31.0558 20.3866 31.164 20.4938 31.2967 20.4932C31.4296 20.4926 31.5367 20.3843 31.5361 20.2516Z" fill="#E9C19E"/>
<path d="M29.1703 19.8932L29.1543 16.4514C29.154 16.3836 29.0983 16.3283 29.0304 16.3286L28.7767 16.3298C28.6737 16.3303 28.5899 16.4149 28.5903 16.5179L28.6057 19.8308C28.6062 19.9338 28.6908 20.0177 28.7937 20.0172L29.0486 20.016C29.1158 20.0156 29.1705 19.9605 29.1703 19.8932ZM28.8287 18.2235C28.8288 18.2522 28.8521 18.2753 28.8806 18.2751C28.9093 18.275 28.9323 18.2517 28.9322 18.2231L28.9317 18.1226C28.9316 18.0941 28.9083 18.0709 28.8797 18.071C28.8511 18.0711 28.8281 18.0945 28.8282 18.1231L28.8287 18.2235ZM28.8259 17.6507C28.8261 17.6792 28.8494 17.7024 28.878 17.7021C28.9067 17.702 28.9297 17.6787 28.9296 17.6502L28.9291 17.5496C28.929 17.5211 28.9057 17.498 28.877 17.4981C28.8485 17.4983 28.8253 17.5215 28.8255 17.5501L28.8259 17.6507ZM28.8233 17.0777C28.8234 17.1063 28.8468 17.1294 28.8753 17.1293C28.9039 17.1291 28.9271 17.1059 28.9269 17.0772L28.9265 16.9767C28.9263 16.9482 28.9031 16.925 28.8744 16.9251C28.8458 16.9253 28.8227 16.9487 28.8228 16.9772L28.8233 17.0777ZM28.9344 18.6955C28.9343 18.6669 28.911 18.6438 28.8824 18.644C28.8537 18.6441 28.8307 18.6674 28.8308 18.696L28.8313 18.7965C28.8314 18.8251 28.8547 18.8481 28.8833 18.848C28.9119 18.8479 28.935 18.8246 28.9349 18.7961L28.9344 18.6955ZM28.937 19.2684C28.9369 19.2398 28.9136 19.2168 28.8851 19.2169C28.8564 19.217 28.8333 19.2403 28.8335 19.2689L28.8339 19.3694C28.8341 19.398 28.8573 19.421 28.886 19.4209C28.9146 19.4208 28.9376 19.3975 28.9375 19.3689L28.937 19.2684Z" fill="#E9C19E"/>
<path d="M6.01238 16.3514L6.0398 19.792C6.0398 19.792 4.97828 19.7393 4.22853 20.0791L4.16798 20.0055L4.73872 19.2939L3.77413 19.0358L3.7196 18.8175L4.50628 18.0838L3.70801 17.3629L3.75904 17.1436L4.7194 16.8701L4.13739 16.1678L4.19676 16.0933C4.95183 16.421 6.01238 16.3514 6.01238 16.3514ZM5.0445 16.9959C5.04543 17.1135 5.14159 17.2082 5.25925 17.2072C5.37691 17.2063 5.47154 17.1101 5.47059 16.9925C5.46966 16.8748 5.37351 16.7803 5.25585 16.7811C5.13818 16.7821 5.04356 16.8782 5.0445 16.9959ZM5.06178 19.163C5.06271 19.2807 5.15886 19.3753 5.27652 19.3744C5.39419 19.3735 5.48881 19.2773 5.48787 19.1596C5.48694 19.042 5.39079 18.9473 5.27312 18.9483C5.15546 18.9493 5.06084 19.0454 5.06178 19.163ZM4.81177 18.0814L5.26864 18.3857L5.7206 18.0741L5.26374 17.7698L4.81177 18.0814Z" fill="#E9C19E"/>
<path d="M3.89523 17.6714L3.04785 17.9449L3.05025 18.2462L3.90189 18.5061L4.35327 18.0851L3.89523 17.6714Z" fill="#E9C19E"/>
<path d="M2.40284 18.1007C2.40438 18.2923 2.56094 18.4464 2.75255 18.4448C2.94415 18.4433 3.09824 18.2867 3.09672 18.0951C3.0952 17.9035 2.93862 17.7494 2.74702 17.751C2.55541 17.7524 2.40132 17.909 2.40284 18.1007Z" fill="#E9C19E"/>
<path d="M3.30958 18.9778C3.31063 19.1105 3.41915 19.2173 3.55194 19.2162C3.68475 19.2152 3.79155 19.1066 3.79048 18.9739C3.78942 18.8411 3.68091 18.7343 3.54811 18.7354C3.41531 18.7364 3.30852 18.8449 3.30958 18.9778Z" fill="#E9C19E"/>
<path d="M3.78223 20.1809C3.78329 20.3137 3.89179 20.4205 4.0246 20.4194C4.15739 20.4184 4.26419 20.3099 4.26313 20.177C4.26208 20.0443 4.15356 19.9375 4.02076 19.9385C3.88797 19.9396 3.78117 20.048 3.78223 20.1809Z" fill="#E9C19E"/>
<path d="M3.29542 17.2092C3.29647 17.342 3.40499 17.4488 3.53778 17.4478C3.67059 17.4467 3.77737 17.3382 3.77632 17.2054C3.77526 17.0725 3.66675 16.9657 3.53395 16.9668C3.40115 16.9679 3.29435 17.0764 3.29542 17.2092Z" fill="#E9C19E"/>
<path d="M3.74903 15.9988C3.75009 16.1316 3.8586 16.2384 3.9914 16.2373C4.1242 16.2362 4.231 16.1278 4.22993 15.9949C4.22888 15.8621 4.12036 15.7553 3.98757 15.7564C3.85476 15.7574 3.74798 15.8659 3.74903 15.9988Z" fill="#E9C19E"/>
<path d="M6.11573 16.3498L6.14316 19.7915C6.1437 19.8594 6.19964 19.9144 6.26748 19.9139L6.52124 19.9119C6.62418 19.911 6.70772 19.8262 6.70691 19.7232L6.68049 16.4103C6.67968 16.3073 6.59479 16.2238 6.49185 16.2246L6.23702 16.2265C6.16977 16.2271 6.1152 16.2826 6.11573 16.3498ZM6.46297 18.0183C6.46274 17.9897 6.43937 17.9667 6.41076 17.9669C6.38215 17.9671 6.35915 17.9905 6.35937 18.0191L6.36018 18.1195C6.36041 18.1482 6.38378 18.1711 6.41239 18.1709C6.441 18.1708 6.464 18.1474 6.46377 18.1187L6.46297 18.0183ZM6.46754 18.5911C6.46731 18.5626 6.44394 18.5395 6.41533 18.5398C6.38672 18.54 6.36372 18.5634 6.36395 18.592L6.36474 18.6925C6.36497 18.7211 6.38835 18.7441 6.41695 18.7439C6.44556 18.7437 6.46857 18.7203 6.46835 18.6917L6.46754 18.5911ZM6.47211 19.1641C6.47189 19.1355 6.4485 19.1125 6.41989 19.1128C6.39129 19.1129 6.36828 19.1363 6.36851 19.165L6.36931 19.2654C6.36954 19.294 6.39291 19.317 6.42152 19.3168C6.45013 19.3165 6.47313 19.2931 6.47291 19.2646L6.47211 19.1641ZM6.35561 17.5467C6.35583 17.5752 6.37921 17.5983 6.40782 17.598C6.43643 17.5978 6.45944 17.5744 6.45921 17.5458L6.45841 17.4454C6.45818 17.4167 6.43481 17.3938 6.4062 17.394C6.37759 17.3943 6.35457 17.4175 6.3548 17.4462L6.35561 17.5467ZM6.35105 16.9738C6.35127 17.0023 6.37465 17.0254 6.40326 17.0251C6.43187 17.0249 6.45487 17.0015 6.45464 16.9729L6.45384 16.8725C6.45361 16.8438 6.43023 16.8209 6.40163 16.8211C6.37302 16.8213 6.35001 16.8447 6.35024 16.8733L6.35105 16.9738Z" fill="#E9C19E"/>
</g>
</g>
<defs>
<linearGradient id="paint0_linear_66_1620" x1="0.953642" y1="12.5166" x2="40.2914" y2="23.4834" gradientUnits="userSpaceOnUse">
<stop stop-color="#FCDB67"/>
<stop offset="0.355957" stop-color="#CE4F22"/>
<stop offset="0.730965" stop-color="#FCDB67"/>
<stop offset="1" stop-color="#CE4F22"/>
</linearGradient>
<clipPath id="clip0_66_1620">
<rect width="36" height="36" fill="white"/>
</clipPath>
</defs>
</svg>
