<svg width="71" height="71" viewBox="0 0 71 71" fill="none" xmlns="http://www.w3.org/2000/svg">
<g clip-path="url(#clip0_66_1620)">
<mask id="mask0_66_1620" style="mask-type:luminance" maskUnits="userSpaceOnUse" x="0" y="0" width="71" height="71">
<path d="M71 0H0V71H71V0Z" fill="white"/>
</mask>
<g mask="url(#mask0_66_1620)">
<path d="M71 0H0V71H71V0Z" fill="url(#paint0_linear_66_1620)"/>
<path d="M68.412 2.5874H2.5874V68.412H68.412V2.5874Z" fill="white" stroke="#B02A1F" stroke-width="2"/>
<path d="M3.05615 27.0364V44.4338H7.75815V63.4769H28.447V67.9438H43.4933V63.4769H63.947V44.4338H67.7085V27.0364H63.947V7.52329H44.4336V2.82129H28.447V7.52329H7.75815V27.0364H3.05615Z" fill="#FED33E" stroke="#4F576A"/>
<path d="M61.4746 9.99561H9.99561V61.0044H61.4746V9.99561Z" fill="#D9D9D9" stroke="#C4251A" stroke-width="5"/>
<path d="M35.0298 56.8941C46.8454 56.8941 56.4238 47.4209 56.4238 35.7351C56.4238 24.0494 46.8454 14.5762 35.0298 14.5762C23.2142 14.5762 13.6357 24.0494 13.6357 35.7351C13.6357 47.4209 23.2142 56.8941 35.0298 56.8941Z" fill="#C62C17"/>
<path d="M35.0298 55.0133C45.8067 55.0133 54.5431 46.3822 54.5431 35.7352C54.5431 25.0882 45.8067 16.457 35.0298 16.457C24.253 16.457 15.5166 25.0882 15.5166 35.7352C15.5166 46.3822 24.253 55.0133 35.0298 55.0133Z" fill="white"/>
<path d="M35.265 52.8881C44.8733 52.8881 52.6624 45.1538 52.6624 35.613C52.6624 26.0722 44.8733 18.3379 35.265 18.3379C25.6567 18.3379 17.8677 26.0722 17.8677 35.613C17.8677 45.1538 25.6567 52.8881 35.265 52.8881Z" fill="#23321B"/>
<path d="M32.1775 25.4697L24.0747 35.6454L31.9391 46.2945L38.6122 46.0578L46.4766 35.8821L38.6122 25.4697H32.1775Z" fill="white"/>
<path d="M32.0891 25.3767L34.9814 21.4468L38.0259 25.3767H32.0891L29.5011 29.1416L26.6088 32.1788H31.0234L28.8922 35.8066L26.6088 32.1788L23.8689 35.8066L26.6088 39.4343H20.9766L23.8689 35.8066L21.4332 32.1788H26.6088L24.9344 29.1556L29.5011 29.1416L26.6088 25.3767H32.0891Z" fill="#FF0B04"/>
<path d="M38.4824 25.377L43.5059 25.8304L41.2322 29.1418L41.2427 29.1558H45.1803L43.5059 32.179H48.8337L46.3982 35.8069L43.5059 32.179L41.2427 29.1558H41.2225L41.2322 29.1418L38.4824 25.377Z" fill="#FF0B04"/>
<path d="M32.0891 25.3767L34.9814 21.4468L38.0259 25.3767H32.0891ZM32.0891 25.3767L29.5011 29.1416M32.0891 25.3767H26.6088L29.5011 29.1416M29.5011 29.1416L26.6088 32.1788M29.5011 29.1416L24.9344 29.1556L26.6088 32.1788M41.2322 29.1416L41.2225 29.1556H45.1803L43.5059 32.1788M41.2322 29.1416L43.5059 25.8302L38.4824 25.3767L41.2322 29.1416ZM41.2322 29.1416L43.5059 32.1788M43.5059 32.1788H48.8337L46.3982 35.8066L43.5059 32.1788ZM26.6088 32.1788L23.8689 35.8066M26.6088 32.1788H21.4332L23.8689 35.8066M26.6088 32.1788L28.8922 35.8066L31.0234 32.1788H26.6088ZM23.8689 35.8066L26.6088 39.4343H20.9766L23.8689 35.8066Z" stroke="#9B3D31"/>
<path d="M24.9346 42.7596L26.609 39.5854L29.3491 42.7596L31.9371 46.2362H35.2099L33.3069 42.7596H37.2649L35.2099 46.2362H38.4826L40.9183 42.7596L43.506 39.5854L46.2462 35.9575L49.1385 39.2832L43.506 39.5854L45.485 42.7596H40.9183L42.4406 46.2362H38.4826L35.2859 50.3175L31.9371 46.2362H27.6747L29.3491 42.7596H24.9346Z" fill="#FF0B04"/>
<path d="M29.3491 42.7596L26.609 39.5854L24.9346 42.7596H29.3491ZM29.3491 42.7596L31.9371 46.2362M29.3491 42.7596L27.6747 46.2362H31.9371M31.9371 46.2362L35.2859 50.3175L38.4826 46.2362M31.9371 46.2362H35.2099M38.4826 46.2362L40.9183 42.7596M38.4826 46.2362H42.4406L40.9183 42.7596M38.4826 46.2362H35.2099M35.2099 46.2362L37.2649 42.7596H33.3069L35.2099 46.2362ZM40.9183 42.7596L43.506 39.5854M40.9183 42.7596H45.485L43.506 39.5854M43.506 39.5854L49.1385 39.2832L46.2462 35.9575L43.506 39.5854Z" stroke="#9B3D31"/>
<path d="M29.5013 42.7597L31.1757 39.4343H26.9136L28.8923 35.9576L31.1757 39.4343L32.2414 37.6205L33.6115 39.4343H36.8081L38.1782 37.6205L39.0915 39.4343L41.3749 35.8066L39.0915 31.8766L37.2649 29.3068H34.9815L36.8081 31.8766H33.6115L34.9815 29.3068H32.6979L31.1757 31.8766L29.5013 29.3068H32.6979L35.2859 25.6792L37.2649 29.3068H41.0705L39.0915 31.8766H43.2017L41.3749 35.8066L43.2017 39.4343H39.0915L41.0705 42.7597H37.2649L39.0915 39.4343H36.8081L35.2859 42.7597L33.6115 39.4343H31.1757L33.1547 42.7597H29.5013Z" fill="#FF0B04"/>
<path d="M31.1757 39.4343L29.5013 42.7597H33.1547L31.1757 39.4343ZM31.1757 39.4343H26.9136L28.8923 35.9576L31.1757 39.4343ZM31.1757 39.4343H33.6115M31.1757 39.4343L32.2414 37.6205L33.6115 39.4343M33.6115 39.4343H36.8081M33.6115 39.4343L35.2859 42.7597L36.8081 39.4343M32.6979 29.3068L31.1757 31.8766L29.5013 29.3068H32.6979ZM32.6979 29.3068L35.2859 25.6792L37.2649 29.3068M32.6979 29.3068H34.9815M37.2649 29.3068H41.0705L39.0915 31.8766M37.2649 29.3068L39.0915 31.8766M37.2649 29.3068H34.9815M34.9815 29.3068L33.6115 31.8766H36.8081L34.9815 29.3068ZM39.0915 31.8766L41.3749 35.8066M39.0915 31.8766H43.2017L41.3749 35.8066M41.3749 35.8066L39.0915 39.4343M41.3749 35.8066L43.2017 39.4343H39.0915M39.0915 39.4343L37.2649 42.7597H41.0705L39.0915 39.4343ZM39.0915 39.4343L38.1782 37.6205L36.8081 39.4343M39.0915 39.4343H36.8081" stroke="#9B3D31"/>
<path d="M33.4589 32.0278L32.3934 33.6907H34.3724L35.1335 32.0278L36.0468 33.6907H37.8734L36.8079 32.0278H39.0913L37.8734 33.6907H40.0046L39.0913 35.5045L37.8734 33.6907L36.8079 35.2022L36.0468 33.6907H34.3724L33.4589 35.2022L32.3934 33.6907L31.2053 35.1653L30.2622 33.6907H32.3934L31.1755 32.0278H33.4589Z" fill="#FF0B04"/>
<path d="M32.3934 33.6907L33.4589 32.0278H31.1755L32.3934 33.6907ZM32.3934 33.6907H34.3724M32.3934 33.6907L33.4589 35.2022L34.3724 33.6907M32.3934 33.6907L31.2053 35.1653M32.3934 33.6907H30.2622L31.2053 35.1653M34.3724 33.6907H36.0468M34.3724 33.6907L35.1335 32.0278L36.0468 33.6907M31.2053 35.1653L31.1755 35.2022M37.8734 33.6907L39.0913 32.0278H36.8079L37.8734 33.6907ZM37.8734 33.6907L39.0913 35.5045L40.0046 33.6907H37.8734ZM37.8734 33.6907L36.8079 35.2022L36.0468 33.6907M37.8734 33.6907H36.0468" stroke="#9B3D31"/>
<path d="M32.0894 37.4692H30.1104L31.1761 35.5044L32.0894 37.4692Z" fill="#FF0B04"/>
<path d="M36.8078 37.4692H33.459L35.2856 39.4343L36.8078 37.4692Z" fill="#FF0B04"/>
<path d="M32.0894 37.4692H30.1104L31.1761 35.5044L32.0894 37.4692Z" stroke="#9B3D31"/>
<path d="M36.8078 37.4692H33.459L35.2856 39.4343L36.8078 37.4692Z" stroke="#9B3D31"/>
<path d="M40.1572 37.3182H38.1782H36.8081L37.5692 36.5623L38.1782 37.3182L39.0915 35.5044L40.1572 37.3182Z" fill="#FF0B04"/>
<path d="M38.178 37.3182H40.157L39.0913 35.5044L38.178 37.3182ZM38.178 37.3182L37.569 36.5623L36.8079 37.3182H38.178ZM32.2412 37.3182H33.1545" stroke="#9B3D31"/>
<path d="M33.3069 37.3181H32.3936L32.6982 36.5624L31.3281 35.353H33.6115H36.656H38.9393L37.5693 36.5624L36.656 35.353L35.2859 37.3181L33.6115 35.353L32.6982 36.5624L33.3069 37.3181Z" fill="#FF0B04"/>
<path d="M32.6982 36.5624L33.3069 37.3181H32.3936L32.6982 36.5624ZM32.6982 36.5624L33.6115 35.353M32.6982 36.5624L31.3281 35.353H33.6115M33.6115 35.353H36.656M33.6115 35.353L35.2859 37.3181L36.656 35.353M36.656 35.353H38.9393L37.5693 36.5624L36.656 35.353Z" stroke="#9B3D31"/>
<path d="M29.3179 42.7449L31.2245 39.432L33.131 42.7449H37.4209L39.0891 39.432L41.4724 35.6456L39.0891 31.8592L37.3314 29.2561H32.6544L31.2245 31.8592L29.7945 29.2561H32.6544L35.276 25.7065L37.3314 29.2561H40.9957L39.0891 31.8592H43.1406L41.4724 35.6456L43.3787 39.6687L39.0891 39.432L40.9957 42.7449H37.4209L35.276 46.058L33.131 42.7449H29.3179Z" fill="#FF0B04"/>
<path d="M31.2242 32.0957L28.841 35.6455L26.6963 32.0957H31.2242Z" fill="#FF0B04"/>
<path d="M33.1308 42.7449L31.2242 39.432L29.3176 42.7449H33.1308ZM33.1308 42.7449H37.4206M33.1308 42.7449L35.2757 46.058L37.4206 42.7449M37.4206 42.7449H40.9955L39.0889 39.432M37.4206 42.7449L39.0889 39.432M39.0889 39.432L41.4721 35.6456M39.0889 39.432L43.3784 39.6687L41.4721 35.6456M41.4721 35.6456L43.1401 31.8592H39.0889M41.4721 35.6456L39.0889 31.8592M39.0889 31.8592L40.9955 29.2561H37.3311M39.0889 31.8592L37.3311 29.2561M37.3311 29.2561H32.6541M37.3311 29.2561L35.2757 25.7065L32.6541 29.2561M32.6541 29.2561L31.2242 31.8592L29.7943 29.2561H32.6541ZM28.841 35.6456L31.2242 32.0958H26.6963L28.841 35.6456Z" stroke="#9B3D31"/>
<path d="M28.841 35.8823L26.6963 39.4321H31.2242L28.841 35.8823Z" fill="#FF0B04" stroke="#9B3D31"/>
<path d="M43.2583 3.76172H29.6226V7.5233H43.2583V3.76172Z" fill="#921F26"/>
<path d="M66.5934 43.0235L66.6025 28.3306L63.3656 28.3286L63.3565 43.0215L66.5934 43.0235Z" fill="#2F4A91"/>
<path d="M7.46861 43.3774L7.47803 28.1772L4.24107 28.1752L4.23165 43.3754L7.46861 43.3774Z" fill="#FB7804"/>
<path d="M42.7881 63.4771H29.1523V67.2386H42.7881V63.4771Z" fill="#2B4915"/>
<path d="M19.5131 21.1588L10.3442 10.3442H61.1257L50.3112 20.9237C41.3772 11.9899 28.039 13.3939 19.5131 21.1588Z" fill="#921F26"/>
<path d="M51.0167 49.8408L61.126 60.8496H9.4502L20.2451 50.7378C29.1954 59.2415 42.7883 58.0692 51.0167 49.8408Z" fill="#2B4915"/>
<path d="M50.3115 20.9237L61.126 10.3442V60.8907L51.0168 49.8409C57.2208 42.8176 58.775 29.8575 50.3115 20.9237Z" fill="#2F4A91"/>
<path d="M20.5653 51.0165L10.1094 60.8907L10.3444 10.3442L19.7484 20.9237C11.5199 29.1523 11.5199 42.5528 20.5653 51.0165Z" fill="#FB7804"/>
<path d="M7.7582 44.1987H4.93701V66.298H28.2118V63.2419H7.7582V44.1987Z" fill="#2E265C"/>
<path d="M7.05308 44.1987H2.82129V46.5497H7.05308V44.1987Z" fill="#2E265C"/>
<path d="M7.99348 24.4502H3.2915V26.8012H7.99348V24.4502Z" fill="#2E265C"/>
<path d="M67.7088 24.4502H63.9473V26.8012H67.7088V24.4502Z" fill="#2E265C"/>
<path d="M26.3138 3.30106L26.3481 7.53271L28.6991 7.51366L28.6648 3.28201L26.3138 3.30106Z" fill="#2E265C"/>
<path d="M44.1815 3.30106L44.2158 7.53271L46.5667 7.51366L46.5324 3.28201L44.1815 3.30106Z" fill="#2E265C"/>
<path d="M7.99357 24.9204H5.17236V4.93701H27.7418V7.52309H7.99357V24.9204Z" fill="#2E265C"/>
<path d="M67.7088 44.1987H63.9473V46.5497H67.7088V44.1987Z" fill="#2E265C"/>
<path d="M28.6253 67.7391L28.7383 63.5088L26.3881 63.446L26.2752 67.6763L28.6253 67.7391Z" fill="#2E265C"/>
<path d="M45.6922 67.7241L45.6377 63.4927L43.2869 63.5229L43.3414 67.7544L45.6922 67.7241Z" fill="#2E265C"/>
<path d="M44.1987 65.5926V63.7118H63.9471V46.3145H65.8279V65.5926H44.1987Z" fill="#2E265C"/>
<path d="M45.8442 7.28823V4.70215H66.2979V24.6857H63.7119V7.28823H45.8442Z" fill="#2E265C"/>
<path d="M21.1403 19.5789C21.2123 19.6192 21.3242 19.7356 21.3242 19.7356L18.3678 22.2394C18.3678 22.2394 18.2633 22.115 18.2362 22.0302C18.2095 21.9459 18.2383 21.8223 18.2383 21.8223L18.2487 21.8135C18.2418 21.7968 18.2334 21.7789 18.2246 21.7613L18.22 21.7652C17.9606 21.7086 17.6838 21.5322 17.4926 21.2705C17.3013 21.0088 17.2704 20.6073 17.2296 20.3127L17.2185 20.2899C17.2021 20.2794 17.2106 20.278 17.1957 20.2651C17.1529 20.286 17.0384 20.2838 16.9971 20.1971C16.9393 20.0811 17.0076 19.9872 17.038 19.9614L17.0532 19.9485L17.0424 19.9248L17.0249 19.9063C16.7443 18.9656 16.6672 18.3828 15.6515 17.0183C15.6297 17.0103 15.6079 17.0023 15.5869 16.9935C15.4302 17.1262 15.301 17.2357 15.2946 17.2404C15.2722 17.2554 15.0539 17.2946 14.9521 17.1482C14.8238 16.9663 14.9236 16.777 14.9432 16.7604C14.9478 16.7565 15.0007 16.7117 15.0765 16.6474L14.4671 15.8395C14.4671 15.8395 13.3895 15.5322 13.2152 15.4759C13.0894 15.4347 12.9471 15.3648 12.8541 15.255C12.643 15.0058 12.6693 14.6349 12.9136 14.4281C12.9842 14.3683 13.0942 14.2755 13.1648 14.2157C13.1648 14.2157 13.0967 14.1352 13.0711 14.105C13.0102 14.0331 13.018 13.9274 13.0882 13.8679C13.2254 13.7518 13.8228 13.2458 13.9364 13.1496C14.0062 13.0905 14.1115 13.1004 14.1724 13.1723C14.1982 13.2027 14.2661 13.2829 14.2661 13.2829C14.337 13.2229 14.4462 13.1301 14.5168 13.0702C14.7613 12.8632 15.131 12.8983 15.3422 13.1478C15.4349 13.2572 15.4814 13.4089 15.5007 13.5403C15.5275 13.7215 15.6436 14.8109 15.6436 14.8109L16.3505 15.5692C16.4291 15.5026 16.4827 15.4573 16.487 15.4536C16.5066 15.437 16.7114 15.3885 16.8702 15.5452C16.9975 15.6693 16.9216 15.8599 16.9034 15.8793C16.8981 15.8845 16.7693 15.9935 16.6108 16.1278C16.6358 16.1621 16.6583 16.2039 16.6772 16.2544C17.8188 17.4271 18.4212 17.5654 19.2885 17.9907L19.3004 18.0035L19.3204 18.028C19.3342 18.0164 19.3429 18.0089 19.3454 18.0068C19.3759 17.9811 19.4803 17.9295 19.5847 18.0053C19.6702 18.0649 19.6441 18.1926 19.6127 18.2214L19.6098 18.251C19.6242 18.2646 19.6369 18.2567 19.6519 18.2762C19.9676 18.3688 20.3283 18.5268 20.553 18.7605C20.7616 18.9789 20.8558 19.219 20.8766 19.4691C20.9035 19.4924 20.9256 19.5164 20.9434 19.5392C20.9735 19.5405 21.0786 19.5453 21.1403 19.5789ZM12.8048 13.4513C12.8199 13.2384 12.9113 13.0738 13.0096 13.0825C13.1075 13.0926 13.1746 13.2723 13.159 13.4845C13.1566 13.5173 13.152 13.5495 13.1461 13.5788C13.2667 13.5615 13.3837 13.5107 13.4822 13.4272C13.58 13.3441 13.6482 13.2391 13.6868 13.1258C13.654 13.1272 13.6203 13.1267 13.5858 13.1227C13.3733 13.1026 13.2074 13.0077 13.214 12.9094C13.2208 12.8113 13.3988 12.7482 13.6113 12.7683C13.6461 12.7714 13.6793 12.7769 13.7111 12.784C13.6898 12.6642 13.6374 12.5483 13.5529 12.4484C13.4675 12.3476 13.3601 12.2761 13.2438 12.236C13.2452 12.2639 13.2448 12.2942 13.2421 12.3244C13.2272 12.5375 13.1355 12.7021 13.0376 12.6927C12.9401 12.6836 12.8729 12.504 12.888 12.2912C12.8902 12.2622 12.8937 12.2341 12.8986 12.207C12.7823 12.2265 12.6709 12.2761 12.5754 12.357C12.4802 12.4376 12.4132 12.5398 12.3748 12.6507C12.4055 12.6494 12.4383 12.6506 12.4708 12.6538C12.6832 12.6744 12.8497 12.7695 12.8426 12.8675C12.8354 12.9652 12.6579 13.0286 12.4459 13.0089C12.4109 13.0052 12.3776 13.0001 12.3462 12.9934C12.3667 13.1149 12.4195 13.2337 12.5059 13.3359C12.5882 13.433 12.6916 13.5031 12.8027 13.5443C12.8022 13.514 12.802 13.483 12.8048 13.4513Z" fill="#DBC6B5"/>
<path d="M52.0408 22.0299C52.0065 22.105 51.8995 22.2258 51.8995 22.2258L49.1655 19.481C49.1655 19.481 49.281 19.3668 49.3634 19.333C49.4453 19.2995 49.5707 19.3183 49.5707 19.3183L49.5804 19.328C49.5965 19.3197 49.6135 19.3099 49.6303 19.2997L49.6263 19.2954C49.6616 19.0323 49.8152 18.7422 50.0606 18.5305C50.306 18.3188 50.7039 18.2556 50.994 18.1911L51.016 18.1782C51.025 18.1611 51.0271 18.1694 51.0387 18.1536C51.0146 18.1126 51.0075 17.9982 51.0906 17.9501C51.2016 17.8832 51.3007 17.9436 51.3289 17.9718L51.3429 17.986L51.3656 17.9733L51.3826 17.9544C52.2978 17.5988 52.8724 17.475 54.1504 16.3525C54.1568 16.3301 54.163 16.3077 54.1701 16.2861C54.025 16.1406 53.9055 16.0207 53.9003 16.0147C53.8837 15.9936 53.8269 15.7792 53.9647 15.6659C54.1355 15.5233 54.3324 15.6075 54.3504 15.6257C54.3547 15.63 54.4037 15.6791 54.4737 15.7495L55.2299 15.0769C55.2299 15.0769 55.4493 13.9781 55.4914 13.7997C55.5224 13.671 55.5806 13.5236 55.6826 13.4221C55.9138 13.1916 56.2856 13.1878 56.5114 13.4146C56.5767 13.4802 56.6783 13.5823 56.7436 13.6479C56.7436 13.6479 56.8181 13.5735 56.8463 13.5456C56.913 13.4791 57.0191 13.4784 57.0839 13.5436C57.2108 13.6709 57.7632 14.2255 57.8682 14.331C57.9328 14.3958 57.9314 14.5016 57.8647 14.5681C57.8365 14.5962 57.762 14.6704 57.762 14.6704C57.8275 14.7362 57.9288 14.8376 57.9941 14.9032C58.2202 15.1301 58.2152 15.5014 57.9835 15.7321C57.882 15.8333 57.7345 15.8919 57.6051 15.9217C57.4266 15.9631 56.35 16.1666 56.35 16.1666L55.6514 16.9324C55.724 17.0054 55.7735 17.0551 55.7775 17.0591C55.7957 17.0773 55.8606 17.2775 55.7172 17.4485C55.6036 17.5853 55.4076 17.5251 55.3868 17.5085C55.3811 17.5036 55.2621 17.3841 55.1153 17.2368C55.0834 17.2646 55.0436 17.2904 54.9946 17.3133C53.9178 18.5458 53.8286 19.1573 53.4745 20.0561L53.4627 20.069L53.44 20.0909C53.4527 20.1037 53.4608 20.1118 53.4632 20.1142C53.4913 20.1424 53.5512 20.2423 53.484 20.3525C53.4314 20.4425 53.302 20.4268 53.2707 20.3978L53.2412 20.3974C53.2286 20.4128 53.2376 20.4248 53.2194 20.4413C53.1524 20.7635 53.0241 21.1357 52.8092 21.3786C52.6086 21.6041 52.3766 21.7174 52.1291 21.7582C52.108 21.787 52.086 21.8108 52.0647 21.8305C52.0656 21.8606 52.0694 21.9657 52.0408 22.0299ZM57.4763 13.2275C57.6898 13.2254 57.8611 13.3031 57.8604 13.4018C57.8583 13.5003 57.6846 13.5816 57.4718 13.5831C57.4389 13.5835 57.4065 13.5814 57.3767 13.5779C57.4037 13.6967 57.4638 13.8092 57.5549 13.9007C57.6458 13.9915 57.7558 14.051 57.8718 14.0804C57.8678 14.0477 57.8656 14.0141 57.8668 13.9794C57.8697 13.766 57.9511 13.5929 58.0495 13.5916C58.1477 13.5904 58.2251 13.7628 58.2221 13.9762C58.2218 14.0111 58.2192 14.0447 58.2147 14.077C58.3323 14.0461 58.4436 13.9845 58.5363 13.8922C58.6298 13.799 58.6925 13.6861 58.7231 13.5671C58.6954 13.5707 58.6651 13.5727 58.6348 13.5725C58.4213 13.5747 58.2497 13.4966 58.2512 13.3983C58.2523 13.3004 58.4261 13.2189 58.6393 13.2168C58.6684 13.2167 58.6968 13.2179 58.724 13.2206C58.6954 13.1063 58.6369 12.9992 58.5487 12.9106C58.4606 12.8221 58.3534 12.7636 58.2396 12.7343C58.2434 12.7648 58.245 12.7976 58.2443 12.8302C58.241 13.0436 58.1596 13.2172 58.0611 13.218C57.9634 13.2188 57.8857 13.047 57.8884 12.834C57.8893 12.7988 57.8917 12.7652 57.8957 12.7334C57.7764 12.7637 57.6621 12.8258 57.5672 12.9202C57.4773 13.01 57.4155 13.1188 57.3835 13.2329C57.4136 13.2299 57.4444 13.2272 57.4763 13.2275Z" fill="#DBC6B5"/>
<path d="M49.3042 51.4768C49.2315 51.4377 49.1177 51.3232 49.1177 51.3232L52.031 48.7695C52.031 48.7695 52.1378 48.8921 52.1662 48.9766C52.1943 49.0604 52.1676 49.1844 52.1676 49.1844L52.1574 49.1934C52.1645 49.21 52.1733 49.2277 52.1825 49.2452L52.187 49.2412C52.4473 49.2933 52.7271 49.4651 52.9226 49.7235C53.1183 49.982 53.1559 50.3829 53.2018 50.6766L53.2134 50.6993C53.23 50.7095 53.2215 50.7111 53.2366 50.7237C53.279 50.7022 53.3935 50.7024 53.4361 50.7883C53.496 50.9033 53.4293 50.9985 53.3995 51.0247L53.3843 51.0377L53.3957 51.0614L53.4134 51.0796C53.71 52.0154 53.7971 52.5967 54.8358 53.9438C54.8576 53.9516 54.8796 53.9592 54.9006 53.9674C55.0552 53.8321 55.1825 53.7206 55.1887 53.7156C55.2109 53.7002 55.4284 53.6574 55.5328 53.802C55.6641 53.9816 55.5676 54.1726 55.5481 54.1897C55.5437 54.1937 55.4916 54.2394 55.4168 54.3049L56.0399 55.1023C56.0399 55.1023 57.1225 55.3912 57.2978 55.4445C57.4244 55.4838 57.5676 55.5512 57.6625 55.6594C57.8779 55.905 57.858 56.2761 57.6173 56.4872C57.5475 56.5481 57.4391 56.6427 57.3695 56.7038C57.3695 56.7038 57.4391 56.7831 57.4651 56.8129C57.5272 56.8836 57.5212 56.9894 57.4521 57.0503C57.317 57.1686 56.7282 57.6848 56.6162 57.7827C56.5476 57.8431 56.442 57.835 56.3798 57.764C56.3535 57.7342 56.2842 57.6552 56.2842 57.6552C56.2144 57.7162 56.1069 57.8109 56.0373 57.872C55.7964 58.0831 55.426 58.0544 55.2107 57.8085C55.1162 57.7006 55.067 57.5499 55.0455 57.4188C55.0156 57.2379 54.881 56.1507 54.881 56.1507L54.1613 55.4045C54.0839 55.4724 54.0311 55.5188 54.0269 55.5226C54.0074 55.5394 53.8037 55.5914 53.642 55.4374C53.5128 55.3155 53.5855 55.1236 53.6032 55.1039C53.6084 55.0987 53.7355 54.9875 53.8917 54.8504C53.8662 54.8166 53.8427 54.7752 53.8231 54.725C52.6618 53.572 52.0571 53.4439 51.1828 53.0333L51.1705 53.0208L51.1502 52.9966C51.1367 53.0085 51.1279 53.016 51.1256 53.0182C51.0955 53.0444 50.9918 53.0977 50.8863 53.0236C50.7997 52.9656 50.8236 52.8376 50.8546 52.8082L50.8569 52.7784C50.8423 52.7652 50.83 52.7732 50.8146 52.7541C50.4972 52.6667 50.1339 52.515 49.9053 52.2852C49.693 52.0703 49.5948 51.8318 49.5697 51.5821C49.5425 51.5591 49.52 51.5357 49.5018 51.5132C49.4715 51.5125 49.3664 51.5094 49.3042 51.4768ZM57.7425 57.4618C57.7309 57.6751 57.6424 57.8412 57.544 57.8341C57.446 57.8258 57.3759 57.6471 57.3878 57.4348C57.3896 57.4019 57.3937 57.3698 57.3991 57.3402C57.2789 57.3596 57.1627 57.4124 57.0657 57.4976C56.9693 57.5823 56.9028 57.6885 56.8661 57.8024C56.899 57.8005 56.9326 57.8003 56.9672 57.8038C57.18 57.8204 57.3475 57.9124 57.3426 58.0107C57.3376 58.1089 57.1606 58.1751 56.9478 58.1586C56.913 58.156 56.8796 58.1512 56.8477 58.1446C56.8711 58.2639 56.9253 58.3789 57.0117 58.4774C57.0988 58.5768 57.2074 58.6463 57.3241 58.6844C57.3224 58.6568 57.3222 58.6262 57.3243 58.5962C57.3357 58.3827 57.4247 58.2166 57.5227 58.2244C57.6202 58.2317 57.6907 58.4101 57.6791 58.6234C57.6774 58.6525 57.6744 58.6804 57.6699 58.7076C57.7858 58.6863 57.8964 58.6347 57.9905 58.5521C58.0843 58.47 58.1496 58.3666 58.186 58.2551C58.1555 58.257 58.1226 58.2563 58.0899 58.2537C57.8774 58.2367 57.7091 58.1444 57.7148 58.0462C57.7203 57.9484 57.8966 57.8821 58.1089 57.8982C58.1439 57.9013 58.1773 57.9058 58.209 57.912C58.1863 57.7908 58.1316 57.6729 58.0433 57.5723C57.9595 57.4765 57.8547 57.4081 57.743 57.3688C57.7442 57.3991 57.7449 57.4301 57.7425 57.4618Z" fill="#DBC6B5"/>
<path d="M19.4378 49.9624C19.474 49.8884 19.5838 49.77 19.5838 49.77L22.2516 52.5793C22.2516 52.5793 22.1334 52.6907 22.0503 52.7224C21.9676 52.7539 21.8426 52.7321 21.8426 52.7321L21.8332 52.7224C21.817 52.7302 21.7995 52.7397 21.7825 52.7494L21.7866 52.7537C21.7449 53.0159 21.5845 53.3023 21.3341 53.5082C21.0836 53.7141 20.6845 53.7676 20.3927 53.8251L20.3706 53.8376C20.3611 53.8544 20.3592 53.8461 20.3472 53.8615C20.3704 53.9032 20.3748 54.0177 20.2906 54.0639C20.178 54.128 20.0804 54.0653 20.0529 54.0364L20.0392 54.022L20.0161 54.034L19.9986 54.0525C19.0754 54.3862 18.4979 54.4963 17.1934 55.588C17.1866 55.6102 17.1798 55.6325 17.1723 55.6538C17.3138 55.8027 17.4303 55.9255 17.4354 55.9316C17.4516 55.9532 17.5033 56.1688 17.3629 56.2788C17.1886 56.4173 16.9938 56.3283 16.9761 56.3098C16.972 56.3053 16.9242 56.2552 16.8558 56.183L16.0838 56.8374C16.0838 56.8374 15.8383 57.9308 15.792 58.108C15.758 58.2361 15.6963 58.3818 15.5919 58.481C15.3551 58.7058 14.9834 58.7009 14.763 58.4687C14.6993 58.4015 14.6004 58.2971 14.5366 58.2299C14.5366 58.2299 14.4602 58.3026 14.4315 58.3298C14.3632 58.3946 14.2572 58.393 14.1938 58.3262C14.0701 58.1958 13.531 57.6281 13.4285 57.5201C13.3655 57.4539 13.3694 57.3481 13.4377 57.2832C13.4666 57.2558 13.5428 57.1834 13.5428 57.1834C13.4789 57.1162 13.38 57.0123 13.3162 56.9453C13.0956 56.7129 13.1097 56.3418 13.3467 56.1167C13.4507 56.018 13.5995 55.9629 13.7296 55.9361C13.909 55.8992 14.99 55.7212 14.99 55.7212L15.7069 54.9724C15.636 54.8976 15.5876 54.8468 15.5837 54.8427C15.566 54.824 15.5059 54.6224 15.6534 54.4548C15.7701 54.3209 15.9646 54.3857 15.9851 54.4028C15.9905 54.4077 16.1067 54.5301 16.2498 54.6809C16.2826 54.6539 16.323 54.629 16.3725 54.6072C17.4783 53.401 17.5822 52.7915 17.9574 51.9017L17.9696 51.8889L17.9929 51.8676C17.9805 51.8546 17.9726 51.8461 17.9703 51.8437C17.9429 51.8148 17.8854 51.7135 17.9553 51.6051C18.0099 51.5161 18.1388 51.5351 18.1694 51.5647L18.1991 51.5658C18.2118 51.5507 18.2032 51.5386 18.2218 51.5225C18.2963 51.2021 18.4336 50.8329 18.6541 50.5953C18.8603 50.3747 19.0947 50.2668 19.3432 50.232C19.365 50.2038 19.3876 50.1804 19.4093 50.1612C19.409 50.1312 19.4078 50.0261 19.4378 49.9624ZM13.794 58.6327C13.5806 58.6299 13.411 58.548 13.4141 58.4493C13.4186 58.3508 13.5943 58.2737 13.807 58.2772C13.8398 58.2777 13.8722 58.2806 13.9019 58.2848C13.8777 58.1653 13.8204 58.0515 13.7314 57.9577C13.6429 57.865 13.5342 57.8027 13.4189 57.7708C13.4221 57.8034 13.4236 57.837 13.4215 57.8718C13.4135 58.0851 13.3281 58.2562 13.2297 58.255C13.1314 58.2538 13.0582 58.0796 13.0662 57.8664C13.0673 57.8316 13.0709 57.798 13.0762 57.7658C12.9578 57.794 12.8451 57.8529 12.7502 57.9428C12.6544 58.0339 12.5891 58.1452 12.5557 58.2635C12.5834 58.2607 12.6138 58.2593 12.6441 58.2602C12.8576 58.263 13.0272 58.3452 13.0233 58.4434C13.0199 58.5414 12.8444 58.6187 12.631 58.6157C12.6019 58.6152 12.5737 58.6133 12.5464 58.6098C12.5724 58.7248 12.6283 58.8334 12.7144 58.924C12.8004 59.0145 12.9062 59.0755 13.0191 59.1077C13.0161 59.0769 13.0154 59.0443 13.0168 59.0116C13.0252 58.7984 13.1107 58.6268 13.209 58.6282C13.3069 58.6299 13.3803 58.8033 13.3727 59.0163C13.371 59.0514 13.3678 59.085 13.3629 59.1167C13.483 59.0892 13.5987 59.0298 13.6957 58.9378C13.788 58.8502 13.8522 58.7428 13.887 58.6296C13.8568 58.6318 13.8258 58.6339 13.794 58.6327Z" fill="#DBC6B5"/>
<path d="M39.8854 12.8791L33.102 12.6966C33.102 12.6966 33.2788 10.6079 32.6606 9.10678L32.81 8.99252L34.1732 10.1664L34.7483 8.28289L35.1823 8.19043L36.5744 9.79146L38.0503 8.26761L38.4789 8.38329L38.952 10.295L40.3762 9.19612L40.5192 9.31826C39.821 10.784 39.8854 12.8791 39.8854 12.8791ZM38.6817 10.9271C38.4497 10.9209 38.2566 11.1039 38.2502 11.3358C38.2441 11.5678 38.427 11.7609 38.659 11.7672C38.8911 11.7734 39.0843 11.5904 39.0904 11.3584C39.0966 11.1265 38.9136 10.9333 38.6817 10.9271ZM34.4089 10.8121C34.177 10.8059 33.9838 10.9889 33.9777 11.2209C33.9713 11.4528 34.1545 11.646 34.3864 11.6522C34.6184 11.6584 34.8115 11.4755 34.8176 11.2435C34.824 11.0115 34.6411 10.8184 34.4089 10.8121ZM36.5581 10.3937L35.9269 11.2733L36.51 12.1856L37.1412 11.306L36.5581 10.3937Z" fill="#E9C19E"/>
<path d="M37.4295 8.61469L36.9488 6.92567L36.3545 6.90967L35.7837 8.57041L36.5824 9.48903L37.4295 8.61469Z" fill="#E9C19E"/>
<path d="M36.6856 5.64381C36.3079 5.63363 35.9933 5.93164 35.9832 6.30941C35.973 6.68715 36.2712 7.00164 36.6489 7.01181C37.0266 7.02199 37.3412 6.72398 37.3513 6.34621C37.3615 5.96844 37.0633 5.65396 36.6856 5.64381Z" fill="#E9C19E"/>
<path d="M34.8947 7.37078C34.633 7.36373 34.415 7.57027 34.4079 7.83209C34.401 8.09392 34.6074 8.31186 34.8691 8.31892C35.1311 8.32597 35.3491 8.11943 35.356 7.8576C35.3631 7.59578 35.1567 7.37783 34.8947 7.37078Z" fill="#E9C19E"/>
<path d="M32.4909 8.2199C32.2291 8.21285 32.0112 8.41939 32.0041 8.68121C31.9972 8.94304 32.2036 9.16098 32.4656 9.16804C32.7273 9.17509 32.9453 8.96855 32.9524 8.70673C32.9593 8.4449 32.7529 8.22693 32.4909 8.2199Z" fill="#E9C19E"/>
<path d="M38.3815 7.46453C38.1198 7.4575 37.9018 7.66404 37.8947 7.92584C37.8876 8.18766 38.0942 8.40564 38.356 8.41269C38.618 8.41972 38.8359 8.21318 38.8428 7.95135C38.8499 7.68955 38.6433 7.47158 38.3815 7.46453Z" fill="#E9C19E"/>
<path d="M40.736 8.44207C40.4743 8.43502 40.2563 8.64156 40.2492 8.90338C40.2423 9.16521 40.4487 9.38315 40.7107 9.3902C40.9724 9.39726 41.1904 9.19072 41.1975 8.92889C41.2044 8.66707 40.998 8.44912 40.736 8.44207Z" fill="#E9C19E"/>
<path d="M39.882 13.0836L33.0963 12.901C32.9626 12.8974 32.8502 13.0038 32.8466 13.1376L32.8331 13.6379C32.8277 13.8408 32.9893 14.0114 33.1922 14.0168L39.7242 14.1926C39.927 14.1981 40.0976 14.0365 40.1031 13.8335L40.1166 13.3311C40.1201 13.1985 40.0146 13.0871 39.882 13.0836ZM36.5696 13.6533C36.626 13.6548 36.6728 13.6103 36.6745 13.5539C36.6759 13.4975 36.6314 13.4505 36.5751 13.449L36.377 13.4437C36.3207 13.4422 36.2736 13.4867 36.2721 13.5431C36.2705 13.5995 36.315 13.6464 36.3715 13.6479L36.5696 13.6533ZM35.44 13.6229C35.4964 13.6244 35.5434 13.5799 35.5449 13.5235C35.5463 13.4671 35.5018 13.4201 35.4455 13.4186L35.2474 13.4133C35.1911 13.4118 35.144 13.4563 35.1425 13.5127C35.1411 13.5691 35.1856 13.616 35.2419 13.6175L35.44 13.6229ZM34.3104 13.5925C34.3667 13.594 34.4138 13.5495 34.4153 13.4931C34.4169 13.4367 34.3724 13.3897 34.3159 13.3882L34.1178 13.3829C34.0614 13.3814 34.0146 13.4259 34.0129 13.4823C34.0115 13.5387 34.056 13.5856 34.1123 13.5871L34.3104 13.5925ZM37.5066 13.4741C37.45 13.4726 37.4032 13.5171 37.4015 13.5735C37.4001 13.6299 37.4446 13.6768 37.5009 13.6783L37.699 13.6837C37.7556 13.6852 37.8024 13.6407 37.8038 13.5843C37.8055 13.5279 37.761 13.4809 37.7047 13.4794L37.5066 13.4741ZM38.636 13.5045C38.5796 13.503 38.5325 13.5474 38.5311 13.6038C38.5295 13.6603 38.574 13.7072 38.6305 13.7087L38.8286 13.7141C38.8849 13.7156 38.9318 13.6711 38.9335 13.6147C38.9349 13.5583 38.8904 13.5113 38.8341 13.5098L38.636 13.5045Z" fill="#E9C19E"/>
<path d="M31.7123 58.5332L38.4968 58.6655C38.4968 58.6655 38.3354 60.7553 38.9647 62.2519L38.8163 62.3672L37.4446 61.2035L36.8832 63.0912L36.4499 63.1868L35.0462 61.5961L33.5815 63.1309L33.1521 63.0185L32.6649 61.1103L31.2486 62.2198L31.105 62.0986C31.792 60.6277 31.7123 58.5332 31.7123 58.5332ZM32.9304 60.4762C33.1623 60.4807 33.3543 60.2964 33.3588 60.0642C33.3633 59.8323 33.1789 59.6406 32.9467 59.6361C32.7148 59.6313 32.5231 59.8159 32.5186 60.0479C32.5139 60.2798 32.6985 60.4717 32.9304 60.4762ZM37.2039 60.5595C37.4358 60.564 37.6275 60.3797 37.632 60.1475C37.6367 59.9156 37.4521 59.7239 37.2202 59.7194C36.9883 59.7146 36.7963 59.8992 36.7918 60.1312C36.7873 60.3631 36.9717 60.555 37.2039 60.5595ZM35.0578 60.9938L35.6826 60.1096L35.0928 59.2015L34.468 60.086L35.0578 60.9938Z" fill="#E9C19E"/>
<path d="M34.1997 62.7791L34.6929 64.4644L35.287 64.476L35.8455 62.811L35.0401 61.8984L34.1997 62.7791Z" fill="#E9C19E"/>
<path d="M34.9653 65.7443C35.343 65.7516 35.6554 65.4513 35.6627 65.0736C35.6701 64.6956 35.3697 64.3834 34.992 64.3761C34.6141 64.3688 34.3019 64.6691 34.2946 65.0468C34.2872 65.4245 34.5873 65.7369 34.9653 65.7443Z" fill="#E9C19E"/>
<path d="M36.7432 64.0046C37.005 64.0095 37.2215 63.8015 37.2265 63.5398C37.2317 63.2778 37.0234 63.0615 36.7617 63.0562C36.4999 63.051 36.2834 63.2593 36.2784 63.5211C36.2732 63.7831 36.4812 63.9994 36.7432 64.0046Z" fill="#E9C19E"/>
<path d="M39.1409 63.1374C39.4027 63.1426 39.6192 62.9343 39.6242 62.6726C39.6294 62.4106 39.4211 62.1943 39.1594 62.1891C38.8974 62.1841 38.6811 62.3921 38.6759 62.6541C38.6709 62.9159 38.8789 63.1324 39.1409 63.1374Z" fill="#E9C19E"/>
<path d="M33.2559 63.9362C33.5179 63.9412 33.7342 63.7331 33.7394 63.4712C33.7444 63.2094 33.5364 62.9929 33.2744 62.9879C33.0126 62.9827 32.7961 63.1909 32.7911 63.4527C32.7859 63.7147 32.9942 63.931 33.2559 63.9362Z" fill="#E9C19E"/>
<path d="M30.8943 62.9767C31.1561 62.9819 31.3726 62.7737 31.3776 62.5119C31.3828 62.2499 31.1745 62.0336 30.9128 62.0284C30.6508 62.0234 30.4345 62.2315 30.4293 62.4935C30.4243 62.7552 30.6323 62.9718 30.8943 62.9767Z" fill="#E9C19E"/>
<path d="M31.714 58.329L38.5007 58.4613C38.6344 58.4639 38.7461 58.3567 38.7487 58.2228L38.7584 57.7225C38.7624 57.5194 38.5996 57.3502 38.3965 57.3462L31.8636 57.2188C31.6608 57.2148 31.4913 57.3776 31.4873 57.5807L31.4776 58.0831C31.475 58.2159 31.5815 58.3264 31.714 58.329ZM35.0221 57.7348C34.9656 57.7336 34.919 57.7785 34.918 57.8349C34.9168 57.8914 34.9618 57.9381 35.0181 57.939L35.2162 57.943C35.2725 57.944 35.3192 57.8992 35.3203 57.8427C35.3215 57.7863 35.2766 57.7397 35.2202 57.7385L35.0221 57.7348ZM36.1518 57.7568C36.0954 57.7558 36.0488 57.8005 36.0476 57.8569C36.0467 57.9134 36.0914 57.9601 36.148 57.961L36.3461 57.965C36.4024 57.966 36.449 57.9212 36.4502 57.8649C36.4511 57.8084 36.4064 57.7617 36.3498 57.7606L36.1518 57.7568ZM37.2816 57.7788C37.2253 57.7778 37.1786 57.8226 37.1775 57.8789C37.1763 57.9354 37.2213 57.9821 37.2776 57.983L37.4757 57.987C37.5322 57.988 37.5789 57.9433 37.5798 57.8869C37.581 57.8304 37.536 57.7837 37.4797 57.7828L37.2816 57.7788ZM34.0866 57.921C34.1429 57.922 34.1896 57.8772 34.1907 57.8207C34.1917 57.7643 34.147 57.7177 34.0904 57.7165L33.8923 57.7127C33.836 57.7116 33.7893 57.7565 33.7882 57.8129C33.7872 57.8694 33.8319 57.916 33.8883 57.917L34.0866 57.921ZM32.9568 57.8988C33.0133 57.8999 33.0599 57.8552 33.0609 57.7987C33.0621 57.7423 33.0171 57.6957 32.9608 57.6945L32.7627 57.6907C32.7064 57.6896 32.6597 57.7345 32.6586 57.7908C32.6574 57.8474 32.7023 57.894 32.7587 57.895L32.9568 57.8988Z" fill="#E9C19E"/>
<path d="M57.7346 39.2301L57.7031 32.4444C57.7031 32.4444 59.7964 32.5554 61.2773 31.8901L61.3963 32.0357L60.266 33.4353L62.1667 33.9508L62.2727 34.3818L60.7164 35.8233L62.2859 37.2506L62.1839 37.6826L60.288 38.2158L61.4313 39.6048L61.3137 39.7513C59.8267 39.1 57.7346 39.2301 57.7346 39.2301ZM59.6478 37.9656C59.6466 37.7334 59.4578 37.5462 59.2256 37.5472C58.9934 37.5484 58.8062 37.7372 58.8074 37.9694C58.8084 38.2016 58.9975 38.3888 59.2294 38.3876C59.4616 38.3866 59.6488 38.1975 59.6478 37.9656ZM59.6279 33.6914C59.6268 33.4592 59.4379 33.272 59.2057 33.273C58.9738 33.2742 58.7866 33.4633 58.7875 33.6952C58.7887 33.9274 58.9776 34.1146 59.2097 34.1134C59.4417 34.1124 59.6291 33.9233 59.6279 33.6914ZM60.1138 35.8261L59.2147 35.2231L58.3213 35.8344L59.2204 36.4377L60.1138 35.8261Z" fill="#E9C19E"/>
<path d="M61.9196 36.6409L63.5926 36.1072L63.59 35.5129L61.912 34.9946L61.019 35.822L61.9196 36.6409Z" fill="#E9C19E"/>
<path d="M64.8655 35.8039C64.8638 35.4262 64.5559 35.1212 64.1782 35.1231C63.8002 35.1247 63.4954 35.4324 63.4971 35.8103C63.4987 36.1883 63.8066 36.4931 64.1846 36.4915C64.5623 36.4898 64.8674 36.1819 64.8655 35.8039Z" fill="#E9C19E"/>
<path d="M63.0831 34.0686C63.0819 33.8068 62.8687 33.5955 62.6067 33.5967C62.3449 33.5979 62.1336 33.8111 62.1348 34.0731C62.136 34.3348 62.3492 34.5462 62.6112 34.545C62.8729 34.5438 63.0843 34.3306 63.0831 34.0686Z" fill="#E9C19E"/>
<path d="M62.1585 31.6929C62.1573 31.4309 61.9441 31.2195 61.6821 31.2207C61.4201 31.2219 61.2088 31.4354 61.21 31.6971C61.2114 31.9591 61.4246 32.1705 61.6866 32.1693C61.9484 32.1681 62.1597 31.9546 62.1585 31.6929Z" fill="#E9C19E"/>
<path d="M63.0994 37.5564C63.0983 37.2946 62.8848 37.0833 62.623 37.0845C62.361 37.0857 62.1497 37.2989 62.1509 37.5609C62.1521 37.8229 62.3655 38.0342 62.6273 38.0328C62.8893 38.0316 63.1006 37.8184 63.0994 37.5564Z" fill="#E9C19E"/>
<path d="M62.1966 39.9409C62.1954 39.6789 61.982 39.4676 61.7202 39.4688C61.4582 39.4699 61.2469 39.6834 61.2481 39.9452C61.2492 40.2072 61.4627 40.4185 61.7245 40.4173C61.9865 40.4161 62.1978 40.2027 62.1966 39.9409Z" fill="#E9C19E"/>
<path d="M57.5305 39.2333L57.4991 32.4452C57.4983 32.3115 57.3885 32.2024 57.2546 32.2031L56.7543 32.2055C56.5512 32.2064 56.3858 32.3733 56.3867 32.5764L56.417 39.1102C56.418 39.3133 56.5848 39.4787 56.7879 39.4778L57.2906 39.4754C57.4231 39.4747 57.531 39.3661 57.5305 39.2333ZM56.8567 35.9403C56.857 35.9969 56.9029 36.0423 56.9592 36.0421C57.0158 36.0419 57.0612 35.9959 57.061 35.9394L57.06 35.7413C57.0598 35.685 57.0139 35.6393 56.9573 35.6395C56.901 35.6398 56.8556 35.6859 56.8558 35.7422L56.8567 35.9403ZM56.8513 34.8105C56.8518 34.8668 56.8977 34.9125 56.954 34.912C57.0106 34.9118 57.056 34.8659 57.0558 34.8095L57.0548 34.6112C57.0546 34.5549 57.0087 34.5094 56.9521 34.5097C56.8958 34.5099 56.8501 34.5558 56.8506 34.6122L56.8513 34.8105ZM56.8461 33.6804C56.8463 33.737 56.8925 33.7824 56.9488 33.7822C57.0051 33.7819 57.0508 33.736 57.0506 33.6795L57.0496 33.4814C57.0494 33.425 57.0035 33.3794 56.9469 33.3796C56.8906 33.3798 56.8449 33.426 56.8451 33.4823L56.8461 33.6804ZM57.0652 36.8711C57.065 36.8148 57.0191 36.7691 56.9628 36.7696C56.9062 36.7698 56.8608 36.8158 56.861 36.8721L56.8619 37.0704C56.8622 37.1267 56.9081 37.1722 56.9644 37.1719C57.021 37.1717 57.0664 37.1258 57.0662 37.0695L57.0652 36.8711ZM57.0705 38.001C57.0702 37.9447 57.0243 37.8992 56.968 37.8995C56.9114 37.8997 56.866 37.9456 56.8662 38.0019L56.8672 38.2003C56.8674 38.2566 56.9133 38.302 56.9699 38.3018C57.0262 38.3016 57.0716 38.2556 57.0714 38.1993L57.0705 38.001Z" fill="#E9C19E"/>
<path d="M11.8577 32.2488L11.9118 39.0345C11.9118 39.0345 9.81825 38.9306 8.33958 39.6006L8.22016 39.4556L9.34579 38.0521L7.44339 37.543L7.33585 37.1126L8.88737 35.6656L7.31299 34.2437L7.41364 33.8113L9.30769 33.2719L8.15983 31.8867L8.27691 31.7397C9.76609 32.3861 11.8577 32.2488 11.8577 32.2488ZM9.94884 33.52C9.95069 33.7519 10.1403 33.9386 10.3724 33.9367C10.6044 33.9348 10.7911 33.7453 10.7892 33.5133C10.7873 33.2812 10.5977 33.0947 10.3657 33.0963C10.1336 33.0982 9.94699 33.2878 9.94884 33.52ZM9.98292 37.7939C9.98477 38.0261 10.1744 38.2126 10.4064 38.2109C10.6385 38.209 10.8251 38.0195 10.8233 37.7873C10.8214 37.5554 10.6318 37.3686 10.3997 37.3705C10.1677 37.3724 9.98107 37.562 9.98292 37.7939ZM9.48985 35.6608L10.3909 36.261L11.2823 35.6464L10.3812 35.0462L9.48985 35.6608Z" fill="#E9C19E"/>
<path d="M7.68196 34.8521L6.01074 35.3914L6.01548 35.9857L7.6951 36.4983L8.58532 35.6681L7.68196 34.8521Z" fill="#E9C19E"/>
<path d="M4.73879 35.6989C4.74182 36.0769 5.0506 36.3808 5.42849 36.3777C5.80637 36.3746 6.11028 36.0658 6.10727 35.6881C6.10426 35.3101 5.79546 35.0062 5.41758 35.0093C5.03969 35.0121 4.73579 35.321 4.73879 35.6989Z" fill="#E9C19E"/>
<path d="M6.52687 37.4288C6.52895 37.6905 6.74297 37.9012 7.00487 37.899C7.26679 37.8971 7.47742 37.6829 7.47531 37.4212C7.47323 37.1592 7.25921 36.9486 6.99732 36.9507C6.7354 36.9528 6.52479 37.1668 6.52687 37.4288Z" fill="#E9C19E"/>
<path d="M7.45949 39.8013C7.46157 40.0633 7.67557 40.2739 7.93748 40.2718C8.19938 40.2697 8.41001 40.0557 8.40793 39.7937C8.40585 39.532 8.19183 39.3214 7.92991 39.3233C7.66802 39.3254 7.45738 39.5393 7.45949 39.8013Z" fill="#E9C19E"/>
<path d="M6.49904 33.9405C6.50112 34.2025 6.71514 34.4131 6.97703 34.411C7.23895 34.4088 7.44956 34.1949 7.44748 33.9329C7.4454 33.6709 7.23138 33.4603 6.96948 33.4624C6.70757 33.4645 6.49693 33.6785 6.49904 33.9405Z" fill="#E9C19E"/>
<path d="M7.39357 31.5533C7.39565 31.8153 7.60967 32.0259 7.87157 32.0238C8.13348 32.0216 8.34412 31.8077 8.34201 31.5457C8.33993 31.2837 8.12591 31.0731 7.86402 31.0752C7.6021 31.0773 7.39149 31.2913 7.39357 31.5533Z" fill="#E9C19E"/>
<path d="M12.062 32.2449L12.1161 39.0327C12.1172 39.1667 12.2275 39.2751 12.3613 39.2741L12.8618 39.2701C13.0648 39.2685 13.2296 39.1011 13.228 38.8981L13.1759 32.3642C13.1743 32.1611 13.0068 31.9964 12.8038 31.9981L12.3012 32.0018C12.1686 32.003 12.061 32.1124 12.062 32.2449ZM12.7469 35.5355C12.7464 35.4792 12.7003 35.4338 12.6439 35.4342C12.5875 35.4347 12.5421 35.4808 12.5425 35.5372L12.5441 35.7353C12.5446 35.7918 12.5907 35.837 12.6471 35.8366C12.7035 35.8363 12.7489 35.7902 12.7484 35.7336L12.7469 35.5355ZM12.7559 36.6654C12.7554 36.609 12.7093 36.5636 12.6529 36.5641C12.5965 36.5645 12.5511 36.6107 12.5516 36.667L12.5531 36.8653C12.5536 36.9217 12.5997 36.9671 12.6561 36.9666C12.7125 36.9662 12.7579 36.92 12.7575 36.8637L12.7559 36.6654ZM12.7649 37.7954C12.7644 37.7389 12.7183 37.6937 12.6619 37.6942C12.6055 37.6944 12.5601 37.7405 12.5606 37.7971L12.5621 37.9952C12.5626 38.0515 12.6087 38.097 12.6651 38.0965C12.7215 38.096 12.7669 38.0499 12.7665 37.9935L12.7649 37.7954ZM12.5351 34.6054C12.5356 34.6617 12.5817 34.7072 12.6381 34.7067C12.6945 34.7062 12.7399 34.6601 12.7395 34.6038L12.7379 34.4057C12.7374 34.3491 12.6913 34.3039 12.6349 34.3044C12.5785 34.3049 12.5331 34.3508 12.5335 34.4073L12.5351 34.6054ZM12.5261 33.4756C12.5266 33.5319 12.5727 33.5773 12.6291 33.5769C12.6855 33.5764 12.7309 33.5302 12.7304 33.4739L12.7289 33.2758C12.7284 33.2193 12.6823 33.1741 12.6259 33.1745C12.5695 33.1748 12.5241 33.2209 12.5245 33.2775L12.5261 33.4756Z" fill="#E9C19E"/>
</g>
</g>
<defs>
<linearGradient id="paint0_linear_66_1620" x1="1.88079" y1="24.6855" x2="79.4637" y2="46.3145" gradientUnits="userSpaceOnUse">
<stop stop-color="#FCDB67"/>
<stop offset="0.355957" stop-color="#CE4F22"/>
<stop offset="0.730965" stop-color="#FCDB67"/>
<stop offset="1" stop-color="#CE4F22"/>
</linearGradient>
<clipPath id="clip0_66_1620">
<rect width="71" height="71" fill="white"/>
</clipPath>
</defs>
</svg>
