<svg width="71" height="71" viewBox="0 0 71 71" fill="none" xmlns="http://www.w3.org/2000/svg">
<g clip-path="url(#clip0_66_1402)">
<mask id="mask0_66_1402" style="mask-type:luminance" maskUnits="userSpaceOnUse" x="0" y="0" width="71" height="71">
<path d="M71 0H0V71H71V0Z" fill="white"/>
</mask>
<g mask="url(#mask0_66_1402)">
<path d="M20.1686 0V4.49773H29.1872V8.83484H8.19861V29.0747H4.26329V20.0792H0V50.2782H4.26329V41.6041H8.19861V62.1652H29.1872V65.6991H20.1686V71H50.6675V65.6991H41.157V62.1652H62.4734V41.6041H66.5727V50.2782H71V21.043H66.5727V29.0747H62.4734V7.54978H41.157V4.49773H50.6675V0H20.1686Z" fill="#046156" stroke="#EDBB34" stroke-width="2"/>
<path d="M47.5959 28.082H24.0684L35.6967 48.7461L47.5959 28.082Z" fill="#D9D9D9" stroke="black"/>
<path d="M62.0808 34.9703C62.0808 49.2403 50.1507 60.8148 35.4265 60.8148C20.7021 60.8148 8.77197 49.2403 8.77197 34.9703C8.77197 20.7003 20.7021 9.12598 35.4265 9.12598C50.1507 9.12598 62.0808 20.7003 62.0808 34.9703Z" fill="#C28D3D" stroke="#C7EBDF"/>
<path d="M30.6728 21.8715C24.3048 14.5205 35.7517 13.0742 35.4892 9.50141C35.4452 9.34687 35.4097 9.18468 35.383 9.01416C35.4431 9.1812 35.4776 9.34339 35.4892 9.50141C36.8172 14.1691 45.7544 11.8648 41.7997 22.048C37.6907 20.4221 35.2779 20.2297 30.6728 21.8715Z" fill="#339274"/>
<path d="M41.2002 23.3919C41.7299 13.7645 51.0609 20.4191 53.376 17.6466C53.4524 17.5048 53.5405 17.363 53.6408 17.2212C53.5672 17.3829 53.4785 17.524 53.376 17.6466C51.0668 21.9317 59.1762 26.2736 49.1605 31.01C47.3157 27.0629 45.6976 25.2988 41.2002 23.3919Z" fill="#339274"/>
<path d="M48.8136 31.1489C56.6951 25.0201 58.0325 36.2542 61.8154 36.05C61.9796 36.0093 62.1517 35.9769 62.3325 35.9532C62.1548 36.0095 61.9827 36.041 61.8154 36.05C56.8565 37.2816 59.1434 46.0702 48.4399 42.0455C50.2287 38.0446 50.4727 35.6839 48.8136 31.1489Z" fill="#339274"/>
<path d="M47.7665 41.9263C57.5718 42.7541 50.4827 51.6767 53.2368 54.0327C53.3793 54.112 53.521 54.2026 53.6626 54.3054C53.4997 54.2282 53.3587 54.1368 53.2368 54.0327C48.9392 51.6339 44.2489 59.4346 39.7383 49.4757C43.8246 47.7961 45.6765 46.2686 47.7665 41.9263Z" fill="#339274"/>
<path d="M39.3314 48.2562C45.4251 55.8272 33.9323 56.8687 34.0634 60.4486C34.1018 60.6045 34.1313 60.7678 34.1517 60.9392C34.098 60.7702 34.0693 60.6069 34.0634 60.4486C32.908 55.737 23.892 57.7245 28.2182 47.6875C32.2648 49.4573 34.669 49.7347 39.3314 48.2562Z" fill="#339274"/>
<path d="M28.6846 47.7798C26.6357 57.2098 18.4723 49.2168 15.7459 51.6036C15.6479 51.7321 15.5386 51.859 15.417 51.9837C15.5153 51.8351 15.6253 51.7091 15.7459 51.6036C18.7061 47.7218 11.383 42.1992 22.028 39.0435C23.225 43.2232 24.5438 45.2119 28.6846 47.7798Z" fill="#339274"/>
<path d="M22.3031 29.6532C12.6284 27.8849 20.579 19.6885 18.0747 17.0786C17.941 16.9859 17.809 16.882 17.6785 16.7661C17.8327 16.8586 17.9639 16.9632 18.0747 17.0786C22.1107 19.8798 27.5616 12.5688 31.0503 22.9141C26.8152 24.1917 24.8191 25.5336 22.3031 29.6532Z" fill="#339274"/>
<path d="M22.1665 40.2587C14.3716 46.1446 13.435 34.8753 9.77966 34.9642C9.62 35 9.45297 35.0272 9.27783 35.0452C9.45098 34.9943 9.61797 34.968 9.77966 34.9642C14.6015 33.8841 12.6721 25.0304 22.8696 29.3789C21.0185 33.3232 20.7089 35.6752 22.1665 40.2587Z" fill="#339274"/>
<path d="M35.6971 49.8059C43.7623 49.8059 50.3004 43.2823 50.3004 35.235C50.3004 27.1877 43.7623 20.6641 35.6971 20.6641C27.6319 20.6641 21.0938 27.1877 21.0938 35.235C21.0938 43.2823 27.6319 49.8059 35.6971 49.8059Z" fill="#C7EBDF"/>
<path d="M35.9676 17.4849L33.2632 20.664H38.4015L35.9676 17.4849Z" fill="#05615E"/>
<path d="M48.5493 23.0288L44.3511 23.4873L48.0575 26.9734L48.5493 23.0288Z" fill="#05615E"/>
<path d="M53.4671 36.9601L50.4626 34.0513L50.0273 39.0667L53.4671 36.9601Z" fill="#05615E"/>
<path d="M47.2507 48.6421L47.0813 44.5073L43.269 47.8822L47.2507 48.6421Z" fill="#05615E"/>
<path d="M33.7966 52.8737L37.0186 50.1975L31.957 49.332L33.7966 52.8737Z" fill="#05615E"/>
<path d="M21.6426 46.2176L25.8669 46.1991L22.5598 42.3467L21.6426 46.2176Z" fill="#05615E"/>
<path d="M17.8491 34.7055L21.0938 37.3554L21.0948 32.3218L17.8491 34.7055Z" fill="#05615E"/>
<path d="M23.6045 22.2974L23.8575 26.4282L27.6006 22.98L23.6045 22.2974Z" fill="#05615E"/>
<path d="M47.8664 28.082H23.7979L35.9673 48.7461L47.8664 28.082Z" fill="#2E8445" stroke="#C28D3D"/>
<path d="M35.6967 21.1938L23.7979 41.593H47.8664L35.6967 21.1938Z" fill="#2E8445" stroke="#C28D3D"/>
<path d="M39.7534 28.082H31.911L27.8545 34.97L31.911 41.5931H40.0239L43.8101 34.97L39.7534 28.082Z" fill="#2E8445" stroke="#C28D3D"/>
</g>
</g>
<defs>
<clipPath id="clip0_66_1402">
<rect width="71" height="71" fill="white"/>
</clipPath>
</defs>
</svg>
