<svg width="36" height="36" viewBox="0 0 36 36" fill="none" xmlns="http://www.w3.org/2000/svg">
<g clip-path="url(#clip0_66_1402)">
<mask id="mask0_66_1402" style="mask-type:luminance" maskUnits="userSpaceOnUse" x="0" y="0" width="36" height="36">
<path d="M36 0H0V36H36V0Z" fill="white"/>
</mask>
<g mask="url(#mask0_66_1402)">
<path d="M10.2263 0V2.28054H14.7991V4.47964H4.15704V14.7421H2.16167V10.181H0V25.4932H2.16167V21.095H4.15704V31.5204H14.7991V33.3122H10.2263V36H25.6906V33.3122H20.8684V31.5204H31.6766V21.095H33.7552V25.4932H36V10.6697H33.7552V14.7421H31.6766V3.82806H20.8684V2.28054H25.6906V0H10.2263Z" fill="#046156" stroke="#EDBB34" stroke-width="2"/>
<path d="M24.1331 14.2388H12.2036L18.0997 24.7163L24.1331 14.2388Z" fill="#D9D9D9" stroke="black"/>
<path d="M31.4776 17.7311C31.4776 24.9666 25.4285 30.8354 17.9627 30.8354C10.4968 30.8354 4.44775 24.9666 4.44775 17.7311C4.44775 10.4956 10.4968 4.62695 17.9627 4.62695C25.4285 4.62695 31.4776 10.4956 31.4776 17.7311Z" fill="#C28D3D" stroke="#C7EBDF"/>
<path d="M15.5522 11.09C12.3233 7.36276 18.1274 6.62939 17.9943 4.81786C17.972 4.7395 17.954 4.65726 17.9404 4.5708C17.9709 4.6555 17.9884 4.73773 17.9943 4.81786C18.6676 7.18457 23.1992 6.01618 21.194 11.1795C19.1105 10.3551 17.8871 10.2575 15.5522 11.09Z" fill="#339274"/>
<path d="M20.8901 11.8607C21.1587 6.97926 25.8899 10.3534 27.0638 8.94766C27.1025 8.87572 27.1472 8.80381 27.1981 8.73193C27.1607 8.81394 27.1157 8.88547 27.0638 8.94766C25.8929 11.1204 30.0047 13.3219 24.9263 15.7234C23.9909 13.7221 23.1705 12.8276 20.8901 11.8607Z" fill="#339274"/>
<path d="M24.7505 15.7939C28.7468 12.6863 29.4249 18.3825 31.343 18.2789C31.4262 18.2583 31.5135 18.2419 31.6052 18.2299C31.515 18.2584 31.4278 18.2744 31.343 18.2789C28.8286 18.9034 29.9882 23.3596 24.561 21.3189C25.468 19.2903 25.5917 18.0933 24.7505 15.7939Z" fill="#339274"/>
<path d="M24.2196 21.2583C29.1913 21.6781 25.5968 26.2022 26.9932 27.3968C27.0655 27.437 27.1374 27.4829 27.2091 27.535C27.1266 27.4959 27.055 27.4496 26.9932 27.3968C24.8142 26.1805 22.436 30.1358 20.1489 25.0862C22.2208 24.2345 23.1598 23.4601 24.2196 21.2583Z" fill="#339274"/>
<path d="M19.9426 24.468C23.0324 28.3068 17.205 28.835 17.2715 30.6501C17.291 30.7292 17.306 30.812 17.3163 30.8988C17.289 30.8132 17.2745 30.7304 17.2715 30.6501C16.6857 28.2611 12.1142 29.2689 14.3078 24.1797C16.3595 25.077 17.5786 25.2177 19.9426 24.468Z" fill="#339274"/>
<path d="M14.5446 24.2266C13.5058 29.008 9.36657 24.9552 7.98414 26.1654C7.93444 26.2306 7.87903 26.2949 7.81738 26.3581C7.86723 26.2828 7.923 26.2189 7.98414 26.1654C9.48511 24.1972 5.77198 21.397 11.1694 19.7969C11.7764 21.9162 12.4451 22.9246 14.5446 24.2266Z" fill="#339274"/>
<path d="M11.3087 15.0353C6.40323 14.1386 10.4345 9.98276 9.16472 8.65943C9.09695 8.6124 9.02999 8.55975 8.96386 8.50098C9.042 8.5479 9.10854 8.60089 9.16472 8.65943C11.2111 10.0797 13.975 6.37275 15.7439 11.6183C13.5965 12.266 12.5844 12.9464 11.3087 15.0353Z" fill="#339274"/>
<path d="M11.2392 20.4126C7.28687 23.397 6.81195 17.683 4.95855 17.7281C4.8776 17.7462 4.7929 17.76 4.7041 17.7691C4.79189 17.7433 4.87657 17.73 4.95855 17.7281C7.40343 17.1804 6.42512 12.6912 11.5957 14.8961C10.6571 16.896 10.5001 18.0886 11.2392 20.4126Z" fill="#339274"/>
<path d="M18.0998 25.2537C22.1892 25.2537 25.5043 21.9459 25.5043 17.8656C25.5043 13.7853 22.1892 10.4775 18.0998 10.4775C14.0104 10.4775 10.6953 13.7853 10.6953 17.8656C10.6953 21.9459 14.0104 25.2537 18.0998 25.2537Z" fill="#C7EBDF"/>
<path d="M18.237 8.86572L16.8657 10.4777H19.471L18.237 8.86572Z" fill="#05615E"/>
<path d="M24.6165 11.6768L22.4878 11.9092L24.3671 13.6768L24.6165 11.6768Z" fill="#05615E"/>
<path d="M27.1103 18.7405L25.5869 17.2656L25.3662 19.8087L27.1103 18.7405Z" fill="#05615E"/>
<path d="M23.9583 24.6639L23.8724 22.5674L21.9395 24.2786L23.9583 24.6639Z" fill="#05615E"/>
<path d="M17.1364 26.809L18.7701 25.452L16.2036 25.0132L17.1364 26.809Z" fill="#05615E"/>
<path d="M10.9736 23.4344L13.1155 23.425L11.4387 21.4717L10.9736 23.4344Z" fill="#05615E"/>
<path d="M9.05029 17.5968L10.6955 18.9405L10.696 16.3882L9.05029 17.5968Z" fill="#05615E"/>
<path d="M11.9688 11.3057L12.097 13.4002L13.995 11.6518L11.9688 11.3057Z" fill="#05615E"/>
<path d="M24.2702 14.2388H12.0664L18.2368 24.7163L24.2702 14.2388Z" fill="#2E8445" stroke="#C28D3D"/>
<path d="M18.0996 10.7461L12.0664 21.0894H24.2702L18.0996 10.7461Z" fill="#2E8445" stroke="#C28D3D"/>
<path d="M20.1568 14.2388H16.1803L14.1235 17.7313L16.1803 21.0895H20.2939L22.2137 17.7313L20.1568 14.2388Z" fill="#2E8445" stroke="#C28D3D"/>
</g>
</g>
<defs>
<clipPath id="clip0_66_1402">
<rect width="36" height="36" fill="white"/>
</clipPath>
</defs>
</svg>
