<svg width="36" height="36" viewBox="0 0 36 36" fill="none" xmlns="http://www.w3.org/2000/svg">
<g clip-path="url(#clip0_66_606)">
<mask id="mask0_66_606" style="mask-type:luminance" maskUnits="userSpaceOnUse" x="0" y="0" width="36" height="36">
<path d="M36 0H0V36H36V0Z" fill="white"/>
</mask>
<g mask="url(#mask0_66_606)">
<path d="M35.563 18.0002C35.563 27.8431 27.6411 35.8202 17.8717 35.8202C8.10211 35.8202 0.180176 27.8431 0.180176 18.0002C0.180176 8.15725 8.10211 0.180176 17.8717 0.180176C27.6411 0.180176 35.563 8.15725 35.563 18.0002Z" fill="#E9E094" stroke="#53565D" stroke-width="3"/>
<path d="M31.5687 17.8667C31.5687 25.4929 25.4929 31.6733 18.0002 31.6733C10.5075 31.6733 4.43164 25.4929 4.43164 17.8667C4.43164 10.2405 10.5075 4.06006 18.0002 4.06006C25.4929 4.06006 31.5687 10.2405 31.5687 17.8667Z" fill="#DDC3A0" stroke="#53565D"/>
<path d="M1.20557 13.999C3.45506 14.4754 1.91593 18.1678 4.63899 18.5251C4.66915 15.4924 5.12411 14.0132 6.17811 11.4976C3.45506 10.6638 3.91087 14.2008 1.20557 13.999Z" fill="#8FD8BB" stroke="#051D55"/>
<path d="M5.49406 5.98231C7.18726 7.54656 3.99118 9.93252 6.15208 11.6374C7.71583 9.04437 8.8571 8.00573 11.0393 6.38293C9.11993 4.26829 7.71848 7.5444 5.49406 5.98231Z" fill="#8FD8BB" stroke="#051D55"/>
<path d="M13.1841 1.29346C13.8787 3.4981 9.92611 3.96683 10.9567 6.52765C13.5959 5.06184 15.0997 4.73259 17.7952 4.41796C17.1769 1.62273 14.3404 3.76225 13.1841 1.29346Z" fill="#8FD8BB" stroke="#051D55"/>
<path d="M22.6182 1.2793C22.0419 3.51814 18.4462 1.8018 17.9663 4.52206C20.9764 4.69161 22.4241 5.21674 24.8735 6.39151C25.8264 3.69313 22.2935 3.98882 22.6182 1.2793Z" fill="#8FD8BB" stroke="#051D55"/>
<path d="M30.4245 5.97488C28.7945 7.60572 26.5701 4.28551 24.7793 6.38004C27.2832 8.0691 28.2629 9.26316 29.7754 11.5298C31.9621 9.69658 28.7725 8.1397 30.4245 5.97488Z" fill="#8FD8BB" stroke="#051D55"/>
<path d="M34.8674 14.0281C32.635 14.5797 32.4311 10.581 29.8232 11.4464C31.1027 14.1927 31.33 15.724 31.4639 18.4506C34.2772 18.0145 32.3424 15.0258 34.8674 14.0281Z" fill="#8FD8BB" stroke="#051D55"/>
<path d="M34.2805 23.4793C32.1097 22.7184 34.1041 19.2534 31.4485 18.5498C31.0344 21.554 30.3958 22.9627 29.0317 25.3227C31.627 26.4988 31.6229 22.9322 34.2805 23.4793Z" fill="#8FD8BB" stroke="#051D55"/>
<path d="M29.3643 30.8554C27.8413 29.1232 31.2657 27.0831 29.2919 25.1621C27.4697 27.5783 26.2276 28.4925 23.8901 29.8792C25.5815 32.1825 27.3127 29.0699 29.3643 30.8554Z" fill="#8FD8BB" stroke="#051D55"/>
<path d="M20.6954 34.7842C20.3711 32.491 24.4713 32.6089 23.867 29.9121C20.9293 30.9789 19.3433 31.0842 16.5479 30.9987C16.6923 33.8676 19.9472 32.1604 20.6954 34.7842Z" fill="#8FD8BB" stroke="#051D55"/>
<path d="M11.7509 33.9187C12.4502 31.7196 15.781 33.6487 16.4195 30.9636C13.5478 30.613 12.1959 30.0019 9.92711 28.6821C8.83697 31.317 12.2402 31.2349 11.7509 33.9187Z" fill="#8FD8BB" stroke="#051D55"/>
<path d="M4.73926 28.9295C6.42148 27.372 8.01187 30.5242 9.89857 28.525C7.84777 26.9261 7.11325 25.7931 6.03297 23.6411C3.82125 25.393 6.50923 26.8638 4.73926 28.9295Z" fill="#8FD8BB" stroke="#051D55"/>
<path d="M1.24365 22.2574C3.37987 21.4599 3.42603 24.6844 5.92965 23.5728C4.81794 21.536 4.65885 20.3245 4.6321 18.125C1.94972 18.919 3.67351 21.051 1.24365 22.2574Z" fill="#8FD8BB" stroke="#051D55"/>
<path d="M14.8836 8.21124L17.8069 4.80029L20.3622 8.21124L25.4193 8.63218L23.3211 11.706L23.3308 11.719H26.9645L25.4193 14.5253H30.8575L28.0883 17.8928L25.4193 14.5253L23.3308 11.719H23.3122L23.3211 11.706L20.3622 8.21124H14.8836L12.4956 11.706L9.82653 14.5253H13.9003L11.9337 17.8928L9.82653 14.5253L7.29797 17.8928L9.82653 21.2603H5.01465L7.29797 17.8928L5.01465 14.5253H9.82653L8.2813 11.719L12.4956 11.706L9.82653 8.21124H14.8836Z" fill="#F60935"/>
<path d="M14.8836 8.21124L17.8069 4.80029L20.3622 8.21124M14.8836 8.21124H20.3622M14.8836 8.21124L12.4956 11.706M14.8836 8.21124H9.82653L12.4956 11.706M20.3622 8.21124L25.4193 8.63218L23.3211 11.706M20.3622 8.21124L23.3211 11.706M12.4956 11.706L9.82653 14.5253M12.4956 11.706L8.2813 11.719L9.82653 14.5253M23.3211 11.706L23.3122 11.719H26.9645L25.4193 14.5253M23.3211 11.706L25.4193 14.5253M25.4193 14.5253H30.8575L28.0883 17.8928L25.4193 14.5253ZM9.82653 14.5253L7.29797 17.8928M9.82653 14.5253H5.01465L7.29797 17.8928M9.82653 14.5253L11.9337 17.8928L13.9003 14.5253H9.82653ZM7.29797 17.8928L9.82653 21.2603H5.01465L7.29797 17.8928Z" stroke="black"/>
<path d="M8.28125 24.3468L9.82648 21.4003L12.355 24.3468L14.7432 27.574H17.7633L16.0074 24.3468H19.6598L17.7633 27.574H20.7836L23.0312 24.3468L25.4192 21.4003L27.9478 18.0327L30.6169 21.1196L25.4192 21.4003L27.2455 24.3468H23.0312L24.4359 27.574H20.7836L17.7633 31.0066L14.7432 27.574H10.8098L12.355 24.3468H8.28125Z" fill="#F60935"/>
<path d="M12.355 24.3468L9.82648 21.4003L8.28125 24.3468H12.355ZM12.355 24.3468L14.7432 27.574M12.355 24.3468L10.8098 27.574H14.7432M14.7432 27.574L17.7633 31.0066L20.7836 27.574M14.7432 27.574H17.7633M20.7836 27.574L23.0312 24.3468M20.7836 27.574H24.4359L23.0312 24.3468M20.7836 27.574H17.7633M17.7633 27.574L19.6598 24.3468H16.0074L17.7633 27.574ZM23.0312 24.3468L25.4192 21.4003M23.0312 24.3468H27.2455L25.4192 21.4003M25.4192 21.4003L30.6169 21.1196L27.9478 18.0327L25.4192 21.4003Z" stroke="black"/>
<path d="M12.4955 24.347L14.0408 21.2601H10.1074L11.9336 18.033L14.0408 21.2601L15.024 19.5764L16.2884 21.2601H19.2383L20.5026 19.5764L21.3454 21.2601L23.4526 17.8926L21.3454 14.2445L19.6598 11.8592H17.5526L19.2383 14.2445H16.2884L17.5526 11.8592H15.4455L14.0408 14.2445L12.4955 11.8592H15.4455L17.8336 8.4917L19.6598 11.8592H23.1717L21.3454 14.2445H25.1382L23.4526 17.8926L25.1382 21.2601H21.3454L23.1717 24.347H19.6598L21.3454 21.2601H19.2383L17.8336 24.347L16.2884 21.2601H14.0408L15.8669 24.347H12.4955Z" fill="#F60935"/>
<path d="M14.0408 21.2601L12.4955 24.347H15.8669L14.0408 21.2601ZM14.0408 21.2601H10.1074L11.9336 18.033L14.0408 21.2601ZM14.0408 21.2601H16.2884M14.0408 21.2601L15.024 19.5764L16.2884 21.2601M16.2884 21.2601H19.2383M16.2884 21.2601L17.8336 24.347L19.2383 21.2601M15.4455 11.8592L14.0408 14.2445L12.4955 11.8592H15.4455ZM15.4455 11.8592L17.8336 8.4917L19.6598 11.8592M15.4455 11.8592H17.5526M19.6598 11.8592H23.1717L21.3454 14.2445M19.6598 11.8592L21.3454 14.2445M19.6598 11.8592H17.5526M17.5526 11.8592L16.2884 14.2445H19.2383L17.5526 11.8592ZM21.3454 14.2445L23.4526 17.8926M21.3454 14.2445H25.1382L23.4526 17.8926M23.4526 17.8926L21.3454 21.2601M23.4526 17.8926L25.1382 21.2601H21.3454M21.3454 21.2601L19.6598 24.347H23.1717L21.3454 21.2601ZM21.3454 21.2601L20.5026 19.5764L19.2383 21.2601M21.3454 21.2601H19.2383" stroke="black"/>
<path d="M16.1477 14.3848L15.1644 15.9282H16.9906L17.693 14.3848L18.5358 15.9282H20.2215L19.2382 14.3848H21.3453L20.2215 15.9282H22.1882L21.3453 17.6119L20.2215 15.9282L19.2382 17.3314L18.5358 15.9282H16.9906L16.1477 17.3314L15.1644 15.9282L14.068 17.2972L13.1978 15.9282H15.1644L14.0406 14.3848H16.1477Z" fill="#F60935"/>
<path d="M15.1644 15.9282L16.1477 14.3848H14.0406L15.1644 15.9282ZM15.1644 15.9282H16.9906M15.1644 15.9282L16.1477 17.3314L16.9906 15.9282M15.1644 15.9282L14.068 17.2972M15.1644 15.9282H13.1978L14.068 17.2972M16.9906 15.9282H18.5358M16.9906 15.9282L17.693 14.3848L18.5358 15.9282M14.068 17.2972L14.0406 17.3314M20.2215 15.9282L21.3453 14.3848H19.2382L20.2215 15.9282ZM20.2215 15.9282L21.3453 17.6119L22.1882 15.9282H20.2215ZM20.2215 15.9282L19.2382 17.3314L18.5358 15.9282M20.2215 15.9282H18.5358" stroke="black"/>
<path d="M14.8838 19.4359H13.0576L14.0409 17.6118L14.8838 19.4359Z" fill="#F60935"/>
<path d="M19.2383 19.436H16.1479L17.8336 21.26L19.2383 19.436Z" fill="#F60935"/>
<path d="M14.8838 19.4359H13.0576L14.0409 17.6118L14.8838 19.4359Z" stroke="black"/>
<path d="M19.2383 19.436H16.1479L17.8336 21.26L19.2383 19.436Z" stroke="black"/>
<path d="M22.3288 19.2957H20.5025H19.2383L19.9406 18.594L20.5025 19.2957L21.3454 17.6118L22.3288 19.2957Z" fill="#F60935"/>
<path d="M20.5024 19.2957H22.3287L21.3453 17.6118L20.5024 19.2957ZM20.5024 19.2957L19.9406 18.594L19.2382 19.2957H20.5024ZM15.0239 19.2957H15.8668" stroke="black"/>
<path d="M16.0073 19.2958H15.1646L15.4455 18.5942L14.1812 17.4717H16.2884H19.0978H21.205L19.9407 18.5942L19.0978 17.4717L17.8336 19.2958L16.2884 17.4717L15.4455 18.5942L16.0073 19.2958Z" fill="#F60935"/>
<path d="M15.4455 18.5942L16.0073 19.2958H15.1646L15.4455 18.5942ZM15.4455 18.5942L16.2884 17.4717M15.4455 18.5942L14.1812 17.4717H16.2884M16.2884 17.4717H19.0978M16.2884 17.4717L17.8336 19.2958L19.0978 17.4717M19.0978 17.4717H21.205L19.9407 18.5942L19.0978 17.4717Z" stroke="black"/>
</g>
</g>
<defs>
<clipPath id="clip0_66_606">
<rect width="36" height="36" fill="white"/>
</clipPath>
</defs>
</svg>
