<svg width="71" height="71" viewBox="0 0 71 71" fill="none" xmlns="http://www.w3.org/2000/svg">
<g clip-path="url(#clip0_66_606)">
<mask id="mask0_66_606" style="mask-type:luminance" maskUnits="userSpaceOnUse" x="0" y="0" width="71" height="71">
<path d="M71 0H0V71H71V0Z" fill="white"/>
</mask>
<g mask="url(#mask0_66_606)">
<path d="M70.1378 35.5C70.1378 54.9123 54.514 70.645 35.2465 70.645C15.9788 70.645 0.35498 54.9123 0.35498 35.5C0.35498 16.0875 15.9788 0.35498 35.2465 0.35498C54.514 0.35498 70.1378 16.0875 70.1378 35.5Z" fill="#E9E094" stroke="#53565D" stroke-width="3"/>
<path d="M62.2601 35.2372C62.2601 50.2776 50.2772 62.4669 35.5 62.4669C20.7226 62.4669 8.73975 50.2776 8.73975 35.2372C8.73975 20.1966 20.7226 8.00732 35.5 8.00732C50.2772 8.00732 62.2601 20.1966 62.2601 35.2372Z" fill="#DDC3A0" stroke="#53565D"/>
<path d="M2.37744 27.609C6.81395 28.5485 3.77844 35.8308 9.14892 36.5356C9.2084 30.5543 10.1057 27.6371 12.1844 22.6757C6.81395 21.0313 7.7129 28.0071 2.37744 27.609Z" fill="#8FD8BB" stroke="#051D55"/>
<path d="M10.8348 11.7976C14.1742 14.8826 7.87081 19.5883 12.1326 22.9507C15.2166 17.8366 17.4675 15.7882 21.7712 12.5877C17.9858 8.41717 15.2219 14.8784 10.8348 11.7976Z" fill="#8FD8BB" stroke="#051D55"/>
<path d="M26.0012 2.55078C27.3711 6.89882 19.5758 7.82327 21.6083 12.8738C26.8135 9.98287 29.7791 9.33351 35.0954 8.71299C33.8758 3.20017 28.2818 7.4198 26.0012 2.55078Z" fill="#8FD8BB" stroke="#051D55"/>
<path d="M44.6072 2.52246C43.4705 6.93795 36.379 3.55296 35.4326 8.9179C41.3692 9.25229 44.2243 10.288 49.0551 12.6049C50.9345 7.28308 43.9668 7.86625 44.6072 2.52246Z" fill="#8FD8BB" stroke="#051D55"/>
<path d="M60.0031 11.7838C56.7885 15.0002 52.4014 8.45203 48.8696 12.5829C53.8079 15.9141 55.7401 18.2691 58.723 22.7393C63.0358 19.1239 56.7452 16.0534 60.0031 11.7838Z" fill="#8FD8BB" stroke="#051D55"/>
<path d="M68.7662 27.6667C64.3632 28.7544 63.9611 20.8681 58.8179 22.5749C61.3412 27.9912 61.7895 31.0113 62.0536 36.3888C67.602 35.5288 63.7862 29.6344 68.7662 27.6667Z" fill="#8FD8BB" stroke="#051D55"/>
<path d="M67.6081 46.306C63.3268 44.8053 67.2602 37.9716 62.0228 36.584C61.2061 42.5089 59.9465 45.2872 57.2563 49.9417C62.3747 52.2613 62.3667 45.2271 67.6081 46.306Z" fill="#8FD8BB" stroke="#051D55"/>
<path d="M57.913 60.8534C54.9092 57.4371 61.6629 53.4136 57.7702 49.625C54.1765 54.3903 51.7267 56.1932 47.1167 58.9281C50.4525 63.4707 53.8667 57.332 57.913 60.8534Z" fill="#8FD8BB" stroke="#051D55"/>
<path d="M40.8157 68.6016C40.1759 64.0789 48.2626 64.3113 47.0708 58.9927C41.2769 61.0966 38.1489 61.3042 32.6357 61.1357C32.9207 66.7937 39.34 63.4269 40.8157 68.6016Z" fill="#8FD8BB" stroke="#051D55"/>
<path d="M23.1756 66.895C24.5547 62.5579 31.1239 66.3625 32.3832 61.0669C26.7195 60.3756 24.0532 59.1702 19.5787 56.5674C17.4287 61.7639 24.1405 61.602 23.1756 66.895Z" fill="#8FD8BB" stroke="#051D55"/>
<path d="M9.34668 57.0544C12.6644 53.9827 15.801 60.1995 19.522 56.2566C15.4774 53.1033 14.0287 50.8687 11.8982 46.6245C7.53616 50.0796 12.8375 52.9804 9.34668 57.0544Z" fill="#8FD8BB" stroke="#051D55"/>
<path d="M2.45264 43.8962C6.66573 42.3233 6.75677 48.6828 11.6945 46.4903C9.50192 42.4733 9.18817 40.084 9.13542 35.7461C3.84516 37.3121 7.24485 41.5167 2.45264 43.8962Z" fill="#8FD8BB" stroke="#051D55"/>
<path d="M29.353 16.194L35.1184 9.4668L40.158 16.194L50.1316 17.0241L45.9935 23.0864L46.0126 23.1121H53.1791L50.1316 28.6467H60.8571L55.3955 35.2881L50.1316 28.6467L46.0126 23.1121H45.976L45.9935 23.0864L40.158 16.194H29.353L24.6433 23.0864L19.3793 28.6467H27.4137L23.535 35.2881L19.3793 28.6467L14.3924 35.2881L19.3793 41.9297H9.88916L14.3924 35.2881L9.88916 28.6467H19.3793L16.3317 23.1121L24.6433 23.0864L19.3793 16.194H29.353Z" fill="#F60935"/>
<path d="M29.353 16.194L35.1184 9.4668L40.158 16.194M29.353 16.194H40.158M29.353 16.194L24.6433 23.0864M29.353 16.194H19.3793L24.6433 23.0864M40.158 16.194L50.1316 17.0241L45.9935 23.0864M40.158 16.194L45.9935 23.0864M24.6433 23.0864L19.3793 28.6467M24.6433 23.0864L16.3317 23.1121L19.3793 28.6467M45.9935 23.0864L45.976 23.1121H53.1791L50.1316 28.6467M45.9935 23.0864L50.1316 28.6467M50.1316 28.6467H60.8571L55.3955 35.2881L50.1316 28.6467ZM19.3793 28.6467L14.3924 35.2881M19.3793 28.6467H9.88916L14.3924 35.2881M19.3793 28.6467L23.535 35.2881L27.4137 28.6467H19.3793ZM14.3924 35.2881L19.3793 41.9297H9.88916L14.3924 35.2881Z" stroke="black"/>
<path d="M16.332 48.0171L19.3796 42.206L24.3664 48.0171L29.0763 54.3821H35.0328L31.5696 48.0171H38.773L35.0328 54.3821H40.9894L45.4222 48.0171L50.1319 42.206L55.1189 35.5645L60.3828 41.6525L50.1319 42.206L53.7337 48.0171H45.4222L48.1926 54.3821H40.9894L35.0328 61.1519L29.0763 54.3821H21.3189L24.3664 48.0171H16.332Z" fill="#F60935"/>
<path d="M24.3664 48.0171L19.3796 42.206L16.332 48.0171H24.3664ZM24.3664 48.0171L29.0763 54.3821M24.3664 48.0171L21.3189 54.3821H29.0763M29.0763 54.3821L35.0328 61.1519L40.9894 54.3821M29.0763 54.3821H35.0328M40.9894 54.3821L45.4222 48.0171M40.9894 54.3821H48.1926L45.4222 48.0171M40.9894 54.3821H35.0328M35.0328 54.3821L38.773 48.0171H31.5696L35.0328 54.3821ZM45.4222 48.0171L50.1319 42.206M45.4222 48.0171H53.7337L50.1319 42.206M50.1319 42.206L60.3828 41.6525L55.1189 35.5645L50.1319 42.206Z" stroke="black"/>
<path d="M24.6435 48.0173L27.691 41.9293H19.9336L23.5352 35.5646L27.691 41.9293L29.6303 38.6086L32.1238 41.9293H37.9418L40.4353 38.6086L42.0974 41.9293L46.2532 35.2877L42.0974 28.0928L38.7729 23.3885H34.6171L37.9418 28.0928H32.1238L34.6171 23.3885H30.4614L27.691 28.0928L24.6435 23.3885H30.4614L35.1713 16.7471L38.7729 23.3885H45.6992L42.0974 28.0928H49.5777L46.2532 35.2877L49.5777 41.9293H42.0974L45.6992 48.0173H38.7729L42.0974 41.9293H37.9418L35.1713 48.0173L32.1238 41.9293H27.691L31.2926 48.0173H24.6435Z" fill="#F60935"/>
<path d="M27.691 41.9293L24.6435 48.0173H31.2926L27.691 41.9293ZM27.691 41.9293H19.9336L23.5352 35.5646L27.691 41.9293ZM27.691 41.9293H32.1238M27.691 41.9293L29.6303 38.6086L32.1238 41.9293M32.1238 41.9293H37.9418M32.1238 41.9293L35.1713 48.0173L37.9418 41.9293M30.4614 23.3885L27.691 28.0928L24.6435 23.3885H30.4614ZM30.4614 23.3885L35.1713 16.7471L38.7729 23.3885M30.4614 23.3885H34.6171M38.7729 23.3885H45.6992L42.0974 28.0928M38.7729 23.3885L42.0974 28.0928M38.7729 23.3885H34.6171M34.6171 23.3885L32.1238 28.0928H37.9418L34.6171 23.3885ZM42.0974 28.0928L46.2532 35.2877M42.0974 28.0928H49.5777L46.2532 35.2877M46.2532 35.2877L42.0974 41.9293M46.2532 35.2877L49.5777 41.9293H42.0974M42.0974 41.9293L38.7729 48.0173H45.6992L42.0974 41.9293ZM42.0974 41.9293L40.4353 38.6086L37.9418 41.9293M42.0974 41.9293H37.9418" stroke="black"/>
<path d="M31.8468 28.3696L29.9075 31.4136H33.5091L34.8943 28.3696L36.5567 31.4136H39.8811L37.9419 28.3696H42.0975L39.8811 31.4136H43.7599L42.0975 34.7343L39.8811 31.4136L37.9419 34.181L36.5567 31.4136H33.5091L31.8468 34.181L29.9075 31.4136L27.7451 34.1135L26.0288 31.4136H29.9075L27.6912 28.3696H31.8468Z" fill="#F60935"/>
<path d="M29.9075 31.4136L31.8468 28.3696H27.6912L29.9075 31.4136ZM29.9075 31.4136H33.5091M29.9075 31.4136L31.8468 34.181L33.5091 31.4136M29.9075 31.4136L27.7451 34.1135M29.9075 31.4136H26.0288L27.7451 34.1135M33.5091 31.4136H36.5567M33.5091 31.4136L34.8943 28.3696L36.5567 31.4136M27.7451 34.1135L27.6912 34.181M39.8811 31.4136L42.0975 28.3696H37.9419L39.8811 31.4136ZM39.8811 31.4136L42.0975 34.7343L43.7599 31.4136H39.8811ZM39.8811 31.4136L37.9419 34.181L36.5567 31.4136M39.8811 31.4136H36.5567" stroke="black"/>
<path d="M29.3531 38.3319H25.7515L27.6907 34.7344L29.3531 38.3319Z" fill="#F60935"/>
<path d="M37.9416 38.332H31.8467L35.1711 41.9294L37.9416 38.332Z" fill="#F60935"/>
<path d="M29.3531 38.3319H25.7515L27.6907 34.7344L29.3531 38.3319Z" stroke="black"/>
<path d="M37.9416 38.332H31.8467L35.1711 41.9294L37.9416 38.332Z" stroke="black"/>
<path d="M44.037 38.0553H40.4352H37.9419L39.3271 36.6715L40.4352 38.0553L42.0975 34.7344L44.037 38.0553Z" fill="#F60935"/>
<path d="M40.4352 38.0553H44.037L42.0975 34.7344L40.4352 38.0553ZM40.4352 38.0553L39.3271 36.6715L37.9419 38.0553H40.4352ZM29.6304 38.0553H31.2927" stroke="black"/>
<path d="M31.5694 38.0551H29.9073L30.4613 36.6713L27.9678 34.4575H32.1236H37.6645H41.8203L39.3268 36.6713L37.6645 34.4575L35.1712 38.0551L32.1236 34.4575L30.4613 36.6713L31.5694 38.0551Z" fill="#F60935"/>
<path d="M30.4613 36.6713L31.5694 38.0551H29.9073L30.4613 36.6713ZM30.4613 36.6713L32.1236 34.4575M30.4613 36.6713L27.9678 34.4575H32.1236M32.1236 34.4575H37.6645M32.1236 34.4575L35.1712 38.0551L37.6645 34.4575M37.6645 34.4575H41.8203L39.3268 36.6713L37.6645 34.4575Z" stroke="black"/>
</g>
</g>
<defs>
<clipPath id="clip0_66_606">
<rect width="71" height="71" fill="white"/>
</clipPath>
</defs>
</svg>
