<svg width="71" height="71" viewBox="0 0 71 71" fill="none" xmlns="http://www.w3.org/2000/svg">
<g clip-path="url(#clip0_66_1470)">
<mask id="mask0_66_1470" style="mask-type:luminance" maskUnits="userSpaceOnUse" x="0" y="0" width="71" height="71">
<path d="M71 0H0V71H71V0Z" fill="white"/>
</mask>
<g mask="url(#mask0_66_1470)">
<path d="M20.1686 0V4.49773H29.1872V8.83484H8.19861V29.0747H4.26329V20.0792H0V50.2782H4.26329V41.6041H8.19861V62.1652H29.1872V65.6991H20.1686V71H50.6675V65.6991H41.157V62.1652H62.4734V41.6041H66.5727V50.2782H71V21.043H66.5727V29.0747H62.4734V7.54978H41.157V4.49773H50.6675V0H20.1686Z" fill="#B80007" stroke="#920104" stroke-width="2"/>
<path d="M29.4331 17.7498C22.367 10.1353 35.6766 9.07619 35.5207 5.4733C35.4762 5.31632 35.4419 5.15195 35.4182 4.97949C35.4807 5.14958 35.5138 5.31393 35.5207 5.4733C36.8642 10.2144 47.3046 8.20552 42.305 18.3121C37.6164 16.5345 34.8315 16.2575 29.4331 17.7498Z" fill="#FF6305"/>
<path d="M35.5207 5.4733C35.6766 9.07619 22.367 10.1353 29.4331 17.7498C34.8315 16.2575 37.6164 16.5345 42.305 18.3121C47.3046 8.20552 36.8642 10.2144 35.5207 5.4733ZM35.5207 5.4733C35.4762 5.31632 35.4419 5.15195 35.4182 4.97949C35.4807 5.14958 35.5138 5.31393 35.5207 5.4733Z" stroke="#A30006"/>
<path d="M35.5207 5.4733C35.6766 9.07619 22.367 10.1353 29.4331 17.7498C34.8315 16.2575 37.6164 16.5345 42.305 18.3121C47.3046 8.20552 36.8642 10.2144 35.5207 5.4733ZM35.5207 5.4733C35.4762 5.31632 35.4419 5.15195 35.4182 4.97949C35.4807 5.14958 35.5138 5.31393 35.5207 5.4733Z" stroke="black" stroke-opacity="0.2"/>
<path d="M43.9336 19.4361C44.9186 9.14785 54.5978 16.4995 57.1921 13.5903C57.2799 13.4404 57.38 13.2908 57.4934 13.1416C57.4077 13.3129 57.3067 13.4616 57.1921 13.5903C54.5384 18.1181 63.0132 22.9649 52.1062 27.7848C50.3073 23.5156 48.6553 21.588 43.9336 19.4361Z" fill="#FF6305"/>
<path d="M57.1921 13.5903C54.5978 16.4995 44.9186 9.14785 43.9336 19.4361C48.6553 21.588 50.3073 23.5156 52.1062 27.7848C63.0132 22.9649 54.5384 18.1181 57.1921 13.5903ZM57.1921 13.5903C57.2799 13.4404 57.38 13.2908 57.4934 13.1416C57.4077 13.3129 57.3067 13.4616 57.1921 13.5903Z" stroke="#A30006"/>
<path d="M57.1921 13.5903C54.5978 16.4995 44.9186 9.14785 43.9336 19.4361C48.6553 21.588 50.3073 23.5156 52.1062 27.7848C63.0132 22.9649 54.5384 18.1181 57.1921 13.5903ZM57.1921 13.5903C57.2799 13.4404 57.38 13.2908 57.4934 13.1416C57.4077 13.3129 57.3067 13.4616 57.1921 13.5903Z" stroke="black" stroke-opacity="0.2"/>
<path d="M53.98 30.3094C61.8901 23.538 62.7097 36.5951 66.3896 36.5132C66.5508 36.4727 66.7193 36.4419 66.8956 36.4223C66.7209 36.48 66.5524 36.5094 66.3896 36.5132C61.5247 37.7358 63.3697 48.001 53.1533 42.9058C55.0597 38.3483 55.3969 35.6262 53.98 30.3094Z" fill="#FF6305"/>
<path d="M66.3896 36.5132C62.7097 36.5951 61.8901 23.538 53.98 30.3094C55.3969 35.6262 55.0597 38.3483 53.1533 42.9058C63.3697 48.001 61.5247 37.7358 66.3896 36.5132ZM66.3896 36.5132C66.5508 36.4727 66.7193 36.4419 66.8956 36.4223C66.7209 36.48 66.5524 36.5094 66.3896 36.5132Z" stroke="#A30006"/>
<path d="M66.3896 36.5132C62.7097 36.5951 61.8901 23.538 53.98 30.3094C55.3969 35.6262 55.0597 38.3483 53.1533 42.9058C63.3697 48.001 61.5247 37.7358 66.3896 36.5132ZM66.3896 36.5132C66.5508 36.4727 66.7193 36.4419 66.8956 36.4223C66.7209 36.48 66.5524 36.5094 66.3896 36.5132Z" stroke="black" stroke-opacity="0.2"/>
<path d="M52.1102 44.1279C62.6149 44.1178 54.4723 54.4859 57.301 56.7939C57.4496 56.867 57.597 56.9524 57.7433 57.0511C57.5727 56.9822 57.4262 56.8959 57.301 56.7939C52.814 54.5829 47.3174 63.5074 43.0361 53.0893C47.5304 50.8819 49.6112 49.0475 52.1102 44.1279Z" fill="#FF6305"/>
<path d="M57.301 56.7939C54.4723 54.4859 62.6149 44.1178 52.1102 44.1279C49.6112 49.0475 47.5304 50.8819 43.0361 53.0893C47.3174 63.5074 52.814 54.5829 57.301 56.7939ZM57.301 56.7939C57.4496 56.867 57.597 56.9524 57.7433 57.0511C57.5727 56.9822 57.4262 56.8959 57.301 56.7939Z" stroke="#A30006"/>
<path d="M57.301 56.7939C54.4723 54.4859 62.6149 44.1178 52.1102 44.1279C49.6112 49.0475 47.5304 50.8819 43.0361 53.0893C47.3174 63.5074 52.814 54.5829 57.301 56.7939ZM57.301 56.7939C57.4496 56.867 57.597 56.9524 57.7433 57.0511C57.5727 56.9822 57.4262 56.8959 57.301 56.7939Z" stroke="black" stroke-opacity="0.2"/>
<path d="M41.447 53.8438C48.9344 61.0616 35.7055 62.8442 36.0657 66.433C36.1189 66.5873 36.1627 66.7497 36.1961 66.9205C36.1241 66.7539 36.0815 66.5918 36.0657 66.433C34.4552 61.7723 24.145 64.347 28.5631 53.9836C33.3454 55.503 36.1417 55.628 41.447 53.8438Z" fill="#FF6305"/>
<path d="M36.0657 66.433C35.7055 62.8442 48.9344 61.0616 41.447 53.8438C36.1417 55.628 33.3454 55.503 28.5631 53.9836C24.145 64.347 34.4552 61.7723 36.0657 66.433ZM36.0657 66.433C36.1189 66.5873 36.1627 66.7497 36.1961 66.9205C36.1241 66.7539 36.0815 66.5918 36.0657 66.433Z" stroke="#A30006"/>
<path d="M36.0657 66.433C35.7055 62.8442 48.9344 61.0616 41.447 53.8438C36.1417 55.628 33.3454 55.503 28.5631 53.9836C24.145 64.347 34.4552 61.7723 36.0657 66.433ZM36.0657 66.433C36.1189 66.5873 36.1627 66.7497 36.1961 66.9205C36.1241 66.7539 36.0815 66.5918 36.0657 66.433Z" stroke="black" stroke-opacity="0.2"/>
<path d="M26.1733 52.0857C25.944 62.3741 15.5488 54.1627 13.129 56.8801C13.0509 57.024 12.9604 57.1665 12.8563 57.3075C12.9306 57.1421 13.022 57.0003 13.129 56.8801C15.4878 52.5361 6.5056 46.9493 17.2354 42.9941C19.3854 47.4463 21.2099 49.5259 26.1733 52.0857Z" fill="#FF6305"/>
<path d="M13.129 56.8801C15.5488 54.1627 25.944 62.3741 26.1733 52.0857C21.2099 49.5259 19.3854 47.4463 17.2354 42.9941C6.5056 46.9493 15.4878 52.5361 13.129 56.8801ZM13.129 56.8801C13.0509 57.024 12.9604 57.1665 12.8563 57.3075C12.9306 57.1421 13.022 57.0003 13.129 56.8801Z" stroke="#A30006"/>
<path d="M13.129 56.8801C15.5488 54.1627 25.944 62.3741 26.1733 52.0857C21.2099 49.5259 19.3854 47.4463 17.2354 42.9941C6.5056 46.9493 15.4878 52.5361 13.129 56.8801ZM13.129 56.8801C13.0509 57.024 12.9604 57.1665 12.8563 57.3075C12.9306 57.1421 13.022 57.0003 13.129 56.8801Z" stroke="black" stroke-opacity="0.2"/>
<path d="M16.7276 41.0829C9.08056 48.1384 7.76502 35.1206 4.09056 35.3366C3.93114 35.383 3.76399 35.4197 3.58838 35.446C3.76089 35.3816 3.92804 35.3461 4.09056 35.3366C8.90578 33.9372 6.67146 23.7464 17.0746 28.4653C15.343 33.089 15.1094 35.8218 16.7276 41.0829Z" fill="#FF6305"/>
<path d="M4.09056 35.3366C7.76502 35.1206 9.08056 48.1384 16.7276 41.0829C15.1094 35.8218 15.343 33.089 17.0746 28.4653C6.67146 23.7464 8.90578 33.9372 4.09056 35.3366ZM4.09056 35.3366C3.93114 35.383 3.76399 35.4197 3.58838 35.446C3.76089 35.3816 3.92804 35.3461 4.09056 35.3366Z" stroke="#A30006"/>
<path d="M4.09056 35.3366C7.76502 35.1206 9.08056 48.1384 16.7276 41.0829C15.1094 35.8218 15.343 33.089 17.0746 28.4653C6.67146 23.7464 8.90578 33.9372 4.09056 35.3366ZM4.09056 35.3366C3.93114 35.383 3.76399 35.4197 3.58838 35.446C3.76089 35.3816 3.92804 35.3461 4.09056 35.3366Z" stroke="black" stroke-opacity="0.2"/>
<path d="M17.7665 26.9254C7.26423 26.7041 15.6429 16.5181 12.8681 14.1484C12.7213 14.072 12.5758 13.9834 12.4318 13.8814C12.6008 13.9541 12.7454 14.0436 12.8681 14.1484C17.3032 16.4578 23.0033 7.65661 27.044 18.1667C22.5002 20.2744 20.3779 22.0624 17.7665 26.9254Z" fill="#FF6305"/>
<path d="M12.8681 14.1484C15.6429 16.5181 7.26423 26.7041 17.7665 26.9254C20.3779 22.0624 22.5002 20.2744 27.044 18.1667C23.0033 7.65661 17.3032 16.4578 12.8681 14.1484ZM12.8681 14.1484C12.7213 14.072 12.5758 13.9834 12.4318 13.8814C12.6008 13.9541 12.7454 14.0436 12.8681 14.1484Z" stroke="#A30006"/>
<path d="M12.8681 14.1484C15.6429 16.5181 7.26423 26.7041 17.7665 26.9254C20.3779 22.0624 22.5002 20.2744 27.044 18.1667C23.0033 7.65661 17.3032 16.4578 12.8681 14.1484ZM12.8681 14.1484C12.7213 14.072 12.5758 13.9834 12.4318 13.8814C12.6008 13.9541 12.7454 14.0436 12.8681 14.1484Z" stroke="black" stroke-opacity="0.2"/>
<path d="M54.4117 35.5001C54.4117 45.8543 45.8413 54.2605 35.254 54.2605C24.6665 54.2605 16.0962 45.8543 16.0962 35.5001C16.0962 25.146 24.6665 16.7397 35.254 16.7397C45.8413 16.7397 54.4117 25.146 54.4117 35.5001Z" fill="#D9D9D9" stroke="#920104" stroke-width="3"/>
<path d="M53.9199 35.5002C53.9199 45.5883 45.5699 53.7786 35.2543 53.7786C24.9385 53.7786 16.5884 45.5883 16.5884 35.5002C16.5884 25.412 24.9385 17.2217 35.2543 17.2217C45.5699 17.2217 53.9199 25.412 53.9199 35.5002Z" fill="#FDFF06" stroke="#51588C" stroke-width="3"/>
<path d="M35.4268 18.5449L40.8133 26.89H30.04L35.4268 18.5449Z" fill="#D60105"/>
<path d="M50.7933 26.9116L46.3655 35.7814L40.7153 26.7954L50.7933 26.9116Z" fill="#D60105"/>
<path d="M50.7933 43.8749L40.7153 43.9904L46.366 35.0049L50.7933 43.8749Z" fill="#D60105"/>
<path d="M36.7133 52.3278L30.6108 44.4697L41.3437 43.5576L36.7133 52.3278Z" fill="#D60105"/>
<path d="M20.8643 44.9547L25.3073 36.0923L30.9421 45.0875L20.8643 44.9547Z" fill="#D60105"/>
<path d="M20.4023 27.8939L30.4346 26.9463L25.5772 36.3666L20.4023 27.8939Z" fill="#D60105"/>
<path d="M33.1104 11.644L33.6512 16.4127" stroke="#D60105"/>
<path d="M36.8965 11.6694L36.3556 16.4381" stroke="#D60105"/>
<path d="M51.9365 17.5654L48.5738 21.0538" stroke="#D60105"/>
<path d="M54.3652 20.4111L50.3028 23.0913" stroke="#D60105" stroke-width="0.999987"/>
<path d="M60.2505 34.8306L55.3598 35.0873" stroke="#D60105" stroke-width="0.999994"/>
<path d="M60.0078 38.5322L55.1789 37.731" stroke="#D60105"/>
<path d="M54.2158 51.5151L50.2469 48.7038" stroke="#D60105" stroke-width="0.99999"/>
<path d="M51.6528 54.2451L48.4107 50.6488" stroke="#D60105" stroke-width="0.999999"/>
<path d="M37.2593 60.4165L36.6613 55.6544" stroke="#D60105"/>
<path d="M33.4731 60.4351L33.9568 55.6605" stroke="#D60105"/>
<path d="M18.7041 54.0684L21.8264 50.3717" stroke="#D60105" stroke-width="0.999996"/>
<path d="M16.0903 51.3848L19.9648 48.4497" stroke="#D60105" stroke-width="0.999993"/>
<path d="M9.77148 37.521L14.6507 37.1043" stroke="#D60105" stroke-width="0.999998"/>
<path d="M9.88818 33.8135L14.7418 34.4562" stroke="#D60105"/>
<path d="M15.75 19.7314L19.8648 22.3337" stroke="#D60105" stroke-width="0.999986"/>
<path d="M18.1626 16.873L21.5939 20.2967" stroke="#D60105"/>
<path d="M35.7497 43.1816C39.9607 43.1816 43.3744 39.8014 43.3744 35.6318C43.3744 31.4622 39.9607 28.082 35.7497 28.082C31.5387 28.082 28.125 31.4622 28.125 35.6318C28.125 39.8014 31.5387 43.1816 35.7497 43.1816Z" fill="#B80007"/>
<path d="M35.7572 42.8743L28.7041 32.7695L42.4883 32.561L35.7572 42.8743Z" fill="#EB0000"/>
</g>
</g>
<defs>
<clipPath id="clip0_66_1470">
<rect width="71" height="71" fill="white"/>
</clipPath>
</defs>
</svg>
