<svg width="36" height="36" viewBox="0 0 36 36" fill="none" xmlns="http://www.w3.org/2000/svg">
<g clip-path="url(#clip0_66_1470)">
<mask id="mask0_66_1470" style="mask-type:luminance" maskUnits="userSpaceOnUse" x="0" y="0" width="36" height="36">
<path d="M36 0H0V36H36V0Z" fill="white"/>
</mask>
<g mask="url(#mask0_66_1470)">
<path d="M10.2263 0V2.28054H14.7991V4.47964H4.15704V14.7421H2.16167V10.181H0V25.4932H2.16167V21.095H4.15704V31.5204H14.7991V33.3122H10.2263V36H25.6906V33.3122H20.8684V31.5204H31.6766V21.095H33.7552V25.4932H36V10.6697H33.7552V14.7421H31.6766V3.82806H20.8684V2.28054H25.6906V0H10.2263Z" fill="#B80007" stroke="#920104" stroke-width="2"/>
<path d="M14.9238 9.00001C11.3409 5.13911 18.0895 4.6021 18.0104 2.77528C17.9879 2.69569 17.9705 2.61235 17.9585 2.5249C17.9901 2.61115 18.0069 2.69447 18.0104 2.77528C18.6917 5.17922 23.9853 4.16063 21.4503 9.28508C19.073 8.38378 17.661 8.24332 14.9238 9.00001Z" fill="#FF6305"/>
<path d="M18.0104 2.77528C18.0895 4.6021 11.3409 5.13911 14.9238 9.00001C17.661 8.24332 19.073 8.38378 21.4503 9.28508C23.9853 4.16063 18.6917 5.17922 18.0104 2.77528ZM18.0104 2.77528C17.9879 2.69569 17.9705 2.61235 17.9585 2.5249C17.9901 2.61115 18.0069 2.69447 18.0104 2.77528Z" stroke="#A30006"/>
<path d="M18.0104 2.77528C18.0895 4.6021 11.3409 5.13911 14.9238 9.00001C17.661 8.24332 19.073 8.38378 21.4503 9.28508C23.9853 4.16063 18.6917 5.17922 18.0104 2.77528ZM18.0104 2.77528C17.9879 2.69569 17.9705 2.61235 17.9585 2.5249C17.9901 2.61115 18.0069 2.69447 18.0104 2.77528Z" stroke="black" stroke-opacity="0.2"/>
<path d="M22.2759 9.85514C22.7753 4.63857 27.6831 8.36617 28.9985 6.89107C29.043 6.81506 29.0938 6.73922 29.1513 6.66357C29.1078 6.75041 29.0566 6.82583 28.9985 6.89107C27.653 9.18689 31.95 11.6444 26.4197 14.0883C25.5076 11.9236 24.67 10.9462 22.2759 9.85514Z" fill="#FF6305"/>
<path d="M28.9985 6.89107C27.6831 8.36617 22.7753 4.63857 22.2759 9.85514C24.67 10.9462 25.5076 11.9236 26.4197 14.0883C31.95 11.6444 27.653 9.18689 28.9985 6.89107ZM28.9985 6.89107C29.043 6.81506 29.0938 6.73922 29.1513 6.66357C29.1078 6.75041 29.0566 6.82583 28.9985 6.89107Z" stroke="#A30006"/>
<path d="M28.9985 6.89107C27.6831 8.36617 22.7753 4.63857 22.2759 9.85514C24.67 10.9462 25.5076 11.9236 26.4197 14.0883C31.95 11.6444 27.653 9.18689 28.9985 6.89107ZM28.9985 6.89107C29.043 6.81506 29.0938 6.73922 29.1513 6.66357C29.1078 6.75041 29.0566 6.82583 28.9985 6.89107Z" stroke="black" stroke-opacity="0.2"/>
<path d="M27.3703 15.3684C31.3811 11.935 31.7967 18.5555 33.6625 18.514C33.7443 18.4934 33.8297 18.4778 33.9191 18.4679C33.8305 18.4972 33.7451 18.512 33.6625 18.514C31.1958 19.1339 32.1313 24.3388 26.9512 21.7553C27.9178 19.4444 28.0888 18.0642 27.3703 15.3684Z" fill="#FF6305"/>
<path d="M33.6625 18.514C31.7967 18.5555 31.3811 11.935 27.3703 15.3684C28.0888 18.0642 27.9178 19.4444 26.9512 21.7553C32.1313 24.3388 31.1958 19.1339 33.6625 18.514ZM33.6625 18.514C33.7443 18.4934 33.8297 18.4778 33.9191 18.4679C33.8305 18.4972 33.7451 18.512 33.6625 18.514Z" stroke="#A30006"/>
<path d="M33.6625 18.514C31.7967 18.5555 31.3811 11.935 27.3703 15.3684C28.0888 18.0642 27.9178 19.4444 26.9512 21.7553C32.1313 24.3388 31.1958 19.1339 33.6625 18.514ZM33.6625 18.514C33.7443 18.4934 33.8297 18.4778 33.9191 18.4679C33.8305 18.4972 33.7451 18.512 33.6625 18.514Z" stroke="black" stroke-opacity="0.2"/>
<path d="M26.4222 22.375C31.7485 22.3698 27.6199 27.6269 29.0542 28.7972C29.1295 28.8342 29.2043 28.8776 29.2784 28.9276C29.1919 28.8927 29.1176 28.8489 29.0542 28.7972C26.7791 27.6761 23.9921 32.2012 21.8213 26.9188C24.1001 25.7996 25.1551 24.8694 26.4222 22.375Z" fill="#FF6305"/>
<path d="M29.0542 28.7972C27.6199 27.6269 31.7485 22.3698 26.4222 22.375C25.1551 24.8694 24.1001 25.7996 21.8213 26.9188C23.9921 32.2012 26.7791 27.6761 29.0542 28.7972ZM29.0542 28.7972C29.1295 28.8342 29.2043 28.8776 29.2784 28.9276C29.1919 28.8927 29.1176 28.8489 29.0542 28.7972Z" stroke="#A30006"/>
<path d="M29.0542 28.7972C27.6199 27.6269 31.7485 22.3698 26.4222 22.375C25.1551 24.8694 24.1001 25.7996 21.8213 26.9188C23.9921 32.2012 26.7791 27.6761 29.0542 28.7972ZM29.0542 28.7972C29.1295 28.8342 29.2043 28.8776 29.2784 28.9276C29.1919 28.8927 29.1176 28.8489 29.0542 28.7972Z" stroke="black" stroke-opacity="0.2"/>
<path d="M21.0155 27.3013C24.812 30.961 18.1043 31.8649 18.287 33.6845C18.314 33.7628 18.3362 33.8451 18.3531 33.9317C18.3166 33.8473 18.295 33.7651 18.287 33.6845C17.4704 31.3214 12.2427 32.6269 14.4829 27.3722C16.9077 28.1426 18.3255 28.2059 21.0155 27.3013Z" fill="#FF6305"/>
<path d="M18.287 33.6845C18.1043 31.8649 24.812 30.961 21.0155 27.3013C18.3255 28.2059 16.9077 28.1426 14.4829 27.3722C12.2427 32.6269 17.4704 31.3214 18.287 33.6845ZM18.287 33.6845C18.314 33.7628 18.3362 33.8451 18.3531 33.9317C18.3166 33.8473 18.295 33.7651 18.287 33.6845Z" stroke="#A30006"/>
<path d="M18.287 33.6845C18.1043 31.8649 24.812 30.961 21.0155 27.3013C18.3255 28.2059 16.9077 28.1426 14.4829 27.3722C12.2427 32.6269 17.4704 31.3214 18.287 33.6845ZM18.287 33.6845C18.314 33.7628 18.3362 33.8451 18.3531 33.9317C18.3166 33.8473 18.295 33.7651 18.287 33.6845Z" stroke="black" stroke-opacity="0.2"/>
<path d="M13.2709 26.4096C13.1546 31.6262 7.88383 27.4627 6.65689 28.8406C6.61729 28.9135 6.57139 28.9858 6.51861 29.0573C6.55627 28.9734 6.60262 28.9015 6.65689 28.8406C7.85289 26.638 3.29853 23.8052 8.73901 21.7998C9.82916 24.0572 10.7543 25.1117 13.2709 26.4096Z" fill="#FF6305"/>
<path d="M6.65689 28.8406C7.88383 27.4627 13.1546 31.6262 13.2709 26.4096C10.7543 25.1117 9.82916 24.0572 8.73901 21.7998C3.29853 23.8052 7.85289 26.638 6.65689 28.8406ZM6.65689 28.8406C6.61729 28.9135 6.57139 28.9858 6.51861 29.0573C6.55627 28.9734 6.60262 28.9015 6.65689 28.8406Z" stroke="#A30006"/>
<path d="M6.65689 28.8406C7.88383 27.4627 13.1546 31.6262 13.2709 26.4096C10.7543 25.1117 9.82916 24.0572 8.73901 21.7998C3.29853 23.8052 7.85289 26.638 6.65689 28.8406ZM6.65689 28.8406C6.61729 28.9135 6.57139 28.9858 6.51861 29.0573C6.55627 28.9734 6.60262 28.9015 6.65689 28.8406Z" stroke="black" stroke-opacity="0.2"/>
<path d="M8.4815 20.8307C4.6041 24.4081 3.93707 17.8075 2.07396 17.9171C1.99313 17.9406 1.90838 17.9592 1.81934 17.9725C1.9068 17.9399 1.99156 17.9219 2.07396 17.9171C4.51548 17.2075 3.38259 12.0403 8.65742 14.433C7.77944 16.7774 7.66096 18.1631 8.4815 20.8307Z" fill="#FF6305"/>
<path d="M2.07396 17.9171C3.93707 17.8075 4.6041 24.4081 8.4815 20.8307C7.66096 18.1631 7.77944 16.7774 8.65742 14.433C3.38259 12.0403 4.51548 17.2075 2.07396 17.9171ZM2.07396 17.9171C1.99313 17.9406 1.90838 17.9592 1.81934 17.9725C1.9068 17.9399 1.99156 17.9219 2.07396 17.9171Z" stroke="#A30006"/>
<path d="M2.07396 17.9171C3.93707 17.8075 4.6041 24.4081 8.4815 20.8307C7.66096 18.1631 7.77944 16.7774 8.65742 14.433C3.38259 12.0403 4.51548 17.2075 2.07396 17.9171ZM2.07396 17.9171C1.99313 17.9406 1.90838 17.9592 1.81934 17.9725C1.9068 17.9399 1.99156 17.9219 2.07396 17.9171Z" stroke="black" stroke-opacity="0.2"/>
<path d="M9.00815 13.6522C3.68308 13.54 7.93141 8.37526 6.52447 7.17376C6.45002 7.13499 6.37627 7.09005 6.30328 7.03836C6.38896 7.07521 6.46225 7.12061 6.52447 7.17376C8.77327 8.34468 11.6635 3.88212 13.7123 9.21117C11.4084 10.2799 10.3323 11.1865 9.00815 13.6522Z" fill="#FF6305"/>
<path d="M6.52447 7.17376C7.93141 8.37526 3.68308 13.54 9.00815 13.6522C10.3323 11.1865 11.4084 10.2799 13.7123 9.21117C11.6635 3.88212 8.77327 8.34468 6.52447 7.17376ZM6.52447 7.17376C6.45002 7.13499 6.37627 7.09005 6.30328 7.03836C6.38896 7.07521 6.46225 7.12061 6.52447 7.17376Z" stroke="#A30006"/>
<path d="M6.52447 7.17376C7.93141 8.37526 3.68308 13.54 9.00815 13.6522C10.3323 11.1865 11.4084 10.2799 13.7123 9.21117C11.6635 3.88212 8.77327 8.34468 6.52447 7.17376ZM6.52447 7.17376C6.45002 7.13499 6.37627 7.09005 6.30328 7.03836C6.38896 7.07521 6.46225 7.12061 6.52447 7.17376Z" stroke="black" stroke-opacity="0.2"/>
<path d="M27.5892 18.0001C27.5892 23.2501 23.2436 27.5124 17.8754 27.5124C12.5071 27.5124 8.16162 23.2501 8.16162 18.0001C8.16162 12.7501 12.5071 8.48779 17.8754 8.48779C23.2436 8.48779 27.5892 12.7501 27.5892 18.0001Z" fill="#D9D9D9" stroke="#920104" stroke-width="3"/>
<path d="M27.3398 17.9999C27.3398 23.115 23.106 27.2679 17.8755 27.2679C12.645 27.2679 8.41113 23.115 8.41113 17.9999C8.41113 12.8848 12.645 8.73193 17.8755 8.73193C23.106 8.73193 27.3398 12.8848 27.3398 17.9999Z" fill="#FDFF06" stroke="#51588C" stroke-width="3"/>
<path d="M17.9628 9.40283L20.694 13.6341H15.2314L17.9628 9.40283Z" fill="#D60105"/>
<path d="M25.7545 13.6453L23.5094 18.1427L20.6445 13.5864L25.7545 13.6453Z" fill="#D60105"/>
<path d="M25.7545 22.2465L20.6445 22.3051L23.5097 17.749L25.7545 22.2465Z" fill="#D60105"/>
<path d="M18.6152 26.5323L15.521 22.5479L20.963 22.0854L18.6152 26.5323Z" fill="#D60105"/>
<path d="M10.5791 22.7939L12.8319 18.3003L15.689 22.8613L10.5791 22.7939Z" fill="#D60105"/>
<path d="M10.3447 14.1436L15.4315 13.6631L12.9686 18.4396L10.3447 14.1436Z" fill="#D60105"/>
<path d="M16.7886 5.90381L17.0628 8.32171" stroke="#D60105"/>
<path d="M18.708 5.91699L18.4338 8.3349" stroke="#D60105"/>
<path d="M26.334 8.90674L24.6289 10.6755" stroke="#D60105"/>
<path d="M27.5654 10.3491L25.5056 11.7081" stroke="#D60105" stroke-width="0.999987"/>
<path d="M30.5498 17.6606L28.07 17.7908" stroke="#D60105" stroke-width="0.999994"/>
<path d="M30.4263 19.5376L27.9778 19.1313" stroke="#D60105"/>
<path d="M27.4897 26.1206L25.4774 24.6951" stroke="#D60105" stroke-width="0.99999"/>
<path d="M26.1899 27.5044L24.546 25.6809" stroke="#D60105" stroke-width="0.999999"/>
<path d="M18.8921 30.6338L18.5889 28.2192" stroke="#D60105"/>
<path d="M16.9722 30.6431L17.2174 28.2222" stroke="#D60105"/>
<path d="M9.48389 27.415L11.067 25.5407" stroke="#D60105" stroke-width="0.999996"/>
<path d="M8.15869 26.0542L10.1232 24.566" stroke="#D60105" stroke-width="0.999993"/>
<path d="M4.95459 19.0249L7.42856 18.8136" stroke="#D60105" stroke-width="0.999998"/>
<path d="M5.01367 17.145L7.47464 17.4709" stroke="#D60105"/>
<path d="M7.98584 10.0049L10.0722 11.3243" stroke="#D60105" stroke-width="0.999986"/>
<path d="M9.20898 8.55518L10.9488 10.2911" stroke="#D60105"/>
<path d="M18.1268 21.8949C20.262 21.8949 21.9928 20.181 21.9928 18.0668C21.9928 15.9527 20.262 14.2388 18.1268 14.2388C15.9916 14.2388 14.2607 15.9527 14.2607 18.0668C14.2607 20.181 15.9916 21.8949 18.1268 21.8949Z" fill="#B80007"/>
<path d="M18.1304 21.739L14.5542 16.6155L21.5434 16.5098L18.1304 21.739Z" fill="#EB0000"/>
</g>
</g>
<defs>
<clipPath id="clip0_66_1470">
<rect width="36" height="36" fill="white"/>
</clipPath>
</defs>
</svg>
