<svg width="71" height="71" viewBox="0 0 71 71" fill="none" xmlns="http://www.w3.org/2000/svg">
<g clip-path="url(#clip0_66_641)">
<mask id="mask0_66_641" style="mask-type:luminance" maskUnits="userSpaceOnUse" x="0" y="0" width="71" height="71">
<path d="M71 0H0V71H71V0Z" fill="white"/>
</mask>
<g mask="url(#mask0_66_641)">
<path d="M20.1686 0V4.49773H29.1872V8.83484H8.19861V29.0747H4.26329V20.0792H0V50.2782H4.26329V41.6041H8.19861V62.1652H29.1872V65.6991H20.1686V71H50.6675V65.6991H41.157V62.1652H62.4734V41.6041H66.5727V50.2782H71V21.043H66.5727V29.0747H62.4734V7.54978H41.157V4.49773H50.6675V0H20.1686Z" fill="url(#paint0_radial_66_641)" stroke="#34C6DD" stroke-width="2"/>
<path d="M35.4265 60.4032C49.6153 60.4032 61.1176 49.2537 61.1176 35.5002C61.1176 21.7466 49.6153 10.5972 35.4265 10.5972C21.2377 10.5972 9.73535 21.7466 9.73535 35.5002C9.73535 49.2537 21.2377 60.4032 35.4265 60.4032Z" fill="#000805"/>
<path d="M30.8069 18.478C26.1572 15.8246 34.4161 14.7527 34.2024 13.3404C34.1695 13.2808 34.1428 13.2177 34.1224 13.1509C34.1669 13.2148 34.1929 13.278 34.2024 13.3404C35.1931 15.1428 41.6333 13.8377 38.8456 18.0665C35.8666 17.5966 34.1224 17.6244 30.8069 18.478Z" fill="#067517"/>
<path d="M40.1857 18.2835C37.7874 13.5646 45.2904 17.1119 45.9034 15.8167C45.9093 15.7491 45.9223 15.682 45.9427 15.6152C45.9441 15.6926 45.9304 15.7594 45.9034 15.8167C45.7209 17.856 51.8347 20.23 47.1345 22.2644C44.9082 20.2689 43.4349 19.3538 40.1857 18.2835Z" fill="#067517"/>
<path d="M48.2583 23.3211C48.7591 18.0724 53.2264 24.9612 54.4443 24.1769C54.4857 24.1227 54.5328 24.0723 54.5863 24.0261C54.5456 24.0926 54.4983 24.1423 54.4443 24.1769C53.1921 25.8158 57.1103 30.9903 52.0213 30.2921C51.2031 27.4467 50.4437 25.9083 48.2583 23.3211Z" fill="#067517"/>
<path d="M52.2842 32.1343C55.2879 27.7605 55.8453 35.9037 57.2977 35.7861C57.3607 35.7579 57.4267 35.7357 57.496 35.7203C57.4279 35.7596 57.3621 35.7809 57.2977 35.7861C55.3975 36.6381 56.3103 43.0184 52.1831 40.0193C52.8545 37.1375 52.939 35.4306 52.2842 32.1343Z" fill="#067517"/>
<path d="M51.3128 41.4654C56.1801 39.2175 52.3993 46.49 53.7081 47.1181C53.777 47.1255 53.8451 47.1394 53.9128 47.161C53.8338 47.1607 53.7661 47.1458 53.7081 47.1181C51.6309 46.8959 49.077 52.8329 47.1016 48.186C49.1856 46.0482 50.1512 44.6249 51.3128 41.4654Z" fill="#067517"/>
<path d="M46.0196 49.1162C51.3217 50.0172 43.9606 53.8396 44.6631 55.0904C44.7151 55.1351 44.7627 55.1851 44.8053 55.2409C44.7409 55.1959 44.6941 55.1458 44.6631 55.0904C43.0935 53.7388 37.5205 57.1593 38.6304 52.244C41.5902 51.6684 43.2154 51.0474 46.0196 49.1162Z" fill="#067517"/>
<path d="M36.6099 52.439C40.6507 55.9201 32.3357 55.4134 32.2678 56.8395C32.2884 56.9042 32.3021 56.9711 32.309 57.0407C32.2779 56.9695 32.2649 56.9025 32.2678 56.8395C31.6501 54.884 25.0738 54.9491 28.6409 51.3257C31.4716 52.349 33.1886 52.651 36.6099 52.439Z" fill="#067517"/>
<path d="M27.2235 50.4507C28.7039 55.519 21.9865 50.6914 21.1428 51.8556C21.1243 51.9209 21.0991 51.9846 21.0666 52.0466C21.0797 51.9701 21.1055 51.9069 21.1428 51.8556C21.7015 49.883 16.1318 46.457 21.1319 45.2959C22.9496 47.6555 24.2278 48.8184 27.2235 50.4507Z" fill="#067517"/>
<path d="M20.4751 44.3021C18.9621 49.3609 15.9171 41.7641 14.569 42.3066C14.5178 42.352 14.4617 42.3927 14.4004 42.428C14.4531 42.3705 14.5094 42.3305 14.569 42.3066C16.1172 40.9315 13.2778 35.1202 18.1375 36.756C18.387 39.7021 18.8333 41.3542 20.4751 44.3021Z" fill="#067517"/>
<path d="M17.751 35.5386C13.815 39.1334 15.1527 31.0777 13.7108 30.8706C13.643 30.8841 13.5736 30.891 13.5024 30.8907C13.5778 30.8676 13.647 30.8614 13.7108 30.8706C15.7584 30.4619 16.3429 24.0447 19.6706 27.8806C18.3509 30.5388 17.8743 32.1827 17.751 35.5386Z" fill="#067517"/>
<path d="M20.3771 26.7267C15.4678 27.7649 19.9596 21.8877 18.7908 21.036C18.7262 21.0148 18.663 20.9874 18.6012 20.9535C18.6764 20.9705 18.7391 20.9983 18.7908 21.036C20.7411 21.6772 23.9008 16.7672 25.211 21.447C22.9647 22.9697 21.8709 24.0724 20.3771 26.7267Z" fill="#067517"/>
<path d="M25.7163 20.695C22.407 19.03 26.4627 16.9791 25.9042 15.7856C25.868 15.7384 25.8339 15.6874 25.8019 15.6323C25.8457 15.6816 25.8796 15.7328 25.9042 15.7856C26.999 17.2113 30.0139 15.2058 29.8629 19.2459C28.13 19.2441 27.2111 19.5053 25.7163 20.695Z" fill="#067517"/>
<path d="M52.7677 35.2351C52.7677 44.9096 45.0017 52.7484 35.4264 52.7484C25.8511 52.7484 18.085 44.9096 18.085 35.2351C18.085 25.5604 25.8511 17.7217 35.4264 17.7217C45.0017 17.7217 52.7677 25.5604 52.7677 35.2351Z" fill="#009426" stroke="#E20018" stroke-width="2"/>
<path d="M32.081 23.4744L35.3631 19.0747L38.8177 23.4744H32.081L29.1444 27.6891L25.8626 31.0893H30.8718L28.4536 35.1505L25.8626 31.0893L22.7532 35.1505L25.8626 39.2117H19.4712L22.7532 35.1505L19.9894 31.0893H25.8626L23.9624 27.705L29.1444 27.6891L25.8626 23.4744H32.081Z" fill="#0BA708"/>
<path d="M39.3359 23.4741L45.0361 23.9817L42.4562 27.6888L42.468 27.7047H46.9363L45.0361 31.089H51.0819L48.3181 35.1502L45.0361 31.089L42.468 27.7047H42.445L42.4562 27.6888L39.3359 23.4741Z" fill="#0BA708"/>
<path d="M32.081 23.4744L35.3631 19.0747L38.8177 23.4744H32.081ZM32.081 23.4744L29.1444 27.6891M32.081 23.4744H25.8626L29.1444 27.6891M29.1444 27.6891L25.8626 31.0893M29.1444 27.6891L23.9624 27.705L25.8626 31.0893M42.4562 27.6891L42.4451 27.705H46.9363L45.0361 31.0893M42.4562 27.6891L45.0361 23.982L39.336 23.4744L42.4562 27.6891ZM42.4562 27.6891L45.0361 31.0893M45.0361 31.0893H51.082L48.3182 35.1505L45.0361 31.0893ZM25.8626 31.0893L22.7532 35.1505M25.8626 31.0893H19.9894L22.7532 35.1505M25.8626 31.0893L28.4536 35.1505L30.8719 31.0893H25.8626ZM22.7532 35.1505L25.8626 39.2117H19.4712L22.7532 35.1505Z" stroke="#86E094"/>
<path d="M23.9624 42.9348L25.8626 39.381L28.9717 42.9348L31.9082 46.8268H35.622L33.4629 42.9348H37.9541L35.622 46.8268H39.336L42.0998 42.9348L45.0361 39.381L48.1455 35.3198L51.4276 39.0426L45.0361 39.381L47.2819 42.9348H42.0998L43.827 46.8268H39.336L35.7084 51.3956L31.9082 46.8268H27.0717L28.9717 42.9348H23.9624Z" fill="#0BA708"/>
<path d="M28.9717 42.9348L25.8626 39.381L23.9624 42.9348H28.9717ZM28.9717 42.9348L31.9082 46.8268M28.9717 42.9348L27.0717 46.8268H31.9082M31.9082 46.8268L35.7084 51.3956L39.336 46.8268M31.9082 46.8268H35.622M39.336 46.8268L42.0998 42.9348M39.336 46.8268H43.827L42.0998 42.9348M39.336 46.8268H35.622M35.622 46.8268L37.9541 42.9348H33.4629L35.622 46.8268ZM42.0998 42.9348L45.0361 39.381M42.0998 42.9348H47.2819L45.0361 39.381M45.0361 39.381L51.4276 39.0426L48.1455 35.3198L45.0361 39.381Z" stroke="#86E094"/>
<path d="M29.1441 42.9345L31.0443 39.2115H26.2075L28.4532 35.3195L31.0443 39.2115L32.2534 37.1809L33.8081 39.2115H37.4355L38.9901 37.1809L40.0265 39.2115L42.6175 35.1503L40.0265 30.7506L37.9538 27.8739H35.3627L37.4355 30.7506H33.8081L35.3627 27.8739H32.7715L31.0443 30.7506L29.1441 27.8739H32.7715L35.708 23.8125L37.9538 27.8739H42.272L40.0265 30.7506H44.6905L42.6175 35.1503L44.6905 39.2115H40.0265L42.272 42.9345H37.9538L40.0265 39.2115H37.4355L35.708 42.9345L33.8081 39.2115H31.0443L33.2898 42.9345H29.1441Z" fill="#0BA708"/>
<path d="M31.0443 39.2115L29.1441 42.9345H33.2898L31.0443 39.2115ZM31.0443 39.2115H26.2075L28.4532 35.3195L31.0443 39.2115ZM31.0443 39.2115H33.8081M31.0443 39.2115L32.2534 37.1809L33.8081 39.2115M33.8081 39.2115H37.4355M33.8081 39.2115L35.708 42.9345L37.4355 39.2115M32.7715 27.8739L31.0443 30.7506L29.1441 27.8739H32.7715ZM32.7715 27.8739L35.708 23.8125L37.9538 27.8739M32.7715 27.8739H35.3627M37.9538 27.8739H42.272L40.0265 30.7506M37.9538 27.8739L40.0265 30.7506M37.9538 27.8739H35.3627M35.3627 27.8739L33.8081 30.7506H37.4355L35.3627 27.8739ZM40.0265 30.7506L42.6175 35.1503M40.0265 30.7506H44.6905L42.6175 35.1503M42.6175 35.1503L40.0265 39.2115M42.6175 35.1503L44.6905 39.2115H40.0265M40.0265 39.2115L37.9538 42.9345H42.272L40.0265 39.2115ZM40.0265 39.2115L38.9901 37.1809L37.4355 39.2115M40.0265 39.2115H37.4355" stroke="#86E094"/>
<path d="M33.6354 30.9199L32.4263 32.7813H34.6718L35.5354 30.9199L36.572 32.7813H38.6447L37.4356 30.9199H40.0266L38.6447 32.7813H41.063L40.0266 34.8119L38.6447 32.7813L37.4356 34.4735L36.572 32.7813H34.6718L33.6354 34.4735L32.4263 32.7813L31.078 34.4323L30.0078 32.7813H32.4263L31.0444 30.9199H33.6354Z" fill="#0BA708"/>
<path d="M32.4263 32.7813L33.6354 30.9199H31.0444L32.4263 32.7813ZM32.4263 32.7813H34.6718M32.4263 32.7813L33.6354 34.4735L34.6718 32.7813M32.4263 32.7813L31.078 34.4323M32.4263 32.7813H30.0078L31.078 34.4323M34.6718 32.7813H36.572M34.6718 32.7813L35.5354 30.9199L36.572 32.7813M31.078 34.4323L31.0444 34.4735M38.6447 32.7813L40.0266 30.9199H37.4356L38.6447 32.7813ZM38.6447 32.7813L40.0266 34.8119L41.063 32.7813H38.6447ZM38.6447 32.7813L37.4356 34.4735L36.572 32.7813M38.6447 32.7813H36.572" stroke="#86E094"/>
<path d="M32.0809 37.0121H29.8354L31.0446 34.812L32.0809 37.0121Z" fill="#0BA708"/>
<path d="M37.4359 37.0122H33.6357L35.7085 39.212L37.4359 37.0122Z" fill="#0BA708"/>
<path d="M32.0809 37.0121H29.8354L31.0446 34.812L32.0809 37.0121Z" stroke="#86E094"/>
<path d="M37.4359 37.0122H33.6357L35.7085 39.212L37.4359 37.0122Z" stroke="#86E094"/>
<path d="M41.2357 36.8428H38.9902H37.4355L38.2994 35.9965L38.9902 36.8428L40.0266 34.812L41.2357 36.8428Z" fill="#0BA708"/>
<path d="M38.9901 36.8428H41.2356L40.0265 34.812L38.9901 36.8428ZM38.9901 36.8428L38.2993 35.9965L37.4355 36.8428H38.9901ZM32.2534 36.8428H33.2898" stroke="#86E094"/>
<path d="M33.4628 36.8424H32.4264L32.7717 35.9963L31.2173 34.6426H33.8083H37.2629H39.854L38.2993 35.9963L37.2629 34.6426L35.7083 36.8424L33.8083 34.6426L32.7717 35.9963L33.4628 36.8424Z" fill="#0BA708"/>
<path d="M32.7717 35.9963L33.4628 36.8424H32.4264L32.7717 35.9963ZM32.7717 35.9963L33.8083 34.6426M32.7717 35.9963L31.2173 34.6426H33.8083M33.8083 34.6426H37.2629M33.8083 34.6426L35.7083 36.8424L37.2629 34.6426M37.2629 34.6426H39.854L38.2993 35.9963L37.2629 34.6426Z" stroke="#86E094"/>
<path d="M28.9365 42.9179L31.0999 39.2091L33.2633 42.9179H38.1313L40.0241 39.2091L42.7285 34.9701L40.0241 30.7314L38.0297 27.8171H32.7225L31.0999 30.7314L29.4773 27.8171H32.7225L35.6971 23.8433L38.0297 27.8171H42.1877L40.0241 30.7314H44.6216L42.7285 34.9701L44.8919 39.4739L40.0241 39.2091L42.1877 42.9179H38.1313L35.6971 46.6269L33.2633 42.9179H28.9365Z" fill="#FFA60E"/>
<path d="M31.0997 30.9961L28.3953 34.97L25.9614 30.9961H31.0997Z" fill="#FFA60E"/>
<path d="M33.2631 42.9179L31.0997 39.2091L28.9363 42.9179H33.2631ZM33.2631 42.9179H38.1311M33.2631 42.9179L35.6969 46.6269L38.1311 42.9179M38.1311 42.9179H42.1875L40.0239 39.2091M38.1311 42.9179L40.0239 39.2091M40.0239 39.2091L42.7283 34.9701M40.0239 39.2091L44.8917 39.4739L42.7283 34.9701M42.7283 34.9701L44.6214 30.7314H40.0239M42.7283 34.9701L40.0239 30.7314M40.0239 30.7314L42.1875 27.8171H38.0295M40.0239 30.7314L38.0295 27.8171M38.0295 27.8171H32.7223M38.0295 27.8171L35.6969 23.8433L32.7223 27.8171M32.7223 27.8171L31.0997 30.7314L29.4771 27.8171H32.7223ZM28.3953 34.9701L31.0997 30.9963H25.9614L28.3953 34.9701Z" stroke="#86E094"/>
<path d="M28.3953 35.2354L25.9614 39.2092H31.0997L28.3953 35.2354Z" fill="#FFA60E" stroke="#86E094"/>
</g>
</g>
<defs>
<radialGradient id="paint0_radial_66_641" cx="0" cy="0" r="1" gradientUnits="userSpaceOnUse" gradientTransform="translate(35.5 35.5) rotate(90) scale(35.5)">
<stop offset="0.251788" stop-color="#00CC00"/>
<stop offset="1" stop-color="#02DE0A"/>
</radialGradient>
<clipPath id="clip0_66_641">
<rect width="71" height="71" fill="white"/>
</clipPath>
</defs>
</svg>
