<svg width="36" height="36" viewBox="0 0 36 36" fill="none" xmlns="http://www.w3.org/2000/svg">
<g clip-path="url(#clip0_66_641)">
<mask id="mask0_66_641" style="mask-type:luminance" maskUnits="userSpaceOnUse" x="0" y="0" width="36" height="36">
<path d="M36 0H0V36H36V0Z" fill="white"/>
</mask>
<g mask="url(#mask0_66_641)">
<path d="M10.2263 0V2.28054H14.7991V4.47964H4.15704V14.7421H2.16167V10.181H0V25.4932H2.16167V21.095H4.15704V31.5204H14.7991V33.3122H10.2263V36H25.6906V33.3122H20.8684V31.5204H31.6766V21.095H33.7552V25.4932H36V10.6697H33.7552V14.7421H31.6766V3.82806H20.8684V2.28054H25.6906V0H10.2263Z" fill="url(#paint0_radial_66_641)" stroke="#34C6DD" stroke-width="2"/>
<path d="M17.963 30.6268C25.1573 30.6268 30.9895 24.9736 30.9895 17.9999C30.9895 11.0263 25.1573 5.37305 17.963 5.37305C10.7687 5.37305 4.93652 11.0263 4.93652 17.9999C4.93652 24.9736 10.7687 30.6268 17.963 30.6268Z" fill="#000805"/>
<path d="M15.6205 9.36904C13.2629 8.02368 17.4505 7.48014 17.3422 6.76409C17.3255 6.73383 17.3119 6.70184 17.3016 6.66797C17.3242 6.7004 17.3374 6.73241 17.3422 6.76409C17.8445 7.67797 21.1099 7.0162 19.6964 9.1604C18.186 8.92212 17.3016 8.93621 15.6205 9.36904Z" fill="#067517"/>
<path d="M20.3757 9.27042C19.1597 6.87772 22.964 8.67637 23.2748 8.01961C23.2778 7.98538 23.2844 7.95133 23.2947 7.91748C23.2955 7.95671 23.2885 7.99057 23.2748 8.01961C23.1823 9.05363 26.2823 10.2574 23.8991 11.2889C22.7702 10.2771 22.0232 9.81307 20.3757 9.27042Z" fill="#067517"/>
<path d="M24.4688 11.8249C24.7227 9.16364 26.9878 12.6565 27.6053 12.2589C27.6263 12.2314 27.6502 12.2058 27.6773 12.1824C27.6567 12.2161 27.6327 12.2413 27.6053 12.2589C26.9704 13.0899 28.9571 15.7135 26.3767 15.3595C25.9619 13.9168 25.5768 13.1368 24.4688 11.8249Z" fill="#067517"/>
<path d="M26.5102 16.2933C28.0333 14.0756 28.3159 18.2045 29.0523 18.1449C29.0842 18.1306 29.1177 18.1193 29.1529 18.1115C29.1183 18.1315 29.0849 18.1423 29.0523 18.1449C28.0888 18.5769 28.5517 21.812 26.459 20.2913C26.7994 18.8301 26.8423 17.9647 26.5102 16.2933Z" fill="#067517"/>
<path d="M26.0176 21.0245C28.4855 19.8848 26.5685 23.5722 27.2321 23.8907C27.267 23.8944 27.3016 23.9015 27.3359 23.9124C27.2958 23.9123 27.2615 23.9048 27.2321 23.8907C26.1789 23.778 24.884 26.7884 23.8823 24.4322C24.939 23.3482 25.4286 22.6265 26.0176 21.0245Z" fill="#067517"/>
<path d="M23.3339 24.9043C26.0222 25.3611 22.2899 27.2993 22.646 27.9335C22.6724 27.9561 22.6966 27.9815 22.7182 28.0098C22.6855 27.987 22.6618 27.9615 22.646 27.9335C21.8502 27.2481 19.0244 28.9825 19.5872 26.4902C21.088 26.1984 21.912 25.8835 23.3339 24.9043Z" fill="#067517"/>
<path d="M18.5626 26.5889C20.6115 28.354 16.3954 28.0971 16.3609 28.8202C16.3714 28.8529 16.3783 28.8869 16.3818 28.9222C16.3661 28.8861 16.3595 28.8521 16.3609 28.8202C16.0477 27.8286 12.7133 27.8616 14.5219 26.0244C15.9573 26.5433 16.8279 26.6964 18.5626 26.5889Z" fill="#067517"/>
<path d="M13.8032 25.5805C14.5538 28.1503 11.1478 25.7026 10.7201 26.2928C10.7107 26.326 10.6979 26.3582 10.6814 26.3897C10.6881 26.3509 10.7012 26.3189 10.7201 26.2928C11.0034 25.2926 8.17927 23.5555 10.7145 22.9668C11.6362 24.1632 12.2843 24.7529 13.8032 25.5805Z" fill="#067517"/>
<path d="M10.3819 22.4628C9.61472 25.0278 8.0708 21.176 7.38727 21.451C7.36128 21.474 7.33285 21.4947 7.30176 21.5126C7.32848 21.4834 7.35703 21.4631 7.38727 21.451C8.17226 20.7538 6.73255 17.8072 9.19664 18.6366C9.32316 20.1304 9.54943 20.9681 10.3819 22.4628Z" fill="#067517"/>
<path d="M9.00038 18.0198C7.00466 19.8425 7.68294 15.7579 6.95183 15.6529C6.91746 15.6598 6.88226 15.6633 6.84619 15.6631C6.8844 15.6514 6.91949 15.6483 6.95183 15.6529C7.99006 15.4457 8.28644 12.1919 9.9737 14.1369C9.30456 15.4847 9.0629 16.3182 9.00038 18.0198Z" fill="#067517"/>
<path d="M10.3318 13.5514C7.84261 14.0778 10.1201 11.0978 9.52751 10.666C9.49477 10.6552 9.4627 10.6414 9.43136 10.6241C9.46947 10.6327 9.50129 10.6469 9.52751 10.666C10.5164 10.9911 12.1185 8.50149 12.7828 10.8743C11.6438 11.6464 11.0892 12.2056 10.3318 13.5514Z" fill="#067517"/>
<path d="M13.0395 10.4933C11.3616 9.64904 13.418 8.60915 13.1348 8.00397C13.1164 7.98003 13.0991 7.95419 13.0829 7.92627C13.1051 7.95128 13.1223 7.9772 13.1348 8.00397C13.6899 8.72686 15.2186 7.70998 15.142 9.75851C14.2634 9.75758 13.7974 9.89001 13.0395 10.4933Z" fill="#067517"/>
<path d="M26.7555 17.8659C26.7555 22.7712 22.8178 26.7459 17.9628 26.7459C13.1077 26.7459 9.16992 22.7712 9.16992 17.8659C9.16992 12.9604 13.1077 8.98584 17.9628 8.98584C22.8178 8.98584 26.7555 12.9604 26.7555 17.8659Z" fill="#009426" stroke="#E20018" stroke-width="2"/>
<path d="M16.2663 11.9027L17.9304 9.67188L19.6821 11.9027H16.2663L14.7773 14.0398L13.1133 15.7638H15.6532L14.427 17.823L13.1133 15.7638L11.5367 17.823L13.1133 19.8822H9.87256L11.5367 17.823L10.1353 15.7638H13.1133L12.1498 14.0478L14.7773 14.0398L13.1133 11.9027H16.2663Z" fill="#0BA708"/>
<path d="M19.9448 11.9023L22.835 12.1597L21.5269 14.0394L21.5329 14.0474H23.7985L22.835 15.7634H25.9005L24.4992 17.8226L22.835 15.7634L21.5329 14.0474H21.5213L21.5269 14.0394L19.9448 11.9023Z" fill="#0BA708"/>
<path d="M16.2663 11.9027L17.9304 9.67188L19.6821 11.9027H16.2663ZM16.2663 11.9027L14.7773 14.0398M16.2663 11.9027H13.1133L14.7773 14.0398M14.7773 14.0398L13.1133 15.7638M14.7773 14.0398L12.1498 14.0478L13.1133 15.7638M21.5269 14.0398L21.5213 14.0478H23.7985L22.8351 15.7638M21.5269 14.0398L22.8351 12.1601L19.9449 11.9027L21.5269 14.0398ZM21.5269 14.0398L22.8351 15.7638M22.8351 15.7638H25.9006L24.4992 17.823L22.8351 15.7638ZM13.1133 15.7638L11.5367 17.823M13.1133 15.7638H10.1353L11.5367 17.823M13.1133 15.7638L14.427 17.823L15.6532 15.7638H13.1133ZM11.5367 17.823L13.1133 19.8822H9.87256L11.5367 17.823Z" stroke="#86E094"/>
<path d="M12.1499 21.7698L13.1134 19.9679L14.6898 21.7698L16.1788 23.7432H18.0618L16.9671 21.7698H19.2443L18.0618 23.7432H19.945L21.3463 21.7698L22.8352 19.9679L24.4117 17.9087L26.0759 19.7963L22.8352 19.9679L23.9739 21.7698H21.3463L22.2221 23.7432H19.945L18.1056 26.0598L16.1788 23.7432H13.7265L14.6898 21.7698H12.1499Z" fill="#0BA708"/>
<path d="M14.6898 21.7698L13.1134 19.9679L12.1499 21.7698H14.6898ZM14.6898 21.7698L16.1788 23.7432M14.6898 21.7698L13.7265 23.7432H16.1788M16.1788 23.7432L18.1056 26.0598L19.945 23.7432M16.1788 23.7432H18.0618M19.945 23.7432L21.3463 21.7698M19.945 23.7432H22.2221L21.3463 21.7698M19.945 23.7432H18.0618M18.0618 23.7432L19.2443 21.7698H16.9671L18.0618 23.7432ZM21.3463 21.7698L22.8352 19.9679M21.3463 21.7698H23.9739L22.8352 19.9679M22.8352 19.9679L26.0759 19.7963L24.4117 17.9087L22.8352 19.9679Z" stroke="#86E094"/>
<path d="M14.7775 21.7699L15.741 19.8821H13.2886L14.4273 17.9087L15.741 19.8821L16.3541 18.8525L17.1424 19.8821H18.9816L19.7699 18.8525L20.2954 19.8821L21.6091 17.8229L20.2954 15.5921L19.2444 14.1335H17.9307L18.9816 15.5921H17.1424L17.9307 14.1335H16.6168L15.741 15.5921L14.7775 14.1335H16.6168L18.1057 12.0742L19.2444 14.1335H21.4339L20.2954 15.5921H22.6602L21.6091 17.8229L22.6602 19.8821H20.2954L21.4339 21.7699H19.2444L20.2954 19.8821H18.9816L18.1057 21.7699L17.1424 19.8821H15.741L16.8796 21.7699H14.7775Z" fill="#0BA708"/>
<path d="M15.741 19.8821L14.7775 21.7699H16.8796L15.741 19.8821ZM15.741 19.8821H13.2886L14.4273 17.9087L15.741 19.8821ZM15.741 19.8821H17.1424M15.741 19.8821L16.3541 18.8525L17.1424 19.8821M17.1424 19.8821H18.9816M17.1424 19.8821L18.1057 21.7699L18.9816 19.8821M16.6168 14.1335L15.741 15.5921L14.7775 14.1335H16.6168ZM16.6168 14.1335L18.1057 12.0742L19.2444 14.1335M16.6168 14.1335H17.9307M19.2444 14.1335H21.4339L20.2954 15.5921M19.2444 14.1335L20.2954 15.5921M19.2444 14.1335H17.9307M17.9307 14.1335L17.1424 15.5921H18.9816L17.9307 14.1335ZM20.2954 15.5921L21.6091 17.8229M20.2954 15.5921H22.6602L21.6091 17.8229M21.6091 17.8229L20.2954 19.8821M21.6091 17.8229L22.6602 19.8821H20.2954M20.2954 19.8821L19.2444 21.7699H21.4339L20.2954 19.8821ZM20.2954 19.8821L19.7699 18.8525L18.9816 19.8821M20.2954 19.8821H18.9816" stroke="#86E094"/>
<path d="M17.0547 15.6777L16.4416 16.6215H17.5802L18.0181 15.6777L18.5437 16.6215H19.5946L18.9815 15.6777H20.2953L19.5946 16.6215H20.8208L20.2953 17.6511L19.5946 16.6215L18.9815 17.4795L18.5437 16.6215H17.5802L17.0547 17.4795L16.4416 16.6215L15.758 17.4587L15.2153 16.6215H16.4416L15.7409 15.6777H17.0547Z" fill="#0BA708"/>
<path d="M16.4416 16.6215L17.0547 15.6777H15.7409L16.4416 16.6215ZM16.4416 16.6215H17.5802M16.4416 16.6215L17.0547 17.4795L17.5802 16.6215M16.4416 16.6215L15.758 17.4587M16.4416 16.6215H15.2153L15.758 17.4587M17.5802 16.6215H18.5437M17.5802 16.6215L18.0181 15.6777L18.5437 16.6215M15.758 17.4587L15.7409 17.4795M19.5946 16.6215L20.2953 15.6777H18.9815L19.5946 16.6215ZM19.5946 16.6215L20.2953 17.6511L20.8208 16.6215H19.5946ZM19.5946 16.6215L18.9815 17.4795L18.5437 16.6215M19.5946 16.6215H18.5437" stroke="#86E094"/>
<path d="M16.2665 18.7669H15.1279L15.741 17.6514L16.2665 18.7669Z" fill="#0BA708"/>
<path d="M18.9815 18.7666H17.0547L18.1056 19.882L18.9815 18.7666Z" fill="#0BA708"/>
<path d="M16.2665 18.7669H15.1279L15.741 17.6514L16.2665 18.7669Z" stroke="#86E094"/>
<path d="M18.9815 18.7666H17.0547L18.1056 19.882L18.9815 18.7666Z" stroke="#86E094"/>
<path d="M20.9083 18.6811H19.7697H18.9814L19.4194 18.252L19.7697 18.6811L20.2952 17.6514L20.9083 18.6811Z" fill="#0BA708"/>
<path d="M19.7698 18.6811H20.9084L20.2953 17.6514L19.7698 18.6811ZM19.7698 18.6811L19.4195 18.252L18.9815 18.6811H19.7698ZM16.354 18.6811H16.8795" stroke="#86E094"/>
<path d="M16.9672 18.6808H16.4417L16.6168 18.2518L15.8286 17.5654H17.1424H18.894H20.2078L19.4195 18.2518L18.894 17.5654L18.1057 18.6808L17.1424 17.5654L16.6168 18.2518L16.9672 18.6808Z" fill="#0BA708"/>
<path d="M16.6168 18.2518L16.9672 18.6808H16.4417L16.6168 18.2518ZM16.6168 18.2518L17.1424 17.5654M16.6168 18.2518L15.8286 17.5654H17.1424M17.1424 17.5654H18.894M17.1424 17.5654L18.1057 18.6808L18.894 17.5654M18.894 17.5654H20.2078L19.4195 18.2518L18.894 17.5654Z" stroke="#86E094"/>
<path d="M14.6719 21.761L15.7688 19.8805L16.8657 21.761H19.334L20.2938 19.8805L21.665 17.7312L20.2938 15.582L19.2825 14.1043H16.5915L15.7688 15.582L14.9461 14.1043H16.5915L18.0998 12.0894L19.2825 14.1043H21.3908L20.2938 15.582H22.6249L21.665 17.7312L22.7619 20.0148L20.2938 19.8805L21.3908 21.761H19.334L18.0998 23.6416L16.8657 21.761H14.6719Z" fill="#FFA60E"/>
<path d="M15.7689 15.7163L14.3977 17.7312L13.1636 15.7163H15.7689Z" fill="#FFA60E"/>
<path d="M16.8658 21.761L15.7689 19.8805L14.672 21.761H16.8658ZM16.8658 21.761H19.3341M16.8658 21.761L18.0999 23.6416L19.3341 21.761M19.3341 21.761H21.3909L20.2939 19.8805M19.3341 21.761L20.2939 19.8805M20.2939 19.8805L21.6651 17.7312M20.2939 19.8805L22.762 20.0148L21.6651 17.7312M21.6651 17.7312L22.625 15.582H20.2939M21.6651 17.7312L20.2939 15.582M20.2939 15.582L21.3909 14.1043H19.2826M20.2939 15.582L19.2826 14.1043M19.2826 14.1043H16.5916M19.2826 14.1043L18.0999 12.0894L16.5916 14.1043M16.5916 14.1043L15.7689 15.582L14.9462 14.1043H16.5916ZM14.3977 17.7312L15.7689 15.7162H13.1636L14.3977 17.7312Z" stroke="#86E094"/>
<path d="M14.3977 17.8657L13.1636 19.8806H15.7689L14.3977 17.8657Z" fill="#FFA60E" stroke="#86E094"/>
</g>
</g>
<defs>
<radialGradient id="paint0_radial_66_641" cx="0" cy="0" r="1" gradientUnits="userSpaceOnUse" gradientTransform="translate(18 18) rotate(90) scale(18)">
<stop offset="0.251788" stop-color="#00CC00"/>
<stop offset="1" stop-color="#02DE0A"/>
</radialGradient>
<clipPath id="clip0_66_641">
<rect width="36" height="36" fill="white"/>
</clipPath>
</defs>
</svg>
