<svg width="71" height="71" viewBox="0 0 71 71" fill="none" xmlns="http://www.w3.org/2000/svg">
<g clip-path="url(#clip0_66_1351)">
<mask id="mask0_66_1351" style="mask-type:luminance" maskUnits="userSpaceOnUse" x="0" y="0" width="71" height="71">
<path d="M71 0H0V71H71V0Z" fill="white"/>
</mask>
<g mask="url(#mask0_66_1351)">
<path d="M22.0521 8.47575L4.7334 25.8356V53.1434L22.0521 71.0884H48.9058L66.0301 53.1434V25.8356L48.9058 8.47575H44.2357L35.6735 0.0883789L26.9169 8.47575H22.0521Z" fill="white" stroke="#D6DBD4"/>
<path d="M23.2196 10.6216L6.6792 27.2012L7.26298 52.3633L23.2196 68.553H47.9328L64.0841 51.583V27.2012L46.9598 10.6216H23.2196Z" fill="#FFE747"/>
<path d="M35.2847 54.7035C43.6674 54.7035 50.4629 47.8918 50.4629 39.4892C50.4629 31.0866 43.6674 24.2749 35.2847 24.2749C26.902 24.2749 20.1064 31.0866 20.1064 39.4892C20.1064 47.8918 26.902 54.7035 35.2847 54.7035Z" fill="#E5A83D"/>
<path d="M29.7955 27.0059V28.5951H32.9098V30.1277H25.6619V37.2793H24.3027V34.1009H22.8306V44.7717H24.3027V41.7066H25.6619V48.9718H32.9098V50.2205H29.7955V52.0937H40.3276V50.2205H37.0434V48.9718H44.4047V41.7066H45.8204V44.7717H47.3493V34.4415H45.8204V37.2793H44.4047V29.6736H37.0434V28.5951H40.3276V27.0059H29.7955Z" fill="#01654D" stroke="#23D2A8"/>
<path d="M44.1176 39.2942C44.1176 44.5125 40.071 48.7336 35.0901 48.7336C30.1093 48.7336 26.0625 44.5125 26.0625 39.2942C26.0625 34.0762 30.1093 29.855 35.0901 29.855C40.071 29.855 44.1176 34.0762 44.1176 39.2942Z" fill="#C9005C" stroke="#C9005C"/>
<path d="M35.0901 48.072C39.7114 48.072 43.4576 44.1422 43.4576 39.2946C43.4576 34.4469 39.7114 30.5171 35.0901 30.5171C30.4689 30.5171 26.7227 34.4469 26.7227 39.2946C26.7227 44.1422 30.4689 48.072 35.0901 48.072Z" fill="#E3DEDA"/>
<path d="M35.172 30.5171L28.2793 44.5609H41.9006L35.172 30.5171Z" fill="#DF8433" stroke="#AE4E1B"/>
<path d="M26.7225 14.5225L24.9712 11.9868H46.1817L44.4304 14.5225H26.7225Z" fill="#B71021"/>
<path d="M28.8627 18.6185L27.5005 16.2778H33.922V18.6185H28.8627Z" fill="#B71021"/>
<path d="M36.6465 18.6185V16.2778H42.8737L41.7059 18.6185H36.6465Z" fill="#B71021"/>
<path d="M31.0034 22.7149L29.8359 20.5693H40.9276L39.7601 22.7149H31.0034Z" fill="#B71021"/>
<path d="M46.96 16.0828L47.3493 12.9619L53.7708 19.7888L52.0194 21.3493L46.96 16.0828Z" fill="#B71021"/>
<path d="M45.4033 20.5689L46.1817 18.0332L50.6573 22.7145L49.1008 23.8848L45.4033 20.5689Z" fill="#B71021"/>
<path d="M43.8467 24.4704L44.8196 22.3247L47.7384 25.2504L46.1816 26.811L43.8467 24.4704Z" fill="#B71021"/>
<path d="M55.3277 21.3491L53.3818 23.1046L58.052 27.786L60.9708 26.8107L55.3277 21.3491Z" fill="#B71021"/>
<path d="M50.6571 25.2501L52.0193 23.8848L56.4949 28.7613L54.3545 29.5413L53.6822 28.7613H50.9439L52.6032 30.5166L49.8789 31.1019L47.7383 28.7613L49.1005 26.8107L50.9439 28.7613H53.6822L50.6571 25.2501Z" fill="#B71021"/>
<path d="M62.5273 29.5415L59.9976 31.1021V38.7093H62.5273V29.5415Z" fill="#B71021"/>
<path d="M62.5273 40.6597H59.9976V48.8521L62.5273 50.2174V40.6597Z" fill="#B71021"/>
<path d="M55.3276 33.0527L58.0519 32.0776V47.877L55.3276 46.1214V33.0527Z" fill="#B71021"/>
<path d="M54.3546 33.833L51.6304 35.0033V44.3661L54.3546 45.1461V33.833Z" fill="#B71021"/>
<path d="M44.0413 58.2145L43.0684 55.2888L50.0737 47.6816L53.187 48.852L44.0413 58.2145Z" fill="#B71021"/>
<path d="M45.7923 62.5058L44.8193 59.3849L54.1596 49.6323L57.2732 50.8026L45.7923 62.5058Z" fill="#B71021"/>
<path d="M47.5437 66.7974L46.5708 63.4814L58.2463 51.583L61.3599 52.3633L47.5437 66.7974Z" fill="#B71021"/>
<path d="M29.8358 56.4595L28.0845 59.3851H34.1169V56.4595H29.8358Z" fill="#B71021"/>
<path d="M36.2573 59.3851V56.4595H40.5384L42.2897 59.3851H36.2573Z" fill="#B71021"/>
<path d="M26.5278 63.0911L27.5008 60.5552H42.2898L44.0412 63.0911H26.5278Z" fill="#B71021"/>
<path d="M24.9712 67.7726L25.9441 64.8467H34.1172V67.7726H24.9712Z" fill="#B71021"/>
<path d="M36.2573 67.7726V64.8467H44.0411L45.7924 67.7726H36.2573Z" fill="#B71021"/>
<path d="M21.4685 52.3629L23.0253 50.8026L19.9118 47.6816L17.1875 48.2667L21.4685 52.3629Z" fill="#B71021"/>
<path d="M24.3869 52.3633L23.0249 53.5336L26.5276 57.4348L26.9167 54.8989L24.3869 52.3633Z" fill="#B71021"/>
<path d="M21.4683 55.2891L19.9116 56.4594L24.971 61.7257L25.3603 59.19L21.4683 55.2891Z" fill="#B71021"/>
<path d="M16.0197 49.6323L19.9116 53.5333L18.1602 54.8986L13.2954 50.2174L16.0197 49.6323Z" fill="#B71021"/>
<path d="M11.9333 50.8027L8.81982 51.5828L23.2197 66.4071L23.6089 63.4812L11.9333 50.8027Z" fill="#B71021"/>
<path d="M16.0195 46.5113V32.4673L18.9384 34.4179V44.9507L16.0195 46.5113Z" fill="#B71021"/>
<path d="M12.3228 38.5142V31.1021L15.047 32.4674V38.5142H12.3228Z" fill="#B71021"/>
<path d="M12.3228 40.6597H15.047V47.0965L12.3228 48.2668V40.6597Z" fill="#B71021"/>
<path d="M10.571 40.6597H7.84668V50.2174L10.571 48.8521V40.6597Z" fill="#B71021"/>
<path d="M7.84668 38.5143H10.571V31.1022L7.84668 28.9565V38.5143Z" fill="#B71021"/>
<path d="M23.0251 12.7671L8.81982 27.0061L12.3225 27.5913L24.3871 15.6929L23.0251 12.7671Z" fill="#B71021"/>
<path d="M24.7766 17.0581L13.8794 28.1762L17.1874 28.9565L25.7495 19.9839L24.7766 17.0581Z" fill="#B71021"/>
<path d="M21.4682 27.0059L18.1602 29.7368L20.4953 30.5168L23.025 28.1762L21.4682 27.0059Z" fill="#B71021"/>
<path d="M24.3869 27.0059L23.0249 25.2506L26.5276 21.5444L27.5005 23.69L24.3869 27.0059Z" fill="#B71021"/>
<path d="M35.4789 7.1106C36.4461 7.1106 37.2302 6.32464 37.2302 5.3551C37.2302 4.38557 36.4461 3.59961 35.4789 3.59961C34.5116 3.59961 33.7275 4.38557 33.7275 5.3551C33.7275 6.32464 34.5116 7.1106 35.4789 7.1106Z" fill="#D9D9D9"/>
<path d="M38.5796 38.3452H32.1709L35.4113 43.7807L38.5796 38.3452Z" fill="#FFE747" stroke="#AE4E1B"/>
<path d="M35.3392 36.3687L32.1709 41.8042H38.5796L35.3392 36.3687Z" fill="#FFE747" stroke="#AE4E1B"/>
<path d="M36.4656 38.3452H34.2847L33.1567 40.1086L34.2847 41.8043H36.5408L37.5935 40.1086L36.4656 38.3452Z" fill="#FFE747" stroke="#AE4E1B"/>
</g>
</g>
<defs>
<clipPath id="clip0_66_1351">
<rect width="71" height="71" fill="white"/>
</clipPath>
</defs>
</svg>
