<svg width="36" height="36" viewBox="0 0 36 36" fill="none" xmlns="http://www.w3.org/2000/svg">
<g clip-path="url(#clip0_66_1351)">
<mask id="mask0_66_1351" style="mask-type:luminance" maskUnits="userSpaceOnUse" x="0" y="0" width="36" height="36">
<path d="M36 0H0V36H36V0Z" fill="white"/>
</mask>
<g mask="url(#mask0_66_1351)">
<path d="M11.1812 4.29767L2.3999 13.0999V26.9461L11.1812 36.0449H24.7972L33.4799 26.9461V13.0999L24.7972 4.29767H22.4292L18.0879 0.0449219L13.6479 4.29767H11.1812Z" fill="white" stroke="#D6DBD4"/>
<path d="M11.7734 5.38574L3.38672 13.7923L3.68272 26.5506L11.7734 34.7594H24.304L32.4934 26.1549V13.7923L23.8107 5.38574H11.7734Z" fill="#FFE747"/>
<path d="M17.8908 27.7372C22.1412 27.7372 25.5868 24.2834 25.5868 20.0229C25.5868 15.7624 22.1412 12.3086 17.8908 12.3086C13.6404 12.3086 10.1948 15.7624 10.1948 20.0229C10.1948 24.2834 13.6404 27.7372 17.8908 27.7372Z" fill="#E5A83D"/>
<path d="M15.1072 13.6934V14.4992H16.6863V15.2763H13.0113V18.9024H12.3221V17.2908H11.5757V22.7014H12.3221V21.1473H13.0113V24.831H16.6863V25.4642H15.1072V26.414H20.4474V25.4642H18.7822V24.831H22.5147V21.1473H23.2325V22.7014H24.0077V17.4635H23.2325V18.9024H22.5147V15.046H18.7822V14.4992H20.4474V13.6934H15.1072Z" fill="#01654D" stroke="#23D2A8"/>
<path d="M22.369 19.9238C22.369 22.5697 20.3173 24.71 17.7918 24.71C15.2662 24.71 13.2144 22.5697 13.2144 19.9238C13.2144 17.278 15.2662 15.1377 17.7918 15.1377C20.3173 15.1377 22.369 17.278 22.369 19.9238Z" fill="#C9005C" stroke="#C9005C"/>
<path d="M17.792 24.3747C20.1352 24.3747 22.0347 22.3822 22.0347 19.9242C22.0347 17.4662 20.1352 15.4736 17.792 15.4736C15.4488 15.4736 13.5493 17.4662 13.5493 19.9242C13.5493 22.3822 15.4488 24.3747 17.792 24.3747Z" fill="#E3DEDA"/>
<path d="M17.8333 15.4736L14.3384 22.5944H21.245L17.8333 15.4736Z" fill="#DF8433" stroke="#AE4E1B"/>
<path d="M13.5491 7.36335L12.6611 6.07764H23.4158L22.5278 7.36335H13.5491Z" fill="#B71021"/>
<path d="M14.6346 9.44072L13.9438 8.25391H17.1998V9.44072H14.6346Z" fill="#B71021"/>
<path d="M18.5811 9.44072V8.25391H21.7385L21.1464 9.44072H18.5811Z" fill="#B71021"/>
<path d="M15.7199 11.5176L15.1279 10.4297H20.7518L20.1599 11.5176H15.7199Z" fill="#B71021"/>
<path d="M23.8105 8.15468L24.0079 6.57227L27.2639 10.0338L26.3759 10.825L23.8105 8.15468Z" fill="#B71021"/>
<path d="M23.021 10.4298L23.4157 9.14404L25.685 11.5177L24.8958 12.1111L23.021 10.4298Z" fill="#B71021"/>
<path d="M22.2319 12.4078L22.7253 11.3198L24.2052 12.8033L23.4159 13.5946L22.2319 12.4078Z" fill="#B71021"/>
<path d="M28.053 10.8252L27.0664 11.7153L29.4344 14.089L30.9143 13.5944L28.053 10.8252Z" fill="#B71021"/>
<path d="M25.685 12.8031L26.3758 12.1108L28.6451 14.5834L27.5598 14.979L27.2189 14.5834H25.8305L26.6718 15.4735L25.2905 15.7702L24.2051 14.5834L24.8958 13.5944L25.8305 14.5834H27.2189L25.685 12.8031Z" fill="#B71021"/>
<path d="M31.7041 14.979L30.4214 15.7703V19.6274H31.7041V14.979Z" fill="#B71021"/>
<path d="M31.7041 20.6162H30.4214V24.7701L31.7041 25.4624V20.6162Z" fill="#B71021"/>
<path d="M28.0532 16.759L29.4345 16.2646V24.2756L28.0532 23.3854V16.759Z" fill="#B71021"/>
<path d="M27.56 17.1548L26.1787 17.7482V22.4955L27.56 22.891V17.1548Z" fill="#B71021"/>
<path d="M22.3307 29.5174L21.8374 28.0339L25.3894 24.1768L26.968 24.7702L22.3307 29.5174Z" fill="#B71021"/>
<path d="M23.2184 31.6934L22.7251 30.111L27.461 25.166L29.0397 25.7594L23.2184 31.6934Z" fill="#B71021"/>
<path d="M24.1066 33.8691L23.6133 32.1878L29.5332 26.1548L31.112 26.5504L24.1066 33.8691Z" fill="#B71021"/>
<path d="M15.1277 28.6274L14.2397 30.1109H17.2984V28.6274H15.1277Z" fill="#B71021"/>
<path d="M18.3838 30.1109V28.6274H20.5545L21.4425 30.1109H18.3838Z" fill="#B71021"/>
<path d="M13.4507 31.9899L13.944 30.7041H21.4427L22.3307 31.9899H13.4507Z" fill="#B71021"/>
<path d="M12.6611 34.3634L13.1545 32.8799H17.2985V34.3634H12.6611Z" fill="#B71021"/>
<path d="M18.3838 34.3634V32.8799H22.3305L23.2185 34.3634H18.3838Z" fill="#B71021"/>
<path d="M10.885 26.5504L11.6744 25.7592L10.0957 24.1768L8.71436 24.4734L10.885 26.5504Z" fill="#B71021"/>
<path d="M12.3654 26.5503L11.6748 27.1437L13.4508 29.1218L13.6481 27.836L12.3654 26.5503Z" fill="#B71021"/>
<path d="M10.885 28.0342L10.0957 28.6276L12.661 31.2978L12.8584 30.0121L10.885 28.0342Z" fill="#B71021"/>
<path d="M8.12254 25.166L10.0959 27.144L9.20788 27.8363L6.74121 25.4627L8.12254 25.166Z" fill="#B71021"/>
<path d="M6.05034 25.7593L4.47168 26.1548L11.773 33.6714L11.9703 32.1878L6.05034 25.7593Z" fill="#B71021"/>
<path d="M8.12256 23.5833V16.4624L9.60255 17.4514V22.792L8.12256 23.5833Z" fill="#B71021"/>
<path d="M6.24805 19.5283V15.77L7.62938 16.4623V19.5283H6.24805Z" fill="#B71021"/>
<path d="M6.24805 20.6162H7.62938V23.88L6.24805 24.4734V20.6162Z" fill="#B71021"/>
<path d="M5.35985 20.6162H3.97852V25.4624L5.35985 24.7701V20.6162Z" fill="#B71021"/>
<path d="M3.97852 19.5283H5.35985V15.77L3.97852 14.6821V19.5283Z" fill="#B71021"/>
<path d="M11.6743 6.47363L4.47168 13.6934L6.24768 13.9902L12.365 7.95716L11.6743 6.47363Z" fill="#B71021"/>
<path d="M12.5624 8.64941L7.03711 14.2867L8.71443 14.6824L13.0558 10.1329L12.5624 8.64941Z" fill="#B71021"/>
<path d="M10.8853 13.6934L9.20801 15.078L10.392 15.4736L11.6747 14.2868L10.8853 13.6934Z" fill="#B71021"/>
<path d="M12.3654 13.693L11.6748 12.803L13.4508 10.9238L13.9441 12.0117L12.3654 13.693Z" fill="#B71021"/>
<path d="M17.9891 3.60541C18.4795 3.60541 18.8771 3.2069 18.8771 2.7153C18.8771 2.22371 18.4795 1.8252 17.9891 1.8252C17.4986 1.8252 17.1011 2.22371 17.1011 2.7153C17.1011 3.2069 17.4986 3.60541 17.9891 3.60541Z" fill="#D9D9D9"/>
<path d="M19.5615 19.4429H16.312L17.9551 22.1989L19.5615 19.4429Z" fill="#FFE747" stroke="#AE4E1B"/>
<path d="M17.9185 18.4404L16.312 21.1965H19.5615L17.9185 18.4404Z" fill="#FFE747" stroke="#AE4E1B"/>
<path d="M18.4897 19.4429H17.3839L16.812 20.337L17.3839 21.1968H18.5279L19.0617 20.337L18.4897 19.4429Z" fill="#FFE747" stroke="#AE4E1B"/>
</g>
</g>
<defs>
<clipPath id="clip0_66_1351">
<rect width="36" height="36" fill="white"/>
</clipPath>
</defs>
</svg>
